<svg version="1.2" xmlns="http://www.w3.org/2000/svg" viewBox="0 0 128 128" width="128" height="128"><defs><linearGradient id="bottle_P" gradientUnits="userSpaceOnUse"/><linearGradient id="bottle_g1" x2="1" href="#bottle_P" gradientTransform="matrix(21.364,-128.918,127.857,21.188,-1.037,145.61)"><stop offset=".15" stop-color="#4d8373"/><stop offset=".64" stop-color="#7bb0b9"/><stop offset="1" stop-color="#4b8070"/></linearGradient><linearGradient id="bottle_g2" x2="1" href="#bottle_P" gradientTransform="matrix(54.127,8.03,-3.172,21.377,45.304,27.048)"><stop stop-color="#75b7a6"/><stop offset=".99" stop-color="#96c4bc"/></linearGradient><linearGradient id="bottle_g3" x2="1" href="#bottle_P" gradientTransform="matrix(29.015,-1.061,.738,20.181,53.069,4.162)"><stop stop-color="#e39c7c"/><stop offset="1" stop-color="#f193a4"/></linearGradient><linearGradient id="bottle_g4" x2="1" href="#bottle_P" gradientTransform="matrix(42.219,-1.544,1.448,39.617,49.507,5.107)"><stop stop-color="#b3524f"/><stop offset="1" stop-color="#c25a66"/></linearGradient><linearGradient id="bottle_g5" x2="1" href="#bottle_P" gradientTransform="matrix(4.935,-0.18,.422,11.554,83.338,13.067)"><stop stop-color="#b3524f"/><stop offset="1" stop-color="#c25a66"/></linearGradient><linearGradient id="bottle_g6" x2="1" href="#bottle_P" gradientTransform="matrix(9.104,-0.333,.799,21.862,39.009,40.771)"><stop stop-color="#304af0"/><stop offset=".99"/></linearGradient><linearGradient id="bottle_g7" x2="1" href="#bottle_P" gradientTransform="matrix(26.247,-0.96,1.411,38.583,21.365,67.442)"><stop stop-color="#304af0"/><stop offset=".99"/></linearGradient><linearGradient id="bottle_g8" x2="1" href="#bottle_P" gradientTransform="matrix(10.4,-3.479,5.573,16.659,34.347,109.511)"><stop stop-color="#39462c"/><stop offset="1" stop-color="#39430b"/></linearGradient><linearGradient id="bottle_g9" x2="1" href="#bottle_P" gradientTransform="matrix(5.734,-1.918,2.187,6.536,61.391,114.341)"><stop stop-color="#39462c"/><stop offset="1" stop-color="#39430b"/></linearGradient><linearGradient id="bottle_g10" x2="1" href="#bottle_P" gradientTransform="matrix(15.059,-3.473,1.887,8.183,55.572,120.211)"><stop stop-color="#39462c"/><stop offset="1" stop-color="#39430b"/></linearGradient><linearGradient id="bottle_g11" x2="1" href="#bottle_P" gradientTransform="matrix(17.544,-4.046,4.19,18.169,60.415,111.452)"><stop stop-color="#39462c"/><stop offset="1" stop-color="#39430b"/></linearGradient><linearGradient id="bottle_g12" x2="1" href="#bottle_P" gradientTransform="matrix(9.096,-3.043,4.207,12.574,41.275,114.499)"><stop stop-color="#39462c"/><stop offset="1" stop-color="#39430b"/></linearGradient><linearGradient id="bottle_g13" x2="1" href="#bottle_P" gradientTransform="matrix(11.725,-2.832,4.712,12.127,32.582,100.695)"><stop stop-color="#39462c"/><stop offset="1" stop-color="#39430b"/></linearGradient><linearGradient id="bottle_g14" x2="1" href="#bottle_P" gradientTransform="matrix(8.287,-2.772,1.554,4.646,79.979,114.391)"><stop stop-color="#39462c"/><stop offset="1" stop-color="#39430b"/></linearGradient><linearGradient id="bottle_g15" x2="1" href="#bottle_P" gradientTransform="matrix(2.578,-0.623,.734,1.888,38.7,99.471)"><stop stop-color="#395a2c"/><stop offset="1" stop-color="#395a0b"/></linearGradient><linearGradient id="bottle_g16" x2="1" href="#bottle_P" gradientTransform="matrix(2.098,-0.702,.711,2.125,57.017,117.349)"><stop stop-color="#395a2c"/><stop offset="1" stop-color="#395a0b"/></linearGradient><linearGradient id="bottle_g17" x2="1" href="#bottle_P" gradientTransform="matrix(5.36,-1.236,1.036,4.491,56.909,110.647)"><stop stop-color="#395a2c"/><stop offset="1" stop-color="#395a0b"/></linearGradient><linearGradient id="bottle_g18" x2="1" href="#bottle_P" gradientTransform="matrix(10.568,-2.437,2.547,11.043,67.651,106.906)"><stop stop-color="#395a2c"/><stop offset="1" stop-color="#395a0b"/></linearGradient><linearGradient id="bottle_g19" x2="1" href="#bottle_P" gradientTransform="matrix(4.828,-1.615,1.141,3.411,80.276,113.841)"><stop stop-color="#395a2c"/><stop offset="1" stop-color="#395a0b"/></linearGradient></defs><style>.bottle_a{fill:#b1cffc}.bottle_b{fill:url(#bottle_g1)}.bottle_c{opacity:.5;mix-blend-mode:soft-light;fill:#fff}.bottle_d{fill:url(#bottle_g2)}.bottle_e{opacity:.9;mix-blend-mode:multiply;fill:#7650b2}.bottle_f{opacity:.7;mix-blend-mode:multiply;fill:#85538b}.bottle_g{fill:url(#bottle_g3)}.bottle_h{opacity:.5;mix-blend-mode:multiply;fill:#9a538b}.bottle_i{fill:#c77f91}.bottle_j{fill:#ffcca3}.bottle_k{opacity:.2;mix-blend-mode:multiply;fill:#904f98}.bottle_l{opacity:.3;mix-blend-mode:multiply;fill:#e09abb}.bottle_m{fill:url(#bottle_g4)}.bottle_n{opacity:.2;mix-blend-mode:multiply;fill:#972066}.bottle_o{opacity:.4;mix-blend-mode:soft-light;fill:#ffffea}.bottle_p{fill:#ffd9c3}.bottle_q{fill:url(#bottle_g5)}.bottle_r{opacity:.3;mix-blend-mode:multiply;fill:#972066}.bottle_s{opacity:.2;mix-blend-mode:soft-light;fill:#ffffea}.bottle_t{fill:#fff}.bottle_u{opacity:.3;mix-blend-mode:soft-light;fill:#fff}.bottle_v{mix-blend-mode:screen;fill:url(#bottle_g6)}.bottle_w{opacity:.5;mix-blend-mode:multiply;fill:#85538b}.bottle_x{opacity:.3;mix-blend-mode:multiply;fill:#904f98}.bottle_y{opacity:.5;mix-blend-mode:soft-light;fill:#81ceff}.bottle_z{opacity:.5;mix-blend-mode:soft-light;fill:#f6f4ea}.bottle_A{fill:#ffffea}.bottle_B{mix-blend-mode:soft-light;fill:#81ceff}.bottle_C{mix-blend-mode:screen;fill:url(#bottle_g7)}.bottle_D{fill:url(#bottle_g8)}.bottle_E{fill:url(#bottle_g9)}.bottle_F{fill:url(#bottle_g10)}.bottle_G{fill:url(#bottle_g11)}.bottle_H{fill:url(#bottle_g12)}.bottle_I{fill:url(#bottle_g13)}.bottle_J{fill:url(#bottle_g14)}.bottle_K{fill:url(#bottle_g15)}.bottle_L{fill:url(#bottle_g16)}.bottle_M{fill:url(#bottle_g17)}.bottle_N{fill:url(#bottle_g18)}.bottle_O{fill:url(#bottle_g19)}</style><path fill-rule="evenodd" class="bottle_a" d="m41.4 8.2c6.7 15.1 10.3 21.1 9.8 22.5-0.4 1.4-9.7 0.6-12.3 5.9-4.5 9.3-6.3 13.2-5.2 16.2 1.1 3 10.9 8.9 9.4 10.9-1.4 2-15.6 1.9-23 9.3-7.1 7-6.4 15.7-0.3 24.9 6.1 9.1 15.6 13.3 16.2 15.2 0.5 2 1.2 8.4 3.4 9.6 5.8 3.2 26.5 6.4 40 2.8 2.2-0.6 0.3-4.5 4-6.4 3.8-1.9 11.8-9.6 11.8-9.6l-36.6-101.6z"/><path fill-rule="evenodd" class="bottle_b" d="m109.6 95.8c-3 9.1-13.6 18.7-28 22.3 0 0-1.9 4.3-2.7 5.3-0.6 0.7-3.9 1.9-8.8 2.5-3.3 0.4-7.4 0.4-11.8-0.2-2.5-0.4-4.9-1-7-1.6q-0.3-0.1-0.5-0.2-2.4-0.8-4.4-1.7-0.5-0.3-1-0.5c-3.6-1.7-5.8-3.5-6.1-4.1-0.5-1.3-1-5.9-1-5.9q-3.1-1.9-5.7-4c-7.1-5.7-11.8-12.9-13.7-19.6-1.5-5.1-1.3-9.8 0.8-13.4 3.7-6.3 14.8-8.1 21.9-8.9 3.4-0.3 5.8-0.5 6.3-0.8 1-0.8-0.1-2.1-2.4-4.1q-1.2-1.1-2.9-2.5c-4.3-3.4-5.2-7-5.2-9.2 0.1-2.1 6.6-13.6 6.6-13.6l54.2 8c0 0 2.9 12.9 2.3 15-0.5 2.1-2.4 5.2-7.6 7.3q-2 0.8-3.5 1.5c-2.8 1.3-4.2 2.2-3.4 3.2 0.3 0.5 3 1.5 6.5 3 6.6 2.9 15.9 7.7 17.6 14.6 0.6 2.4 0.4 5-0.5 7.6z"/><path fill-rule="evenodd" class="bottle_c" d="m43 103.7c-12.8-7.7-17.6-20.3-15.3-24.3 0.1-0.1 1.9-2.9 15-4.4q1.2-0.1 2.2-0.2c3.8-0.4 6.1-0.6 8.5-2.4 1.2-0.9 2.1-4.6 2.6-5.7 3.5 1.5 9.5 4.5 21.2 3.3 0.3 1.3 0.5 5 1.4 6.2 1.7 2.3 3.8 3.2 7.4 4.7q1.3 0.6 2.8 1.2c11.4 5 12.2 8.1 12.3 8.2 1 4.4-7.2 15.1-21.8 18.8-2.8 0.7-21.8 3.8-36.3-5.4z"/><path fill-rule="evenodd" class="bottle_d" d="m44 35.6c-1.1 7.9 13.4 15.1 25.2 16.8 11.8 1.8 28-2.2 29-8.8 0.9-6.6-17.8-11.3-28.2-12.9-10.4-1.5-25.3 0.3-26 4.9z"/><path fill-rule="evenodd" class="bottle_e" d="m55.6 37.9c-3.2 0.6 11.3 13.2 31.8 5.9 2.3-0.9-16.9-8.7-31.8-5.9z"/><path fill-rule="evenodd" class="bottle_f" d="m63.1 43.5c-18.4-0.9-20.6-6.6-17.9-9.6 4.6-5.3 21.9-3.7 30.8 0.1 8.9 3.8 13.3 7.7 11.4 9.8-1.9 2-6.5 2.6-14.1 2.4-7.5-0.2-10.2-2.7-10.2-2.7z"/><path fill-rule="evenodd" class="bottle_g" d="m88.7 34.7q0 0 0 0c-3.3 5-5.8 8.7-5.8 8.7 0 0-14.6 7.8-24.7-4.4 0 0-2.1-4.4-5.8-11.1-1.3-2.4-2.8-5-4.5-7.8-4.3-7.4-8-11.6-5.7-12.7 2.3-1.1 32.6-8.9 60 1.8 2.2 0.9-7 15.6-13.5 25.5z"/><path fill-rule="evenodd" class="bottle_h" d="m37.4 98.3c-3.8 1 18 18.1 45.2 9.8 1.8-0.5-39.4-11.3-45.2-9.8z"/><path fill-rule="evenodd" class="bottle_i" d="m70.2 107.6c-13.1 2.3-16.2-3.4-16.2-3.4 0 0 1.2-4.4 1.1-4.4-0.7 0.3-5 1.7-7.1 1q-0.4-0.1-0.6-0.3c-6.4-5.5-6.3-13.8-6.3-13.8 11.9-11.8 13.1-20.7 13.1-20.7q3.1 1.5 5.9 2.4 2.7 0.9 5 1.3c9.5 2.1 15 0.2 15 0.2-0.1 5.9 6.3 20.7 7.3 22.6 1.1 1.8-1.2 12.3-17.2 15.1z"/><path fill-rule="evenodd" class="bottle_j" d="m49.6 8.6c0 0 24.5-9.9 42.2 0.3 2.5 1.4-15 7.7-24.6 3.8-1.2-0.4 5.7-2 10.5-1.8 1.9 0.1-1.1-2.6-1.9-2.8-3.6-0.6-14-0.8-18.4 3.2-3.6 3.3 14 9.2 28.3 6.2 11.1-2.2 18-6.3 16.6-8.3-7.8-10.4-43.7-11.4-60.1-1.8-1.3 0.7 5.8 1.5 7.4 1.2z"/><path fill-rule="evenodd" class="bottle_k" d="m50 32.7c-10.5 2.5 0.6 13.3 5.6 14.2 9.3 1.6 5.8-1.7 3-4-2.7-2.4-3.8-11.3-8.6-10.2z"/><path fill-rule="evenodd" class="bottle_k" d="m75.1 48.6c4.9 5.7 22.2 2.6 20.3-5.1-2-7.7-4.6-4.1-6.4-0.9-1.8 3.2-15.9 3.6-13.9 6z"/><path fill-rule="evenodd" class="bottle_l" d="m49.6 8.6c2.3 14.4 14.4 35.3 14.4 35.3 0 0-4.1-3.2-5.8-4.9-1.7-1.7-4.4-9.3-10.3-18.9-5.8-9.7-6-10.1-6-10.1z"/><path fill-rule="evenodd" class="bottle_m" d="m91.9 9.7c-0.3 0.8-9.2 4.1-13.1 4.1 0 0-0.4-2.4-0.3-2.9 0 0-0.6-2.1-2.7-2.8-2.1-0.7-14.9-1.3-18.9 4.1 0 0 7.2 16.7 7.7 32l-1.5-0.7c0 0-10.6-21-13.5-34.9 0 0 9.2-5 23.8-4.1 14.6 0.9 18.9 4.3 18.5 5.2z"/><path fill-rule="evenodd" class="bottle_n" d="m65.1 69.7c-2.3 9-6.4 23.7-9.9 30.1q0 0-0.1 0c-5.1 2.3-7 0.9-7 0.8 5.6-6.6 11.4-21.8 14.5-31.4 1.8 0.6 0.9 0.2 2.5 0.5z"/><path fill-rule="evenodd" class="bottle_l" d="m83.4 19.5c-18.8 0.7-22.6-4.3-23.3-3.2-0.7 1.1 3.9 16.6 4.3 21.4 0.3 4.7 1.3 6.7 2.4 7 1.1 0.3 8.7 3 13.4-2.5 4.8-5.5 7-22.9 3.2-22.7z"/><path fill-rule="evenodd" class="bottle_o" d="m90.1 5.2c6 4.5 3.7 5.7-2.7 7.8-6.3 2.1 5.1 3.1 10-0.1 4.9-3.2 3.4-5.5-0.8-7.5-4.2-2.1-8.4-1.5-6.5-0.2z"/><path fill-rule="evenodd" class="bottle_o" d="m75.2 9.8c-10.8 2.5-8.2 3.7-8.6 4.6-0.5 0.8-11.4-0.8-7-4 4.4-3.2 19.3-1.5 15.6-0.6z"/><path fill-rule="evenodd" class="bottle_o" d="m46.6 6.5c2.8 0.6 26.8-4.1 25.7-4.5-1.1-0.4-8.4-1.8-16.7 0.7-8.3 2.5-10 3.6-9 3.8z"/><path fill-rule="evenodd" class="bottle_p" d="m83.4 17.8c2.2 1.4 3.9 7.7 4.2 6.6 0.3-1.1 1.5-8.6-0.2-9.5-1.6-0.8-3.9-2.5-4.6-1.2-0.6 1.3-0.4 3.5 0.6 4.1z"/><path fill-rule="evenodd" class="bottle_q" d="m83.4 13.2c2.7 4.3 2.3 4.6 2.7 5.3 0.3 0.7 1.2 6.7 1.5 5.9 0.3-0.7 1.5-7.1 0.4-8.5-1-1.4-5-3.3-4.6-2.7z"/><path fill-rule="evenodd" class="bottle_r" d="m88.7 34.7c-3.3 5-5.8 8.7-5.8 8.7 0 0-14.6 7.8-24.7-4.4 0 0-2.1-4.4-5.8-11.1l0.1-0.2c8.8 10.1 0-7.2 0.8-7.9 2-1.8 5.5-3.2 5.5-3.2 0 0 5.7 18.8 5.9 23.9 0 0 4.3 5.1 10.9 3.4 5.6-1.4 10.5-5.7 13.1-9.2z"/><path fill-rule="evenodd" class="bottle_o" d="m62.9 17.8c18.2 9.3 4.2 23.4 3.2 21.6-1-1.8-7.8-23.9-3.2-21.6z"/><path fill-rule="evenodd" class="bottle_r" d="m81.3 77.8c-7.8-7.5-23.9 16.8-26.2 22 0 0-3.5 2.1-7.1 1-3.6-1-8.1-11.9-6.3-14.2 1.9-2.2 11.8-13 12.5-20.6 0 0 10.6 6.7 25.9 3.9z"/><path fill-rule="evenodd" class="bottle_s" d="m80.9 91.2c-11 5.2-17.3 13.2-15.3 14.6 3 2.1 13.7 0.9 19.3-6.4 5.5-7.3 0.6-10.4-4-8.2z"/><path fill-rule="evenodd" class="bottle_k" d="m47.3 46.9c-6.8 2.6 1.1 21.6 20.5 21.9 19.5 0.2 22.1-15.9 20.6-16.8-1.5-0.9-13 3.9-26.6-0.5-13.5-4.4-10.9-5.9-14.5-4.6z"/><path fill-rule="evenodd" class="bottle_t" d="m83.2 50.5c1.3 1.7 5.2 1.2 8-1 2.9-2.4-12.1-4.2-8 1z"/><path fill-rule="evenodd" class="bottle_u" d="m97.8 49.7c3.5 10.4-0.9 14.9-7.9 16.3-7 1.5-0.8-7 2.2-11.2 3-4.3 4.9-7.5 5.7-5.1z"/><path fill-rule="evenodd" class="bottle_v" d="m42.7 40.8c-3.7 1.8-5.4 11 0.2 16.6 5.5 5.7 6.3 7.4 5.8-0.1-0.5-7.5-2.7-18.1-6-16.5z"/><path fill-rule="evenodd" class="bottle_k" d="m52.8 48.7c1.1 11.8 7.7 22.3 18.4 18.7 9.1-3 13.2-14.3 8.6-14.1-21.7 0.8-27.3-7.1-27-4.6z"/><path fill-rule="evenodd" class="bottle_w" d="m41.6 72.8c-8.1-4.5-3.6-6.3 0-7 3.4-0.4 5.8-0.5 6.3-0.8 1-0.8-0.1-2.1-2.4-4.1-0.1-0.3-0.1-0.5-0.1-0.5 10.3 8.9 26.7 13.1 43.8 6.6q0 0 0.2 0.4c-2.8 1.3-4.2 2.2-3.4 3.2 0.3 0.5 3 1.5 6.5 3q0 0.1 0.1 0.1c0.8 1.9-29.6 10.9-51-0.9z"/><path fill-rule="evenodd" class="bottle_w" d="m48.8 62.8c-1.5 9.9 5.9 12.2 14.1 11.8 11.4-0.7 22.4-5.8 21.3-5.8-1 0-12.5 2.7-21.6 0.4-9.1-2.4-13.8-6.4-13.8-6.4z"/><path fill-rule="evenodd" class="bottle_x" d="m45.1 119.7c19 12.2 32.6 2.2 31.1 0.8-1.5-1.4-12.6-10.5-25.6-11-7.5-0.4-12.8 5.4-5.5 10.2z"/><path fill-rule="evenodd" class="bottle_x" d="m89.2 79.6c7.5 6.4 12.4 7.8 12.1 12.2-0.3 4.4-9.7 14-7.2 16.1 2.5 2.1 19.3-4.6 16.5-19.6-1.9-10.4-26.9-13.3-21.4-8.7z"/><path fill-rule="evenodd" class="bottle_x" d="m42.1 72.4c2.8 3.8-14.2 2.5-15.2 8.1-1.2 7.1 9 28.7 3.7 24.3-9.6-8.1-14.7-21.8-11-29.6 4.2-9.1 21.1-4.7 22.5-2.8z"/><path fill-rule="evenodd" class="bottle_y" d="m42.1 71.5c5.7 2.3 7.8-3.5 5.3-5.3-2.5-1.9-13.3 2-5.3 5.3z"/><path fill-rule="evenodd" class="bottle_z" d="m65.9 82.8c-13.2 11 11 21 31.8 11.6 19.6-8.8 3.2-15.9-7.1-17.6-7.5-1.2-20.4 2.5-24.7 6z"/><path fill-rule="evenodd" class="bottle_A" d="m78.8 79.8c8.3 10.9 13.2 5.4 10.5-1.3-1.1-2.9-12.2-0.9-10.5 1.3z"/><path fill-rule="evenodd" class="bottle_B" d="m80.9 114c-0.7 1.9 9-0.3 10-2.5 2-4.4-7.9-3.1-10 2.5z"/><path fill-rule="evenodd" class="bottle_k" d="m50.6 123.6l0.2 0.3c-6.7-2.2-11.1-5.4-11.5-6.3-0.5-1.3-1-5.9-1-5.9-10.3-6.2-17-15.3-19.4-23.6 7.7 17.9 21.7 21.9 21.8 23.1 0 1.2-0.9 4.9-0.1 6.1 0.9 1.5 10 6.3 10 6.3z"/><path fill-rule="evenodd" class="bottle_k" d="m109.6 95.8c-3 9.1-13.6 18.7-28 22.3 0 0-1.9 4.3-2.7 5.3-0.6 0.7-3.9 1.9-8.8 2.5 1.4-0.9 6.2-1.6 7.1-2.6 1.9-2.4 1-5.5 1.5-6 1.1-1.2 10-2.3 19.3-8.8 4.9-3.5 10-10.4 11.6-12.7z"/><path fill-rule="evenodd" class="bottle_C" d="m22.3 74.5c-3.5 8.7 10.8 29.7 18.6 30.8 7.8 1.2 10.1-37.4 2.9-38.3-12.5-1.6-20.7 5.4-21.5 7.5z"/><path fill-rule="evenodd" class="bottle_t" d="m26.6 95.6c2.7 2.2 2.1-2.2 0.6-3.2-1.5-1-3.3 0.8-0.6 3.2z"/><path fill-rule="evenodd" class="bottle_D" d="m46.4 122.2c-4.2-1.9-6.8-3.9-7.1-4.6-0.5-1.3-1-5.9-1-5.9-0.1-1.7 8.3-5.9 8.1 10.5z"/><path fill-rule="evenodd" class="bottle_E" d="m65.8 114.7c-3.2-2.6-3.9 2.8-1 4.2 2.7 1.5 4.5-1.4 1-4.2z"/><path fill-rule="evenodd" class="bottle_F" d="m70.8 125.2c-2.6-9.9-10.7-7-13.9 0-0.5 1.3 14.3 1.5 13.9 0z"/><path fill-rule="evenodd" class="bottle_G" d="m77.8 124.2c3-0.9-12.7-24.1-13.6-7.2-0.6 10.6 5.2 9.9 13.6 7.2z"/><path fill-rule="evenodd" class="bottle_H" d="m51.6 122.4q0 1-0.3 1.7-0.3-0.1-0.5-0.2-2.4-0.8-4.4-1.7-0.5-0.3-1-0.5c-0.5-1.1-0.9-2.4-1.1-4-0.8-7.1 7.2-1.3 7.3 4.7z"/><path fill-rule="evenodd" class="bottle_I" d="m37 103.7c4.4 7.1 9.6 8.4 8.2 3.1-1.4-5.3-12-9.2-8.2-3.1z"/><path fill-rule="evenodd" class="bottle_J" d="m83.3 117.6c-7.6-8.5 5.5-1.9 5.5-1.9z"/><path fill-rule="evenodd" class="bottle_K" d="m39.3 99.6c1.2 2.1 2.9 1.3 1.8 0.4-1-0.9-2-0.8-1.8-0.4z"/><path fill-rule="evenodd" class="bottle_L" d="m57.8 117.3c-1.1 0.9 1.1 2.5 1.5 1.1 0.2-0.7-0.9-1.6-1.5-1.1z"/><path fill-rule="evenodd" class="bottle_M" d="m57.9 112c0.9 4.3 6.1 1.4 4-0.5-2.2-1.9-4.4-1.3-4 0.5z"/><path fill-rule="evenodd" class="bottle_N" d="m70.2 107.8c-2 9.4 10.5 10.2 7.8 4.2-1.7-4.1-7.1-7.3-7.8-4.2z"/><path fill-rule="evenodd" class="bottle_O" d="m81 113.8c1.1 4.9 5.7 1.3 4.1 0.4-1.6-0.8-4.3-1.5-4.1-0.4z"/></svg>