<svg version="1.2" xmlns="http://www.w3.org/2000/svg" viewBox="0 0 128 128" width="128" height="128"><defs><linearGradient id="chest_P" gradientUnits="userSpaceOnUse"/><linearGradient id="chest_g1" x2="1" href="#chest_P" gradientTransform="matrix(-22.758,95.069,-68.469,-6.722,57.225,17.624)"><stop stop-color="#72001b"/><stop offset="1" stop-color="#8b1f11"/></linearGradient><linearGradient id="chest_g2" x2="1" href="#chest_P" gradientTransform="matrix(26.421,-110.369,39.432,3.871,40.406,139.5)"><stop stop-color="#cf461d"/><stop offset="1" stop-color="#de700e"/></linearGradient><linearGradient id="chest_g3" x2="1" href="#chest_P" gradientTransform="matrix(15.686,.388,-1.277,51.683,-0.1,.292)"><stop stop-color="#1e4efe"/><stop offset="1"/></linearGradient><linearGradient id="chest_g4" x2="1" href="#chest_P" gradientTransform="matrix(2.846,-100.003,52.673,-0.907,44.804,124.879)"><stop stop-color="#cf461d"/><stop offset="1" stop-color="#de700e"/></linearGradient><linearGradient id="chest_g5" x2="1" href="#chest_P" gradientTransform="matrix(-11.208,-56.812,98.465,-19.426,-33.377,118.931)"><stop stop-color="#72001b"/><stop offset="1" stop-color="#8b1f11"/></linearGradient><linearGradient id="chest_g6" x2="1" href="#chest_P" gradientTransform="matrix(.515,-18.09,5.778,-0.099,89.479,124.909)"><stop stop-color="#720a32"/><stop offset="1" stop-color="#8b1d25"/></linearGradient><linearGradient id="chest_g7" x2="1" href="#chest_P" gradientTransform="matrix(8.114,-0.756,5.523,59.301,2.795,58.484)"><stop stop-color="#1e4efe"/><stop offset="1"/></linearGradient><linearGradient id="chest_g8" x2="1" href="#chest_P" gradientTransform="matrix(38.538,2.895,-0.831,6.858,65.234,53.695)"><stop stop-color="#420c57"/><stop offset="1" stop-color="#66319a"/></linearGradient><linearGradient id="chest_g9" x2="1" href="#chest_P" gradientTransform="matrix(3.876,.291,-0.194,1.601,80.762,59.768)"><stop stop-color="#8b6d9d"/><stop offset="1" stop-color="#705c96"/></linearGradient><linearGradient id="chest_g10" x2="1" href="#chest_P" gradientTransform="matrix(-10.3,84.949,72.712,5.463,64.404,53.373)"><stop stop-color="#ecbeba"/><stop offset=".85" stop-color="#705c96"/><stop offset="1" stop-color="#7e68ba"/></linearGradient><linearGradient id="chest_g11" x2="1" href="#chest_P" gradientTransform="matrix(19.409,1.458,-0.266,2.193,91.263,62.31)"><stop stop-color="#420c57"/><stop offset="1" stop-color="#66319a"/></linearGradient><linearGradient id="chest_g12" x2="1" href="#chest_P" gradientTransform="matrix(-17.234,40.091,-13.124,-5.524,97.897,45.93)"><stop stop-color="#ecbeba"/><stop offset=".85" stop-color="#705c96"/><stop offset="1" stop-color="#7e68ba"/></linearGradient><linearGradient id="chest_g13" x2="1" href="#chest_P" gradientTransform="matrix(-27.802,-35.093,18.465,-16.243,83.17,66.302)"><stop stop-color="#ecbeba"/><stop offset=".85" stop-color="#705c96"/><stop offset="1" stop-color="#7e68ba"/></linearGradient><linearGradient id="chest_g14" x2="1" href="#chest_P" gradientTransform="matrix(-9.932,-0.746,2.256,-18.61,74.16,57.638)"><stop stop-color="#8b6d9d"/><stop offset="1" stop-color="#705c96"/></linearGradient><linearGradient id="chest_g15" x2="1" href="#chest_P" gradientTransform="matrix(-8.573,67.082,-51.291,-4.223,105.306,39.002)"><stop stop-color="#ffde6a"/><stop offset="1"/></linearGradient><linearGradient id="chest_g16" x2="1" href="#chest_P" gradientTransform="matrix(5.887,-0.548,1.633,17.533,88.405,66.528)"><stop stop-color="#420c57"/><stop offset="1" stop-color="#66319a"/></linearGradient></defs><style>.chest_a{fill:#b1cffc}.chest_b{fill:url(#chest_g1)}.chest_c{fill:url(#chest_g2)}.chest_d{opacity:.5;mix-blend-mode:multiply;fill:#923c8e}.chest_e{mix-blend-mode:multiply;fill:#ab6363}.chest_f{opacity:.5;mix-blend-mode:soft-light;fill:#ffd8ba}.chest_g{opacity:.3;mix-blend-mode:multiply;fill:#b62781}.chest_h{opacity:.3;mix-blend-mode:multiply;fill:#b81964}.chest_i{opacity:.8;mix-blend-mode:multiply;fill:#923c8e}.chest_j{opacity:.3;mix-blend-mode:soft-light;fill:#ffd8ba}.chest_k{mix-blend-mode:screen;fill:url(#chest_g3)}.chest_l{opacity:.3;mix-blend-mode:multiply;fill:#d3469f}.chest_m{fill:#b33b2b}.chest_n{fill:#47111f}.chest_o{fill:url(#chest_g4)}.chest_p{fill:url(#chest_g5)}.chest_q{fill:url(#chest_g6)}.chest_r{fill:#ff9259}.chest_s{mix-blend-mode:screen;fill:url(#chest_g7)}.chest_t{fill:url(#chest_g8)}.chest_u{fill:url(#chest_g9)}.chest_v{fill:url(#chest_g10)}.chest_w{mix-blend-mode:soft-light;fill:#c5cfea}.chest_x{fill:url(#chest_g11)}.chest_y{fill:url(#chest_g12)}.chest_z{fill:#897493}.chest_A{fill:url(#chest_g13)}.chest_B{fill:url(#chest_g14)}.chest_C{opacity:.2;mix-blend-mode:multiply;fill:#923c8e}.chest_D{opacity:.9;mix-blend-mode:screen;fill:url(#chest_g15)}.chest_E{fill:url(#chest_g16)}.chest_F{fill:#fff}</style><path fill-rule="evenodd" class="chest_a" d="m14.9 6.6c-10.4 7.2-14.3 36.6-13.7 51.3 0 0.7 1.4 0.7 1.3 1.4-1.1 14 1.7 56.8 3 58.1 1.4 1.4 18.2 4.2 29.2 4.6 10.9 0.4 18.2-0.2 20.1-0.9 1.8-0.7 8.2-7.8 15.3-10.2 7.1-2.3-55.2-104.3-55.2-104.3z"/><path fill-rule="evenodd" class="chest_b" d="m57.8 58.5c-4-0.4-6.1-0.6-10.1-1q-21.8-0.7-43.8-0.7c-0.1-2.6-0.1-6.4 0.2-10.7q0 0 0 0 0.1-1.6 0.2-3.3c0.4-6 1.2-12.7 2.5-18.8q0.1-0.6 0.2-1.1c1.3-5.8 3.1-11 5.8-14.3 1.4-1.7 3-2.9 4.9-3.4 2.3-0.7 5.2-0.4 8.5 1.1 3.2 1.5 11.3 5.6 11.3 5.6 13.9 7.3 21.3 27.4 20.3 46.6z"/><path fill-rule="evenodd" class="chest_c" d="m23 5.1c0 0 7 2.2 32.4 6.3 32.2 5.2 45.1 5.5 48.1 6.2 19 4.5 25.1 36.1 22.5 50.5-26-4.4-78.3-10.5-78.3-10.6-7-49.5-24.7-52.4-24.7-52.4z"/><path fill-rule="evenodd" class="chest_d" d="m33.6 48.1c-5.3-0.6-8-0.9-13.3-1.5-2.2-0.3-3.3-0.4-5.5-0.7 0 0 1-13.9 4.7-21.7 0.8-1.9 2.7-3.7 4-1.9 4.9 6.7 7.8 16.4 10.1 25.8z"/><path fill-rule="evenodd" class="chest_d" d="m33.1 47.2c0 0-7.2-1.5-12-2.5-0.1-3.2 2-13 4.7-18.4 0 0 5.7 10.1 7.3 20.9z"/><path fill-rule="evenodd" class="chest_d" d="m36.4 19.7c0 0 12.8-3.9 53.8 2.4 21.3 3.3 28.5 7.8 28.5 7.8 0.2 1 1.8 2.9 1.8 2.9 0 0-11.7-6.8-30.8-9.6-31.6-4.7-52.1-1.5-52.1-1.5-2.9 6-4.2 8.6-7.3 14.5l-0.4-1.1c0 0 5.4-7.7 6.5-15.4z"/><path fill-rule="evenodd" class="chest_d" d="m33.1 47.2c0 0 4.7 0 12.8 0.6 0 0 53.8 7 80.5 10.5l-0.1-2.8c-27.1-1.2-38.7-2.3-80.7-8.6-0.5 0-10.4-0.5-12.5-0.6 0.2 0 0 0.9 0 0.9z"/><path fill-rule="evenodd" class="chest_e" d="m14.9 45.3c0.1 0.2-0.1 0.6-0.1 0.6-7.2-1.8-10.6-1.4-10.6-1.4 0 0 0-0.6 0.1-1.7 4.6 1.2 10.6 2.5 10.6 2.5z"/><path fill-rule="evenodd" class="chest_e" d="m16.7 32.6l-9.9-8.6c0-0.4 0.2-1.1 0.2-1.1 0 0 3.5 4.8 9.8 9.1 0.2 0.2-0.1 0.6-0.1 0.6z"/><path fill-rule="evenodd" class="chest_e" d="m19.9 23.6l-0.6 1.1c-0.2-1.2-3.4-11-6.5-16.1 0 0 1.6-2.5 4.9-3.4-0.2 0 2.2 18.4 2.2 18.4z"/><path fill-rule="evenodd" class="chest_f" d="m57.9 20.7c18 3.3 42.9 4.8 42.9 4.8 0 0-8.8-2.4-22.6-3.7-13.7-1.3-20.3-1.1-20.3-1.1z"/><path fill-rule="evenodd" class="chest_g" d="m43.7 18.8c1.3 0.1 36.2 1.1 66.4 7.8 0 0-13.8-4.9-36.6-6.7-22.9-1.8-29.8-1.1-29.8-1.1z"/><path fill-rule="evenodd" class="chest_d" d="m126.3 55.5c-4.7 1.4-29.8-1.8-29.8-1.8z"/><path fill-rule="evenodd" class="chest_h" d="m21.1 44.7l-6.3 1.2c0 0 3.9-10.1 6.5-8.2 0.5 0.4-0.2 7-0.2 7z"/><path fill-rule="evenodd" class="chest_i" d="m18.3 26.4c-3.5 19.5 11.6 19.7 13.5 15.4 1-2.3-7.7-20.3-9.9-20.4-1.3 0-3.6 5-3.6 5z"/><path fill-rule="evenodd" class="chest_j" d="m44.8 49.5c-2.1-1.8-38.5-4.1-39.4-2.8-0.8 1.3-0.8 7.2 0.5 8 1.2 0.7 39.8 2.5 40.3 1.2 0.5-1.2-0.6-5.7-1.4-6.4z"/><path fill-rule="evenodd" class="chest_g" d="m31.7 35.3c0.4 2.5 1.5 10 2.3 10.5 0.9 0.4 9.7-0.3 10-0.9 0.4-0.6-5.5-18.2-6.2-18.2-0.7 0.1-6.3 7.3-6.1 8.6z"/><path fill-rule="evenodd" class="chest_g" d="m30.5 31.5c0.7-0.8 4.9-11.5 4-14-1-2.6-12.5-14.4-15.1-11.8-0.5 0.6 0.1 14.5 1.7 14.7 1.6 0.2 3.7 1.3 5.5 5.2 1.9 3.8 3.1 6.8 3.9 5.9z"/><path fill-rule="evenodd" class="chest_g" d="m14.1 44.1c-2.6 0-8.4-1.1-8.6-2.5-0.2-1.3 0.9-15 1.7-14.9 0.7 0.1 7.8 4.9 8.1 6.5 0.2 1.6-0.4 10.9-1.2 10.9z"/><path fill-rule="evenodd" class="chest_g" d="m7.5 22.1c0.4 1.3 8.5 9.1 8.9 8.6 0.5-0.5 1.7-6.2 1.6-7-0.2-0.8-5.9-12.8-6.8-12-0.9 0.8-4 9.1-3.7 10.4z"/><path fill-rule="evenodd" class="chest_k" d="m13.8 7.6c3.6 27.8-8.8 44.4-9.4 44.3-0.6-0.2 0.2-14 2.5-27.5 2.3-13.4 6.9-16.8 6.9-16.8z"/><path fill-rule="evenodd" class="chest_l" d="m88.1 49c12.4 4.4 26.2 6.1 33.2 0.2 7-5.8-7.1-15.1-21.1-18-14-2.9-12 4.6-10.4 5.6 2.8 1.7 16.7 3.5 15.7 0.6-1-3 9.9 0.5 13.4 3.3 3.4 2.7-3.4 5.2-13.9 5.4-10.5 0.3-22.7-0.4-33.3-6.2-10.6-5.8-12.8-9.9-4.5-12.7 7.4-2.4 38.9-0.4 38.9-0.4l-3.8-1c0 0-47.2-4.4-52.3-1.4-5.1 3 18.5 17.7 38.1 24.6z"/><path fill-rule="evenodd" class="chest_g" d="m85.8 44.9c13.7 5.1 33 4.1 33.8-2.4 0 0-0.7 2.3-10.9 3.5-10.2 1.2-22.9-1.1-22.9-1.1z"/><path fill-rule="evenodd" class="chest_g" d="m88.8 33.5c6.2-2.6 20.7 0.7 28.4 4.7 0 0-12.3-7.5-21.1-7.6-8-0.1-7.3 2.9-7.3 2.9z"/><path fill-rule="evenodd" class="chest_g" d="m49.2 25.3c9.8-1.3 44.1-0.4 44.1-0.4 0 0-27.3-2-35.9-1.6-8.7 0.3-8.2 2-8.2 2z"/><path fill-rule="evenodd" class="chest_j" d="m71.8 28.1c-13.4 3.3 3.8 13.5 10.5 15 6.7 1.5 5.1-6.1 4.9-8.2-0.1-2-1.7-10.3-15.4-6.8z"/><path fill-rule="evenodd" class="chest_j" d="m106.1 37.5c-1.1 6.3-14.6 5.6-12 6.9 2.5 1.4 21.3 2.4 23.7-1.3 2.4-3.7-11.3-7.5-11.7-5.6z"/><path fill-rule="evenodd" class="chest_j" d="m94.7 29.7c8.2 1.7 18.8 3.8 20.7 3.9 2 0.1-1.6-3.2-6.6-5.4-5.1-2.3-27-1.2-14.1 1.5z"/><path fill-rule="evenodd" class="chest_g" d="m101.8 23.6c7.3 1.8 4.4-5.2-21.7-7.8-4.3-0.4-23-2.4-40.3-6.2-14.7-3.3-1.8 6.7 1.6 7.4 3.3 0.7 30.4-0.6 60.4 6.6z"/><path fill-rule="evenodd" class="chest_j" d="m44 25.1c10.4 6.6 36.9 23.6 36 24.8-1 1.1-28.4-1.7-31.1-4.3-3.5-3.2-9.5-23.4-4.9-20.5z"/><path fill-rule="evenodd" class="chest_m" d="m42.2 57.3c0 0 6.3 1.1 10.6 0.8 1.4-0.2-4.8-6.1-6.1-5.4-1 0.6-4.5 4.6-4.5 4.6z"/><path fill-rule="evenodd" class="chest_n" d="m126 68.1l-56.3-0.5c0 0-30.6-7.1-63.9-11l41.9 0.9c0 0 31.9 3.3 78.3 10.6z"/><path fill-rule="evenodd" class="chest_o" d="m112 124.5c-2.2-0.1-3.3-0.1-5.5-0.2-5.4-0.8-8.1-1.2-13.5-2.1-5.5-6.9-6.3-7.4-16.8-6.2q0 0 0 0c-7 1.3-14.6 4.1-20.8 7.6 0 0-12.7-0.7-13.1-0.6-10.9-1.8-21.5-5-32.6-6.1q0 0 0 0c-2.8-20.2-4.3-60.5-4.3-60.5 0 0 25.5 3 38.2 4.6 26.9 3.5 53.9 6.2 81 8.2-1.6 18.9-5.7 37.6-12.6 55.3z"/><path fill-rule="evenodd" class="chest_p" d="m43.4 62.4c-1.5 20.2-0.3 40.4-1.1 60.6-10.9-1.8-26.2-4.3-32.6-6.1q0 0 0 0c-4.4-19.8-6-40.3-4.3-60.5 12.7 1.9 25.3 3.7 38 6z"/><path fill-rule="evenodd" class="chest_q" d="m106.5 124.3c-5.4-0.8-8.1-1.2-13.5-2.1 0 0-6.3-7.4-16.8-6.2 6.7-2.5 16.1-3 22.9-0.7 7.8 2.8 7.4 9 7.4 9z"/><path fill-rule="evenodd" class="chest_d" d="m30.7 76.3c-7.7-1.1-9.2-1.4-16.8-2.6-0.4 10.6 2 30.5 2.5 30.5 5.9 1.3 12.3 1.1 12.3 1.1z"/><path fill-rule="evenodd" class="chest_d" d="m28.7 105.3c-1.8-0.2-3.7-0.6-5.5-1.1-1.9-10-3.8-19.5-3.7-29.7 4.1 0.7 7 1.2 11.2 1.8-1 10-2 29-2 29z"/><path fill-rule="evenodd" class="chest_d" d="m118.5 103.4c-25.2 2-50.6 6.7-75.8 6.3-2.4 0-7.9-3.4-7.9-3.4 28.5 2.6 56.3-0.8 84.5-5.2-0.3 0.9-0.5 1.3-0.8 2.3z"/><path fill-rule="evenodd" class="chest_d" d="m123.5 78.5c-26.3-1.4-54.7-3.4-80.9-6.6 26.2 3.7 54.2 6.8 80.4 10.5 0 0 0.3-2.1 0.5-3.9z"/><path fill-rule="evenodd" class="chest_d" d="m42.4 87.6c-5.3-0.4-7.3-0.6-12.6-1 0 0.7 0 1.1-0.1 1.8 5.3 0.4 7.4 0.6 12.7 1 15.5 0.8 30.8 2.1 46.1 4.5q-23.1-3.1-46.1-6.3z"/><path fill-rule="evenodd" class="chest_r" d="m37.8 108c0 0 2.8 1.4 4.9 1.7 2.9 0.5 11.8-0.1 11.8-0.1 0 0-9.9-1.4-16.7-1.6z"/><path fill-rule="evenodd" class="chest_e" d="m29.8 86.6c5.3 0.4 7.3 0.6 12.6 1 7.6 1 18.5 2.5 18.5 2.5 0.2 0.1-11.5-1.1-18.4-1.5-5.2-0.3-7.5-0.2-12.8-0.2 0.1-0.7 0.1-1.1 0.1-1.8z"/><path fill-rule="evenodd" class="chest_r" d="m43.4 62.4l15.9 0.7-26.7-3.3z"/><path fill-rule="evenodd" class="chest_d" d="m19.9 85.9l0.4 2.1-5.9-0.8-9.1-0.5-0.3-2.2c0 0 7.3 0.9 9.1 1.2 1.8 0.3 5.8 0.2 5.8 0.2z"/><path fill-rule="evenodd" class="chest_e" d="m23.2 104.2c-4.3-0.1-7 0.1-7 0.1 0 0 8.6 1.2 12.5 1z"/><path fill-rule="evenodd" class="chest_i" d="m13.8 74.8c2.8 17.6 15 13.4 16 10.9 1-2.5 0.9-9.4 0.9-9.4l-16.8-2.6z"/><path fill-rule="evenodd" class="chest_g" d="m12.1 83.4c-2 0.8-6.1 0-6.2-1.4-0.2-1.5-1.5-23.7 2-23.9 3.5-0.2 33.2 3.5 34.1 6.2 1 2.7 0.8 21.5-1 21.7-1.8 0.2-9.5-0.6-9.6-1.3 0-0.7 0.3-8.5-0.5-9.5-0.8-1.1-17.8-2.2-18.2-1.3-0.4 0.9 0.4 9-0.6 9.5z"/><path fill-rule="evenodd" class="chest_g" d="m7.3 89.3c-0.5 0.6-0.1 13 1.1 13.6 1.3 0.6 6.7 1.5 6.8 0.5 0-1-1.5-14-2-14.1-0.5 0-5-1.1-5.9 0z"/><path fill-rule="evenodd" class="chest_j" d="m9 105.7c-2.2 0.9 0.7 10 1.5 10.4 0.8 0.4 28.5 6.1 29.5 5.4 0.9-0.7 0.9-9.3 0.5-10-0.4-0.7-24.8-8.5-31.5-5.8z"/><path fill-rule="evenodd" class="chest_d" d="m34.8 106.3c0 0 7.1 1.8 14.8 2.3 7.7 0.5 50.7-4.3 57.8-5 7.1-0.8 11.4-2.5 11.4-2.5 0 0-39.5 6.3-62.6 6.2 0 0-8.2-0.2-13.5-0.4-5.3-0.2-7.9-0.6-7.9-0.6z"/><path fill-rule="evenodd" class="chest_d" d="m123.5 78.5c-13.3 2.2-59.7-4.3-59.7-4.3z"/><path fill-rule="evenodd" class="chest_g" d="m120.8 83.4c0.7 1.5-0.9 16.6-2.8 17-1.9 0.4-37.4 5.6-40.7 4.6-3.2-1 0.2-25.3 3.1-25.6 2.9-0.2 39.4 2 40.4 4z"/><path fill-rule="evenodd" class="chest_g" d="m45.1 73.6c-2.7 2.7-2.2 12.6-1.3 13.1 0.9 0.6 22.1 3.6 23 2.6 0.8-0.9-1.9-12.6-2.9-13.2-0.9-0.7-17.6-3.7-18.8-2.5z"/><path fill-rule="evenodd" class="chest_g" d="m43.8 105.1c1.1 1.7 28.6 1.5 29.1-0.4 0.6-1.9-4.2-11.5-5.7-12.2-1.6-0.8-23.4-2.4-23.6-1.6-0.3 0.7-0.5 13.2 0.2 14.2z"/><path fill-rule="evenodd" class="chest_g" d="m44 111.3c-1.4 1-1.3 10.7-0.6 11 0.8 0.3 11.1 0.4 12.1 0.1 0.9-0.4 3.2-11.5 2.3-11.8-0.9-0.3-12.4-0.3-13.8 0.7z"/><path fill-rule="evenodd" class="chest_g" d="m92.5 107c-1.4 0.5-1 4.6 0.5 5.4 1.1 0.6 10.3 3.9 11.6 4.3 1.2 0.4 10.5-4.4 11.3-5.4 0.7-1.1 1.9-6.7 0.9-6.9-1-0.3-22.5 2-24.3 2.6z"/><path fill-rule="evenodd" class="chest_s" d="m6.6 58.4c6.8 29.7 14.4 65.8 3.3 57.9-0.9-0.6-5-25.4-5.1-41.8-0.1-16.1 1.5-17.1 1.8-16.1z"/><path fill-rule="evenodd" class="chest_d" d="m7.3 104c3.1-0.3 14.1 0.9 14.1 0.9 0 0-7.5 0-10.3-0.4-2.9-0.4-3.8-0.5-3.8-0.5z"/><path fill-rule="evenodd" class="chest_m" d="m124.6 69.2c-3.7 2.4-16.9-1.1-13.3-1.1 3.6 0 13.3 1.1 13.3 1.1z"/><path fill-rule="evenodd" class="chest_d" d="m93.6 121.6c5.1 0.6 11.4 1.4 11.6 0.1 0.2-1.3-4.1-6.1-10.1-6.5-6.1-0.5-3.8 6.2-1.5 6.4z"/><path fill-rule="evenodd" class="chest_t" d="m64.8 56.9c0 0 21.8 8.1 38.3 5.2 0 0-28.1-7.7-28.6-7.7-0.6 0-9.7 2.5-9.7 2.5z"/><path fill-rule="evenodd" class="chest_u" d="m84.4 61.7l0.2-1.6h-3.8l-0.2 0.8z"/><path fill-rule="evenodd" class="chest_v" d="m102 90.3c3.7-5.8 10.6-24.2 8.6-26.2-2.6-0.8-8-0.8-8-0.8 0 0-5.4 2-11.5 0.5-6.1-1.5-14.6-5.6-14.6-5.6-2.4 0-10.3 0.4-12.7 0.5 0.4 11.8 2.5 20.2 5.6 30.7 0 0 3.3 13.1 6.4 14.1 3 1.1 11.4 0.9 11.4 0.9 6.6-2.7 12-9.4 14.8-14.1z"/><path fill-rule="evenodd" class="chest_w" d="m90.3 64.4c-4-2-12.3-5.8-12.9-5.3-0.5 0.6-0.9 15.6 2.1 26.2 3.1 10.7 6.7 18 7.8 17.9 1.1-0.1 5-37.9 3-38.8z"/><path fill-rule="evenodd" class="chest_x" d="m110.6 64.1c-2.6-0.8-8-0.8-8-0.8 0 0-5.4 2-11.5 0.5 5.5 2 13.9 1.4 19.5 0.3z"/><path fill-rule="evenodd" class="chest_y" d="m94.9 62l-0.7 2.6c0 0-4-0.5-9.8-2.9l0.2-1.6c0 0 5.3 2.3 10.3 1.9z"/><path fill-rule="evenodd" class="chest_z" d="m79.6 89.6c-3.3-11.1-2.4-21.4-3.1-31.4-2.4 0-10.3 0.4-12.7 0.5 0 0-0.2 13.4 5 30.7 0 0 3.9 13.1 7 14.1 3 1.1 11 1.1 11.4 0.9-4.3-4.1-6.9-11.8-7.6-14.8z"/><path fill-rule="evenodd" class="chest_A" d="m106.3 39.6c0 0-18-3.4-30.6-2.5l-11 8 0.1 11.8 9.5-0.7c0 0 24.5 8.5 32 5.2z"/><path fill-rule="evenodd" class="chest_w" d="m94 39.5c0 0-2.4 20.3-1.8 20.9 0.7 0.5 10.9 2.4 13.3-0.2 0.8-0.9 0.9-19.7-0.2-20.2-1-0.5-10.9-2-11.3-0.5z"/><path fill-rule="evenodd" class="chest_B" d="m75.7 37.1l-1.4 19.1-9.5 0.7-0.1-11.8z"/><path fill-rule="evenodd" class="chest_d" d="m87.2 104.4c-4.4-4.4-8-14.6-8.9-20.2-1.7-11.1-1.6-22.3-1.8-26-1.4 0-5.3 0.2-8.4 0.3l1.2-0.1-4.5-1.5 9.5-0.7 1.4-19.1c0 0-6.9 5-11 8-4.2 3-5.4 14.5-5.4 14.5l3.8 0.4-6.8 2.7c0.2 1.2 9.9 66.3 34.1 40z"/><path fill-rule="evenodd" class="chest_d" d="m78.2 85.5c-1.2-5.2-9.3 1.4-8.8 3.9 0.5 2.5 3.3 11.2 5.5 13.3 2 2 12.3 1.7 12.3 1.7 0 0-3-2.9-5.2-7.6-2.3-4.9-3.8-11.3-3.8-11.3z"/><path fill-rule="evenodd" class="chest_C" d="m76.1 37.7c-0.4 0.3-0.9 17.4-0.6 17.8 0.3 0.4 13.3 5.6 15.4 4.8 1.1-0.4 2.9-20.3 2.4-21.4-0.5-1.1-16.2-2-17.2-1.2z"/><path fill-rule="evenodd" class="chest_d" d="m74.7 38.6c0.4 2.4 0 16.7-1.4 16.8-1.5 0.1-7.2 0.9-7.4 0-0.2-1-1-9.5-0.3-10.2 0.7-0.7 8.9-7.8 9.1-6.6z"/><path fill-rule="evenodd" class="chest_D" d="m76.6 62.4c0 0 15.8 22.8 28.4 22l-3.3 6.1c0 0-16.4-17-23.8-10.1z"/><path fill-rule="evenodd" class="chest_E" d="m94.5 68.5c0 0.7-1.6 1.6-1.6 1.6 0 0-2.2 12.9-2.3 13.5-0.1 0.6-0.7 0.7-0.6-0.6 0-1.1 0.7-9.3 0.9-12.2 0.1-0.6 0.1-1 0.1-1 0 0-1.5-1.6-1.1-2.6q0.1-0.1 0.1-0.2c0.9-1.1 4.5-1.5 4.5 1.5z"/><path fill-rule="evenodd" class="chest_i" d="m92.4 69.4c0 0.6-1 1.2-1.5 1.4 0.1-0.6 0.1-1 0.1-1 0 0-1.5-1.6-1.1-2.6q0.1-0.1 0.1-0.2c1.2 0 2.4 0.6 2.4 2.4z"/><path fill-rule="evenodd" class="chest_F" d="m78.3 58.9c6.8 15.8 10.4 4.6 10.4 4.6 0 0-3-1.2-5.6-2.3-3-1.3-4.8-2.3-4.8-2.3z"/><path fill-rule="evenodd" class="chest_F" d="m95.3 38.1c4.6 13.2 9.2 1.2 9.2 1.2z"/></svg>