<svg version="1.2" xmlns="http://www.w3.org/2000/svg" viewBox="0 0 128 128" width="128" height="128"><defs><linearGradient id="coin_P" gradientUnits="userSpaceOnUse"/><linearGradient id="coin_g1" x2="1" href="#coin_P" gradientTransform="matrix(2.026,33.771,19.38,-1.163,39.384,88.324)"><stop stop-color="#f1a524"/><stop offset="1" stop-color="#d75f26"/></linearGradient><linearGradient id="coin_g2" x2="1" href="#coin_P" gradientTransform="matrix(-49.146,47.851,80.001,82.165,86.525,27.836)"><stop stop-color="#e0344b"/><stop offset="1" stop-color="#fff"/></linearGradient><linearGradient id="coin_g3" x2="1" href="#coin_P" gradientTransform="matrix(-99.773,-13.384,-15.28,113.912,79.514,82.147)"><stop stop-color="#e0344b"/><stop offset="1" stop-color="#fff"/></linearGradient><linearGradient id="coin_g4" x2="1" href="#coin_P" gradientTransform="matrix(126.895,-12.798,-9.098,-90.21,10.193,114.082)"><stop stop-color="#ffc21f"/><stop offset=".65" stop-color="#fa8c1d"/><stop offset=".99" stop-color="#fe816a"/></linearGradient><linearGradient id="coin_g5" x2="1" href="#coin_P" gradientTransform="matrix(74.065,-9.861,-5.62,-42.212,17.883,93.677)"><stop stop-color="#e0344b"/><stop offset="1" stop-color="#fff"/></linearGradient><linearGradient id="coin_g6" x2="1" href="#coin_P" gradientTransform="matrix(26.891,39.77,22.191,-15.004,21.219,44.993)"><stop stop-color="#ffb230"/><stop offset="1" stop-color="#f07134"/></linearGradient><linearGradient id="coin_g7" x2="1" href="#coin_P" gradientTransform="matrix(28.625,42.334,18.357,-12.412,10.621,53.136)"><stop stop-color="#ffc21a"/><stop offset="1"/></linearGradient><linearGradient id="coin_g8" x2="1" href="#coin_P" gradientTransform="matrix(19.861,1.833,1.674,-18.14,59.325,73.936)"><stop stop-color="#fff"/><stop offset=".98" stop-color="#aa0038"/></linearGradient><linearGradient id="coin_g9" x2="1" href="#coin_P" gradientTransform="matrix(-90.254,28.404,22.382,71.118,100.374,-15.678)"><stop stop-color="#f1a524"/><stop offset="1" stop-color="#d75f26"/></linearGradient><linearGradient id="coin_g10" x2="1" href="#coin_P" gradientTransform="matrix(46.56,-2.793,-1.484,-24.739,69.602,83.462)"><stop stop-color="#fff"/><stop offset="1" stop-color="#e0344b"/></linearGradient><linearGradient id="coin_g11" x2="1" href="#coin_P" gradientTransform="matrix(-51.52,-78.494,-158.859,104.268,113.117,40.351)"><stop stop-color="#e0344b"/><stop offset="1" stop-color="#fff"/></linearGradient><linearGradient id="coin_g12" x2="1" href="#coin_P" gradientTransform="matrix(103.101,75.076,53.371,-73.294,16.341,33.304)"><stop stop-color="#ffc21f"/><stop offset=".65" stop-color="#fa8c1d"/><stop offset=".99" stop-color="#fe816a"/></linearGradient><linearGradient id="coin_g13" x2="1" href="#coin_P" gradientTransform="matrix(-86.136,-44.588,-25.412,49.092,115.688,28.308)"><stop stop-color="#e0344b"/><stop offset="1" stop-color="#fff"/></linearGradient><linearGradient id="coin_g14" x2="1" href="#coin_P" gradientTransform="matrix(-6.479,47.569,26.542,3.615,67.774,10.113)"><stop stop-color="#ffb230"/><stop offset="1" stop-color="#f07134"/></linearGradient><linearGradient id="coin_g15" x2="1" href="#coin_P" gradientTransform="matrix(-6.896,50.636,21.957,2.99,57.299,-11.83)"><stop stop-color="#ffc21a"/><stop offset="1"/></linearGradient><linearGradient id="coin_g16" x2="1" href="#coin_P" gradientTransform="matrix(-17.363,1.042,.943,15.71,59.766,34.244)"><stop stop-color="#be4c18"/><stop offset="1" stop-color="#ba401c"/></linearGradient><linearGradient id="coin_g17" x2="1" href="#coin_P" gradientTransform="matrix(-21.037,1.262,1.153,19.214,106.365,24.922)"><stop offset=".02" stop-color="#aa0038"/><stop offset="1" stop-color="#fff"/></linearGradient></defs><style>.coin_a{fill:#b1cffc}.coin_b{fill:url(#coin_g1)}.coin_c{opacity:.8;mix-blend-mode:multiply;fill:url(#coin_g2)}.coin_d{opacity:.8;mix-blend-mode:multiply;fill:url(#coin_g3)}.coin_e{opacity:.5;mix-blend-mode:multiply;fill:#ff8d81}.coin_f{fill:url(#coin_g4)}.coin_g{opacity:.8;mix-blend-mode:multiply;fill:url(#coin_g5)}.coin_h{fill:url(#coin_g6)}.coin_i{mix-blend-mode:screen;fill:url(#coin_g7)}.coin_j{opacity:.3;mix-blend-mode:soft-light;fill:#fffebd}.coin_k{fill:#fff266}.coin_l{opacity:.3;mix-blend-mode:multiply;fill:#cd72a4}.coin_m{opacity:.5;mix-blend-mode:multiply;fill:#cd72a4}.coin_n{opacity:.8;mix-blend-mode:multiply;fill:url(#coin_g8)}.coin_o{mix-blend-mode:multiply;fill:#ab6377}.coin_p{fill:url(#coin_g9)}.coin_q{opacity:.8;mix-blend-mode:multiply;fill:url(#coin_g10)}.coin_r{opacity:.8;mix-blend-mode:multiply;fill:url(#coin_g11)}.coin_s{fill:url(#coin_g12)}.coin_t{opacity:.8;mix-blend-mode:multiply;fill:url(#coin_g13)}.coin_u{fill:url(#coin_g14)}.coin_v{mix-blend-mode:screen;fill:url(#coin_g15)}.coin_w{fill:url(#coin_g16)}.coin_x{fill:#f7891e}.coin_y{opacity:.3;mix-blend-mode:multiply;fill:#b62781}.coin_z{opacity:.8;mix-blend-mode:multiply;fill:url(#coin_g17)}</style><path fill-rule="evenodd" class="coin_a" d="m29.8 12.5c0 0-13.1 20.2-13.1 23.9 0 3.6 8.4 16.1 8.2 18.7-0.1 2.7-20.9 17.6-22.3 23.4-1.4 5.8 5 35.1 6.7 37.5 1.7 2.5 16.9 11.5 36.8 11.3 20-0.3 39.7-13 49.3-23.7 9.5-10.7-65.6-91.1-65.6-91.1z"/><path fill-rule="evenodd" class="coin_b" d="m12.6 112.4c0 0 5.5 4.7 15.5 7.7q0 0 0 0c9.3 2.8 22.6 4.3 38.9-0.7q3.8-1.2 7.2-2.5 3.6-1.5 6.8-3.2c11.8-6.1 19.1-13.9 23.3-19.9 3.9-5.4 5.3-9.4 5.3-9.4l-5.1-26-94.3 21.5-6.8 1.6z"/><path fill-rule="evenodd" class="coin_c" d="m90.8 107.9c3.8-2.8 8.2-6.3 13.5-14.1 3.9-5.4 5.3-9.4 5.3-9.4l-5.1-26c0 0-23.7 26.5-24 32.9-0.4 6.5 2.5 22.3 10.3 16.6z"/><path fill-rule="evenodd" class="coin_d" d="m12.6 112.4c0 0 5.5 4.7 15.5 7.7q0 0 0 0c7.2 0.9 13.4 1.4 14.3 0.9 2.6-1.4-1-16.3-2.1-19.1-1.1-2.7-9.4-10.9-30.1-22l-6.8 1.6z"/><path fill-rule="evenodd" class="coin_e" d="m67 119.4c5.9-1.4 11.9-4.6 14-5.7-6.7-10.7-3.6-22.8-4.5-34 0 0-25.3 4.3-23 5.2 7.5 2.9 13.3 8.7 13.5 34.5z"/><path fill-rule="evenodd" class="coin_f" d="m104.5 58.4c0 0-7.5-19.7-47.6-12.7-41.8 7.3-53.5 35.8-53.5 35.8 0 0 16.7 26.9 56.4 14.5 39.7-12.3 44.7-37.6 44.7-37.6z"/><path fill-rule="evenodd" class="coin_g" d="m23.3 78.4c-0.5 0.7 0.2 2 1.2 2.5 22.5 9.1 44.6-4.4 53.3-11.9 4.5-3.8 6.9-8.3 6-9-2.8-2.4-37.4-8.5-60.5 18.4z"/><path fill-rule="evenodd" class="coin_h" d="m26.2 81.5c23.3 8.3 45.3-5.2 53-15.6-17-1.6-35.9 5.8-53 15.6z"/><path fill-rule="evenodd" class="coin_i" d="m31.7 54c9.9 8.2-7.3 23.1-22 17.6 0 0 3.4-4.5 9.9-9.8 5.5-4.5 12.1-7.8 12.1-7.8z"/><path fill-rule="evenodd" class="coin_j" d="m102.7 63.3c0 0-9.1-3.3-27 9.7-17.9 13-9.6 20.9-9.6 20.9 0 0 18.2-4 27.4-17.3 9.2-13.3 9.2-13.3 9.2-13.3z"/><path fill-rule="evenodd" class="coin_k" d="m77.8 69c1.3 7.4-7.2 9.4-9.5 6.6 0 0 0.3 0.1 4.3-2.7 4-2.9 5.2-3.9 5.2-3.9z"/><path fill-rule="evenodd" class="coin_k" d="m97.8 70.4c-4.8 10.5-12 12.6-12 12.6 0 0-6.6-2.6 0.5-10 7.1-7.5 11.5-2.6 11.5-2.6z"/><path fill-rule="evenodd" class="coin_l" d="m36.5 91.6c0.8 3-14.2 4.9-14.6-0.7-0.4-5.7 12.9-6 14.6 0.7z"/><path fill-rule="evenodd" class="coin_m" d="m21.9 90.9q0 0.2 0.1 0.4c0.5-5 12.4-5.1 14.5 0.9q0.1-0.3 0-0.6c-1.7-6.7-15-6.4-14.6-0.7z"/><path fill-rule="evenodd" class="coin_n" d="m61.9 58.1c-3.2 0.8-2.6 9-0.3 9 9.4-0.2 15.4 1.2 15.4 1.2l-3.7 4.2c0 0 10.8-7.6 10.5-12.5-0.1-1.9-17.8-3-21.9-1.9z"/><path fill-rule="evenodd" class="coin_o" d="m24.8 57.8c-12.6 14.5 28.1 33 53.6 31.4 0 0 15.1 9.9 23.2 2.6 8-7.4 5.8-18.5 5.8-18.5l-7.9-15.7c0 0-40.1-8.7-57.4-4.2-17.3 4.4-17.3 4.4-17.3 4.4z"/><path fill-rule="evenodd" class="coin_p" d="m19.3 33.7c0 0 1 7.1 6.4 16q0 0 0 0.1c5 8.3 13.9 18.2 29.5 25.4q3.5 1.6 6.9 2.8 3.8 1.4 7.3 2.3c12.8 3.2 23.4 2.3 30.6 0.7 6.6-1.5 10.3-3.5 10.3-3.5l13.4-22.8-84.6-46.8-6.1-3.4z"/><path fill-rule="evenodd" class="coin_q" d="m81.7 81.6c4.8 0.5 9.5 1.3 18.3-0.6 6.6-1.5 10.3-3.5 10.3-3.5l13.4-22.8c0 0-35.2 3.9-39.8 8.5-4.6 4.6-11.7 17.5-2.2 18.4z"/><path fill-rule="evenodd" class="coin_r" d="m19.3 33.7c0 0 1 7.1 6.4 16q0 0 0 0.1c4.8 5.4 9 9.9 10 10.2 2.9 0.6 10.2-12.9 11.2-15.7 0.9-2.8 0.3-14.4-7.8-36.4l-6.1-3.4z"/><path fill-rule="evenodd" class="coin_e" d="m55.2 75.2c9.2 3.9 11.8 4.5 14.2 5.1 2.1-12.5 12.5-19.4 19.3-28.5 0 0-21.8-13.6-20.6-11.4 3.6 7.2 4.1 15.4-12.9 34.8z"/><path fill-rule="evenodd" class="coin_s" d="m123.7 54.7c0 0 7.6-19.7-27-41.2-36-22.4-63.7-9-63.7-9 0 0-5.4 31.2 32.4 48.5 37.8 17.2 58.3 1.7 58.3 1.7z"/><path fill-rule="evenodd" class="coin_t" d="m49.9 15.5c-0.9 0.1-1.2 1.6-0.7 2.6 10.6 21.8 36.2 26.5 47.5 26.7 6 0.1 10.8-1.5 10.6-2.7-0.5-3.7-22.2-31.3-57.4-26.6z"/><path fill-rule="evenodd" class="coin_u" d="m50 19.7c11.8 21.7 37.2 26.3 49.9 23.7-11.6-12.5-30.6-19.6-49.9-23.7z"/><path fill-rule="evenodd" class="coin_v" d="m72.4 2.8c1.9 12.8-20.8 12.4-28.1-1.5 0 0 5.5-1.1 14-0.7 7 0.3 14.1 2.2 14.1 2.2z"/><path fill-rule="evenodd" class="coin_j" d="m119.2 57.2c0 0-4.7-8.5-26.6-10.8-22-2.3-21.2 9.1-21.2 9.1 0 0 14.2 7.9 32 5.5 16-2.2 15.8-3.8 15.8-3.8z"/><path fill-rule="evenodd" class="coin_k" d="m96.7 44.8c-3.9 6.4-11.6 2.2-11.4-1.4 0 0 0.1 0.2 5 0.8 4.9 0.5 6.4 0.6 6.4 0.6z"/><path fill-rule="evenodd" class="coin_k" d="m110.8 59.2c-10.7 4.6-17.4 1.3-17.4 1.3 0 0-3.2-6.3 7.1-7.1 10.3-0.8 10.3 5.8 10.3 5.8z"/><path fill-rule="evenodd" class="coin_w" d="m42.9 36.4c15.7-7.2 19.8 13.8 16.7 13.6-14.2-0.8-18.5-12.8-16.7-13.6z"/><path fill-rule="evenodd" class="coin_x" d="m43.5 38.7c5.7-3.4 18.1 10.5 16.1 11.3-2 0.9-8.8-1.4-11.9-4.3-4.1-4-4.2-7-4.2-7z"/><path fill-rule="evenodd" class="coin_y" d="m57.6 40.8c-3 2.1-8.8-3-9.9-4.3-1-1.3 3.2-2.7 6.1-0.4 2.9 2.4 5.1 3.8 3.8 4.7z"/><path fill-rule="evenodd" class="coin_l" d="m115.8 34c-2.6 11-23.3-11.9-15.1-11.8 8.2 0.1 16.1 7.1 15.1 11.8z"/><path fill-rule="evenodd" class="coin_m" d="m114.8 29.9c0 0-8.3-9.1-15.8-4.9 0 0-1.5-2.6 1.7-2.8 8.6-0.6 14.1 7.7 14.1 7.7z"/><path fill-rule="evenodd" class="coin_z" d="m92.2 26c-2.9-1.4-7.9 5.1-6.2 6.6 7.1 6.1 10.7 11.2 10.7 11.2l-5.7 0.6c0 0 13.2 1.5 16.3-2.3 1.2-1.5-11.3-14.1-15.1-16.1z"/></svg>