<svg version="1.2" xmlns="http://www.w3.org/2000/svg" viewBox="0 0 128 128" width="128" height="128"><defs><linearGradient id="gem_P" gradientUnits="userSpaceOnUse"/><linearGradient id="gem_g1" x2="1" href="#gem_P" gradientTransform="matrix(-58.473,-262.241,455.923,-101.659,-13.153,179.139)"><stop stop-color="#0ee0ff"/><stop offset=".56" stop-color="#76ff20"/><stop offset="1" stop-color="#1df418"/></linearGradient><linearGradient id="gem_g2" x2="1" href="#gem_P" gradientTransform="matrix(149.928,218.18,-670.797,460.957,118.081,-68.241)"><stop stop-color="#0ee0ff"/><stop offset=".56" stop-color="#76ff20"/><stop offset="1" stop-color="#1df418"/></linearGradient><linearGradient id="gem_g3" x2="1" href="#gem_P" gradientTransform="matrix(-58.476,-132.151,356.996,-157.968,70.867,195.834)"><stop offset=".02" stop-color="#36ff3a"/><stop offset="1"/></linearGradient><linearGradient id="gem_g4" x2="1" href="#gem_P" gradientTransform="matrix(-30.593,-55.097,54.648,-30.344,42.774,133.729)"><stop stop-color="#93ff9b"/><stop offset=".99"/></linearGradient><linearGradient id="gem_g5" x2="1" href="#gem_P" gradientTransform="matrix(99.188,-49.162,108.202,218.303,-22.148,11.018)"><stop stop-color="#f4d13f"/><stop offset=".99"/></linearGradient><linearGradient id="gem_g6" x2="1" href="#gem_P" gradientTransform="matrix(-33.976,-66.427,81.147,-41.505,50.217,127.96)"><stop stop-color="#93ff9b"/><stop offset=".99"/></linearGradient><radialGradient id="gem_g7" cx="0" cy="0" r="1" href="#gem_P" gradientTransform="matrix(16.486,3.231,-3.51,17.91,68.929,61.839)"><stop stop-color="#84ac08"/><stop offset=".99"/></radialGradient><radialGradient id="gem_g8" cx="0" cy="0" r="1" href="#gem_P" gradientTransform="matrix(16.686,3.27,-8.311,42.405,62.123,73.489)"><stop stop-color="#84ac08"/><stop offset=".99"/></radialGradient></defs><style>.gem_a{fill:url(#gem_g1)}.gem_b{opacity:.7;mix-blend-mode:multiply;fill:#06890b}.gem_c{fill:#fff}.gem_d{fill:url(#gem_g2)}.gem_e{mix-blend-mode:screen;fill:url(#gem_g3)}.gem_f{opacity:.5;mix-blend-mode:multiply;fill:#079633}.gem_g{mix-blend-mode:screen;fill:#0cff89}.gem_h{opacity:.9;mix-blend-mode:screen;fill:#5dffea}.gem_i{mix-blend-mode:color-dodge;fill:url(#gem_g4)}.gem_j{mix-blend-mode:screen;fill:#9da6ff}.gem_k{mix-blend-mode:color-dodge;fill:url(#gem_g5)}.gem_l{mix-blend-mode:color-dodge;fill:url(#gem_g6)}.gem_m{mix-blend-mode:color-dodge;fill:url(#gem_g7)}.gem_n{mix-blend-mode:color-dodge;fill:url(#gem_g8)}</style><path fill-rule="evenodd" class="gem_a" d="m99 55.4l-32.2 58.6-0.9-0.1-18.7-0.2-16.4-5.7h-0.3l15-88.5 34.5-3.2 5.2-0.4 4.4 12.8z"/><path fill-rule="evenodd" class="gem_b" d="m99 55.4l-32.2 58.6-0.9-0.1-18.7-0.2-16.4-5.7h-0.3l15-88.5 22.3 41.7 9.9 6.4 6.3-3.6z"/><path fill-rule="evenodd" class="gem_c" d="m89.6 28.7l-9.6-12.4 5.2-0.4z"/><path fill-rule="evenodd" class="gem_b" d="m99 55.4l-32.2 58.6-0.9-0.1 11.8-46.3 6.3-3.6z"/><path fill-rule="evenodd" class="gem_d" d="m67.8 61.3c0 0-15.9 40.5-20.6 52.4l-16.4-5.7 14.7-88.5 22.3 41.7z"/><path fill-rule="evenodd" class="gem_e" d="m90.5 62.4c-15.7 9.6-19.2 34.3-19 37.6 0.1 3.3 21.5-32.8 21.6-34.5 0.1-1.7-2.6-3.1-2.6-3.1z"/><path fill-rule="evenodd" class="gem_f" d="m45.9 30c16.4-20.1 35.6 4 40 11.6 4.1 7 2.8 18.9-14.8 37.2-18.5 19.4-18.5 29.9-20.6 31.5-2.2 1.5-13.4-6.7-12.7-25.3 0.8-21.2 8.1-55 8.1-55z"/><path fill-rule="evenodd" class="gem_c" d="m84.2 64l-18.3-7.4 1.9 4.7 9.9 6.3z"/><path fill-rule="evenodd" class="gem_g" d="m58.5 20.6c-11.7 3.1-13.7 22-11.4 24 2.1 2 13.4-10.4 12.4-15.7-1-5.6-1-8.3-1-8.3z"/><path fill-rule="evenodd" class="gem_g" d="m87.1 36.9c-0.2 5.2 2.7 7.7 2.2 5.1-0.6-2.7-2.2-5.1-2.2-5.1z"/><path fill-rule="evenodd" class="gem_g" d="m74.7 85.1c-3.3 6.1-4.1 12.9-1.3 10.2 2.9-2.7 1.3-10.2 1.3-10.2z"/><path fill-rule="evenodd" class="gem_g" d="m67.6 87.1c-0.6 2.8 0.4 3.9 1 2.1 0.5-1.8-1-2.1-1-2.1z"/><path fill-rule="evenodd" class="gem_f" d="m47.5 109.1c7.7-12-2.5-25.3-4.1-26.3-1.7-1-6.2 13.4-1.4 19.8 4.4 5.8 5.5 6.5 5.5 6.5z"/><path fill-rule="evenodd" class="gem_h" d="m45.5 19.5l22.3 41.8 9.9 6.3 21.3-12.2-13.8-39.5z"/><path fill-rule="evenodd" class="gem_i" d="m37.7 68c-5 30.6 7.5 41.1 9.3 41.4 1.7 0.3 9.1-17.2 9.1-17.2 0 0-5.8 13.6 1.9 17 6.8 3 8.6-3 8.7-3.4 0.1-0.3 9.4-8.6 9.4-8.6l-9.3 16.8-19.6-0.3-16.4-5.7z"/><path fill-rule="evenodd" class="gem_f" d="m96.4 48c1.7 8.3-2.8 10.1-2.8 10.1 0 0 5.5-2.1 5.4-2.7-0.1-0.7-2.6-7.4-2.6-7.4z"/><path fill-rule="evenodd" class="gem_j" d="m36.1 85.8c0 16.6 13 24.7 7.4 24.8-5.9 0.2-10.9-2.6-11.6-4.3-0.7-1.7 4.2-20.5 4.2-20.5z"/><path fill-rule="evenodd" class="gem_k" d="m57.5 41.3c7.7 26.2 14.3 49.7 16 54.5 1.6 4.5-4.9 14.8-4.9 14.8 0 0 6.5-13.2 9.4-17.9 3-4.8-9.1-32.8-12.9-39.7-4.2-7.6 24.5-11.4 23.7-0.6-0.7 10 10.2 5.2 5.9-8.9-5-16.7-28.2-25.8-24.3-16.9 3.6 8-12.9 14.7-12.9 14.7z"/><path fill-rule="evenodd" class="gem_l" d="m65.9 113.9l5-19.9c0 0-4.4 15.3-6.4 14.6-2-0.8 1.3-12.3-3.7-14.7-5.4-2.6-13.6 19.8-13.6 19.8z"/><path fill-rule="evenodd" class="gem_j" d="m48.8 112.6c5.4-2.2 4.5-11.2 3.2-10.1-1.3 1.1-4.3 10.2-4.3 10.2z"/><path fill-rule="evenodd" class="gem_j" d="m52.6 18.4c-4.1 2.8-3.1 9.3-3.1 9.3l-4-8.2z"/><path fill-rule="evenodd" class="gem_m" d="m83.7 70.1c-3.3 7.9-12 11.7-20.1 8.4-8.8-3.5-13.8-14.1-10.4-23.5 3.5-9.6 14.1-13.1 22.7-7.9 8 4.7 11.2 14.9 7.8 23z"/><path fill-rule="evenodd" class="gem_n" d="m76.7 82.5c-7.3 17.7-19.3 30.1-27.7 28.2-9.1-2-11.3-20-3.7-41 8.1-22.3 22.7-36.3 31.5-30.7 8 5.1 7.5 24.8-0.1 43.5z"/></svg>