<svg version="1.2" xmlns="http://www.w3.org/2000/svg" viewBox="0 0 128 128" width="128" height="128"><defs><linearGradient id="map_P" gradientUnits="userSpaceOnUse"/><linearGradient id="map_g1" x2="1" href="#map_P" gradientTransform="matrix(122.62,11.45,-11.003,117.828,8.295,2.457)"><stop stop-color="#ef9792"/><stop offset="1" stop-color="#ffe3ce"/></linearGradient><linearGradient id="map_g2" x2="1" href="#map_P" gradientTransform="matrix(-7.667,67.494,-61.211,-6.953,101.402,21.112)"><stop stop-color="#eb7463"/><stop offset="1" stop-color="#d13145"/></linearGradient><linearGradient id="map_g3" x2="1" href="#map_P" gradientTransform="matrix(-7.475,65.803,-62.338,-7.081,101.427,22.648)"><stop stop-color="#eb7463"/><stop offset="1" stop-color="#d13145"/></linearGradient><linearGradient id="map_g4" x2="1" href="#map_P" gradientTransform="matrix(-7.52,66.197,-75.764,-8.606,103.183,22.773)"><stop stop-color="#eb7463"/><stop offset="1" stop-color="#d13145"/></linearGradient><linearGradient id="map_g5" x2="1" href="#map_P" gradientTransform="matrix(-7.594,66.851,-74.74,-8.49,103.388,22.71)"><stop stop-color="#eb7463"/><stop offset="1" stop-color="#d13145"/></linearGradient><linearGradient id="map_g6" x2="1" href="#map_P" gradientTransform="matrix(-7.806,68.719,-43.915,-4.988,86.942,20.437)"><stop stop-color="#eb7463"/><stop offset="1" stop-color="#d13145"/></linearGradient><linearGradient id="map_g7" x2="1" href="#map_P" gradientTransform="matrix(-7.686,67.663,-53.261,-6.05,72.143,19.277)"><stop stop-color="#eb7463"/><stop offset="1" stop-color="#d13145"/></linearGradient><linearGradient id="map_g8" x2="1" href="#map_P" gradientTransform="matrix(-7.546,66.434,-40.935,-4.65,58.319,18.171)"><stop stop-color="#eb7463"/><stop offset="1" stop-color="#d13145"/></linearGradient><linearGradient id="map_g9" x2="1" href="#map_P" gradientTransform="matrix(-1.5,105.426,-226.752,-3.225,99.546,1.868)"><stop stop-color="#b84853"/><stop offset="1" stop-color="#c65273"/></linearGradient><linearGradient id="map_g10" x2="1" href="#map_P" gradientTransform="matrix(-1.484,104.313,-147.959,-2.105,81.41,5.678)"><stop stop-color="#b84853"/><stop offset="1" stop-color="#c65273"/></linearGradient><linearGradient id="map_g11" x2="1" href="#map_P" gradientTransform="matrix(-25.14,34.774,-12.238,-8.847,71.406,36.583)"><stop stop-color="#9d4643"/><stop offset="1" stop-color="#ab234d"/></linearGradient><linearGradient id="map_g12" x2="1" href="#map_P" gradientTransform="matrix(22.386,2.09,-0.717,7.678,39.415,61.029)"><stop stop-color="#e39c7c"/><stop offset="1" stop-color="#f0b896"/></linearGradient><linearGradient id="map_g13" x2="1" href="#map_P" gradientTransform="matrix(4.03,.376,-0.625,6.692,117.413,76.665)"><stop stop-color="#9d4643"/><stop offset="1" stop-color="#ab234d"/></linearGradient></defs><style>.map_a{fill:#b1cffc}.map_b{fill:#812a52}.map_c{mix-blend-mode:multiply;fill:#dec3cb}.map_d{fill:url(#map_g1)}.map_e{fill:url(#map_g2)}.map_f{fill:url(#map_g3)}.map_g{fill:url(#map_g4)}.map_h{fill:url(#map_g5)}.map_i{fill:url(#map_g6)}.map_j{fill:url(#map_g7)}.map_k{fill:url(#map_g8)}.map_l{fill:url(#map_g9)}.map_m{fill:url(#map_g10)}.map_n{opacity:.3;mix-blend-mode:multiply;fill:#d87989}.map_o{fill:#ffcca3}.map_p{fill:#ab2781}.map_q{opacity:.3;mix-blend-mode:multiply;fill:#ab2781}.map_r{opacity:.6;mix-blend-mode:screen;fill:#ffb64a}.map_s{opacity:.5;mix-blend-mode:multiply;fill:#ab2781}.map_t{fill:url(#map_g11)}.map_u{fill:url(#map_g12)}.map_v{fill:url(#map_g13)}.map_w{opacity:.4;mix-blend-mode:multiply;fill:#ffa28e}.map_x{opacity:.2;mix-blend-mode:multiply;fill:#ab2781}.map_y{opacity:.5;mix-blend-mode:multiply;fill:#ab6377}.map_z{opacity:.3;mix-blend-mode:multiply;fill:#cd72a4}</style><path fill-rule="evenodd" class="map_a" d="m4.7 16.9c-3.1 34.2 4.7 65.8 6.3 67.1 1.7 1.2 18.5-5.2 19.5-3.2 1.1 1.9-14.3 21.6-14.8 24.8-0.4 3.2 3.8 12 7.3 12.9 3.4 0.9 15.8-6.8 40.3-9.4 24.5-2.6 38.3-1.8 38.3-1.8l-85.1-94.9z"/><path fill-rule="evenodd" class="map_b" d="m103.9 83.3c0 0-38-3.8-91.6 0 0 0 11.2-49.4 22.5-49.5 11.4-0.1 69.1 49.5 69.1 49.5z"/><path fill-rule="evenodd" class="map_c" d="m35.6 38.7c-4 5.7-13.5 30-11.6 34.9 1.9 5 65.9 2.6 74.8-4.5 9-7 11.7-27 4.9-30.8-6.8-3.8-64-5.5-68.1 0.4z"/><path fill-rule="evenodd" class="map_d" d="m125.8 68.9c0 0-8.4 9.1-8.6 11.5-0.2 2.3 0.7 2.3 3.6 3.3 0.5 0.2 1.1 2.5-1.7 10.3-3.6 7.4-8.6 14-15.4 18.9 0 0-3.8-1-26.7-0.9-37.3 0.2-56 10.5-56 10.5 0 0 12.7-24.3 20-52.6 0.4-1.5 16.5-5 16.8-6.6 1.2-5.1-13.7-7.6-13.3-11.3 1.8-16.8-3.3-19.9-6.9-20-9-0.1-20.9 50.6-25.4 43.2-11.6-19.2-4.1-67.3-4.1-67.3 40.1-6.8 90.8 5.9 90.8 5.9 0 0 0.1 9.7 2.2 10.3 4.2 1.2 18.4 3.5 19.9 5.6 3.9 5.7 6.7 21.9 4.8 39.2z"/><path fill-rule="evenodd" class="map_e" d="m82.7 72.8c-1.8 0-3.4 1.8-3.3 2.7 0.2 0.8 2.2 11.2 10.7 13.4 1.1 0.3 1.9-1.4 1.9-1.4l-4-1.7c0 0 4.8 1.4 5.6 1.5 0.8 0 1.9-1.6 2-2.2 0-0.6-5.3-2.7-8.8-6-3.4-3.3-4.1-6.3-4.1-6.3z"/><path fill-rule="evenodd" class="map_f" d="m75.8 84.5c-0.1 1.1 1.3 3.9 1.8 3.9 0.6 0.1 18.3-11.7 18.5-12.8 0.2-1-2.2-3.6-2.7-3.4-0.5 0.2-2.2 1.2-2.2 1.2 0 0 1.5-1.1 1.2-1.6-0.4-0.4-1.4-0.9-2.1-0.5-0.7 0.3-5 5.9-8.1 8.8-3 2.9-6.4 4.4-6.4 4.4z"/><path fill-rule="evenodd" class="map_g" d="m87.4 66.5c0.3 0.9 2.7 2.5 3.9 2.5 1.2 0 5.8-7.1 5.9-7.9 0.1-0.8-3.4-3.1-3.8-2.5-4.1 5.5-6.3 7.1-6 7.9z"/><path fill-rule="evenodd" class="map_h" d="m95.1 55.6c0.8 0.1 3.3-1.5 3.5-1.9 0.2-0.4-2.3-9.2-6.3-9.3-0.8 0-2.9 2.9-3 3.5 0 0.7 1.5 1.5 3.5 4.5 1.3 1.9 1.4 3.1 2.3 3.2z"/><path fill-rule="evenodd" class="map_i" d="m88 41.5c0.3 0.8-2.1 4-2.7 4-0.5-0.1-5.4-2.7-8.8-3.4-1.4-0.2 0.8-4.9 1.5-5 0.6 0 8.8 1.6 10 4.4z"/><path fill-rule="evenodd" class="map_j" d="m69.1 39.9c-1.6-0.6-8.9-5-8.7-6.3 0.3-1.8 3.4-3.8 4.2-3.9 1.3 0 5.8 3.3 7.9 4.9 0.7 0.6-2.5 5.5-3.4 5.3z"/><path fill-rule="evenodd" class="map_k" d="m50.4 22.7c0 1 2.2 4.7 3.6 5.3 1.4 0.7 6.6-3.3 6.8-3.7 0.2-0.4-1.4-2.2-1.4-2.2z"/><path fill-rule="evenodd" class="map_l" d="m48 69.6q-0.3 1.1-0.7 2.3c-7.8 25-26.3 50.6-26.3 50.6 0 0-5.9-8.6-4.7-11.4 0.7-1.9 10.4-10.3 18.3-31.5 2.2-5.8 3.6-10.9 4.5-15.4 1.6 1 7.7 4.9 8.7 5.3q0 0.1 0.2 0.1z"/><path fill-rule="evenodd" class="map_m" d="m50.7 55.9q-0.1 0-0.1 0c-2.6 0.5-7.7 1.1-10.3-0.7 0.8-13.4-4.2-18.3-6.1-16.6-5 4.4-14.5 45-21.9 44.7-7.3-0.3-10.9-65.3-10.9-65.3 1-6.2 6.7-10.1 6.7-10.1-3.3 37.8 2.5 58.4 4.8 59.8 2.2 1.4 13.3-43.1 23.2-45 4-0.7 17.2 8.6 14.6 33.2z"/><path fill-rule="evenodd" class="map_n" d="m33.7 114.1c0 0 43.9-12.9 67.2-4 0 0 10.3-7.9 13.2-18.2 1-3.5-12.6-4.7-17-4.7-4.3 0-8-6.7-7.9-8.3 0.2-1.5-7.3-2.6-9.3-1.6-2.1 1-7 6.8-8.3 12.7-1.4 5.8-5.3 10.1-12.1 10.3-6.7 0.2-13.6 5.5-15 3.7-1.4-1.7-3.4-1.2-6.6 2.9-3.1 4-4.2 7.2-4.2 7.2z"/><path fill-rule="evenodd" class="map_o" d="m36.1 22.7c24.5-2.2 62.2 0.9 62.2 0.9 0 0 0.5-5.5-3.9-9.1-4.4-3.6-40.4-8.8-59-7.9-19.3 1-24.2 0.6-25.4 4.8-1.1 4.2-1.9 45.7 2.6 53.3 3.2 5.4 9.5-22.5 12.6-28.9 4.9-10.3 10.9-13.1 10.9-13.1z"/><path fill-rule="evenodd" class="map_n" d="m113.2 59c-3.6-13.7-16.7-7.5-16.4-10.2 0.2-2.8-2.5-7.8-5.2-8-2.8-0.3-8.4-3.2-11.8-4.7-3.5-1.5-5.4-6-4.9-7.6 0.6-1.5 7.1-5.6 7.1-5.6 0 0 17.3-0.8 33.1 5.2 0 0 3.6 2.1 4.3 15.3 0.7 12.3-1.5 16.4-1.5 16.4 0 0-3.5 3.7-4.7-0.8z"/><path fill-rule="evenodd" class="map_n" d="m76.6 70c0 0 8.7-8.4 10.5-10.8 1.7-2.4 5-4.8 1.5-7.3-3.5-2.5-14.2 5.5-12.7 6.8 1.5 1.2-6.7 5.1-7.9 9.4-1.2 4.4 1.2 6.6 4.1 7.1 2.9 0.5 4.4 2.1 4.5-5.2z"/><path fill-rule="evenodd" class="map_n" d="m14 13.7c-3.1 4.4 1.2 41 2.6 44 0.5 1 7.9-18.9 10.3-23.8 4.3-8.5 8-11.1 8-11.1 0 0 7.1 0.2 8.1-0.7 2.2-2.2 3.4-5.8 2-7.7-2.1-2.8-11.4 3.7-10.4 0.7 2.2-6.7-17.2-6.2-20.6-1.4z"/><g style="opacity:.2;mix-blend-mode:multiply"><path fill-rule="evenodd" class="map_p" d="m52.6 109.7l-0.6-0.4c16.1-22.9 26.2-70.8 8.2-86.8l0.5-0.6c8.5 7.5 11.7 22.3 9 41.7-2.4 16.9-8.9 34.5-17.1 46.1z"/></g><g style="opacity:.2;mix-blend-mode:multiply"><path fill-rule="evenodd" class="map_p" d="m93.8 108l-0.6-0.4c0.3-0.4 28.4-48.3 7.5-83.3l0.7-0.4c11 18.5 8.4 40.4 4.2 55.5-4.5 16.4-11.7 28.5-11.8 28.6z"/></g><g style="opacity:.2;mix-blend-mode:multiply"><path fill-rule="evenodd" class="map_p" d="m43.8 95.9l-0.1-0.7c0.4-0.1 41.6-9.1 69.3-3.9l-0.1 0.8c-27.6-5.2-68.7 3.7-69.1 3.8z"/></g><g style="opacity:.2;mix-blend-mode:multiply"><path fill-rule="evenodd" class="map_p" d="m56.9 42.8l-0.1-0.8c0.4 0 37.1-5.7 61.1 2.8l-0.2 0.8c-23.9-8.5-60.4-2.9-60.8-2.8z"/></g><g style="opacity:.2;mix-blend-mode:multiply"><path fill-rule="evenodd" class="map_p" d="m26.7 34.1c-1.9-16.7 1.4-27.3 1.5-27.4l0.7 0.2c0 0.1-3.3 10.6-1.5 27.1z"/></g><g style="opacity:.2;mix-blend-mode:multiply"><path fill-rule="evenodd" class="map_p" d="m74.5 22c-1.6-8.6 0.6-12.4 0.7-12.6l0.6 0.4c0 0-2.1 3.8-0.5 12.1z"/></g><g style="opacity:.2;mix-blend-mode:multiply"><path fill-rule="evenodd" class="map_p" d="m10.1 30.8l-0.2-0.8c0.1 0 10.9-2.4 21.5-3.8l0.1 0.8c-10.5 1.3-21.3 3.7-21.4 3.8z"/></g><path fill-rule="evenodd" class="map_q" d="m17.7 111.3c-1.5 5.7 2.4 8.7 3.2 8.2 0.9-0.4 11.2-12.7 18.1-30 6.9-17.2 0.6-17-3.1-8.7-3.7 8.4-17.4 27.4-18.2 30.5z"/><path fill-rule="evenodd" class="map_r" d="m42.9 22.4c43.8 13.8 81.6 10.2 72.2 5.7-17.3-8.3-72.2-5.7-72.2-5.7z"/><path fill-rule="evenodd" class="map_s" d="m99 20.5c-46.4-2.9-78.4 3-82.8 7.3-5.3 5.3-6.3 35.6-3.3 39.9 2.3 3.1 12.9-43.8 24-44.7 29.6-2.4 64.2 1.1 64.2 1.1z"/><path fill-rule="evenodd" class="map_t" d="m61.8 63.4c-0.1 1-8.5 0.6-8.9-1.1-4.4-3.8-12.3-6.7-12.6-7.1 3.4-0.7 10.3 0.2 10.4 0.3 6 2.5 11.3 5.7 11.1 7.9z"/><path fill-rule="evenodd" class="map_u" d="m39.1 64.2c3.4 0.3 13.8-1.9 13.8-1.9 5.5 1 8.9 1.1 8.9 1.1-2.5 2.5-12 6.6-13.8 6.2-1.8-0.5-8.9-5.4-8.9-5.4z"/><path fill-rule="evenodd" class="map_v" d="m120.8 83.7c-1.4-1.3-1.6-7.3-2-6.9-4.9 6.3 2 6.9 2 6.9z"/><path fill-rule="evenodd" class="map_w" d="m123.3 65.2c3.6-9.3-1.6-30.5-7.6-31.3-6-0.8-63.8-3.6-64.1-0.2-0.3 3.4 3.1 22.4 5.1 23.6 2 1.2 13.4 3.6 13.4 3.6 0 0-19.1 9.6-20.2 10.9-1.9 2.3-10.9 23.8-7.8 27.3 3.1 3.4 10.4 1.7 10.4 1.7 0 0-13 0.1-15.6 2.8-2.6 2.7-9.3 12.3-8.6 13.2 0.7 0.8 34.3-9 50.5-6.7 16.1 2.3 23.8 2.5 25.8 0.3 2.1-2.1 13.3-21.1 13-23-0.4-1.9-33.5-0.8-33.5-0.8 0 0 28.4-1.5 29.6-3 1.2-1.5 4.4-10.1 2.2-12.7-2.1-2.6-23.4-0.6-23.4-0.6 0 0 29.8-2.3 30.8-5.1z"/><path fill-rule="evenodd" class="map_x" d="m56.1 37.5c10.4 24.3 41.5 16.3 51.1 11.5 6.7-3.4 13-13.5 9.5-14-19.9-3-63.3-3.7-60.6 2.5z"/><path fill-rule="evenodd" class="map_x" d="m104 112.1c12.1-9.9-16-26.8-39.6-17.7-30.5 11.8-43.5 23.9-38 24 5.6 0.2 16-4.7 43.2-7 24.9-2.2 33.2 1.7 34.4 0.7z"/><path fill-rule="evenodd" class="map_r" d="m14.3 7c47.3 10.4 82.5 7.4 78.4 5.4-4.2-2-23-4.9-44.6-5.9-23.1-1.1-33.8 0.5-33.8 0.5z"/><path fill-rule="evenodd" class="map_q" d="m41.5 55.4c0.5 0.9 3.5 1.3 9.8 4.7 3.2 1.7 6 0.4 4.8-1.5-1.1-2-5.3-2.9-5.8-3-4-0.9-8.9-0.5-8.8-0.2z"/><path fill-rule="evenodd" class="map_q" d="m52.9 62.3c-5.6 0.9-7 4.2-2.7 4.9 4.4 0.8 11.9-2.8 11.6-3.8-0.3-0.9-6.6-1.5-8.9-1.1z"/><path fill-rule="evenodd" class="map_y" d="m26.8 39.5c-3.9 1.7-11.8 29-13.5 30-1.8 1-2.5-5-5-5.1-2.5-0.1-0.7 9.6 1 14.2 5.5 14.6 15.6-19 16.7-22.2 3.3-9.4 3.8-18.3 0.8-16.9z"/><path fill-rule="evenodd" class="map_z" d="m49.4 83.9c-2.9 7.8 3.7 5.9 5.2-0.7 1.6-6.6-3.4-4-5.2 0.7z"/><path fill-rule="evenodd" class="map_z" d="m56.8 79.7c-1.6 4.6 3.4 8 4.4 2 1.1-5.9-3.1-5.4-4.4-2z"/><path fill-rule="evenodd" class="map_q" d="m49.5 83.5c0 0 2.5-4.5 4.5-4.2 1.9 0.3 0.6 3.9 0.6 3.9 0 0 0.8-3-1-3.1-1.9-0.1-4.1 3.4-4.1 3.4z"/><path fill-rule="evenodd" class="map_q" d="m56.5 81.1c0 0 0.8-2.4 2.4-3.1 1.6-0.7 2.7 0.7 2.4 2.8 0 0 0.9-3.7-1.9-3.7-2.1 0-2.9 4-2.9 4z"/><path fill-rule="evenodd" class="map_a" d="m34.7 79.4c0 0 2.8-5.7 3.8-11.5 0 0-1.7 5-4.7 10.7-3 5.8-5.3 12-5.3 12 0 0 5-7.9 6.2-11.2z"/></svg>