<svg version="1.2" xmlns="http://www.w3.org/2000/svg" viewBox="0 0 128 128" width="128" height="128"><defs><linearGradient id="obsidian_P" gradientUnits="userSpaceOnUse"/><radialGradient id="obsidian_g1" cx="0" cy="0" r="1" href="#obsidian_P" gradientTransform="matrix(44.65,14.026,-14.026,44.65,58.191,58.25)"><stop offset=".37" stop-color="#843cf0"/><stop offset="1" stop-color="#f0a0fa"/></radialGradient><linearGradient id="obsidian_g2" x2="1" href="#obsidian_P" gradientTransform="matrix(41.63,23.149,-27.46,49.383,70.721,33.283)"><stop stop-color="#005aff"/><stop offset="1"/></linearGradient><linearGradient id="obsidian_g3" x2="1" href="#obsidian_P" gradientTransform="matrix(72.563,40.349,-120.326,216.393,44.369,9.185)"><stop stop-color="#005aff"/><stop offset="1"/></linearGradient><linearGradient id="obsidian_g4" x2="1" href="#obsidian_P" gradientTransform="matrix(8.708,2.134,-7.338,29.948,52.863,33.303)"><stop stop-color="#005aff"/><stop offset="1"/></linearGradient><linearGradient id="obsidian_g5" x2="1" href="#obsidian_P" gradientTransform="matrix(2.965,2.75,-5.29,5.704,66.089,75.155)"><stop stop-color="#005aff"/><stop offset="1"/></linearGradient><linearGradient id="obsidian_g6" x2="1" href="#obsidian_P" gradientTransform="matrix(20.187,13.008,-50.557,78.456,68.424,59.214)"><stop stop-color="#005aff"/><stop offset="1"/></linearGradient><linearGradient id="obsidian_g7" x2="1" href="#obsidian_P" gradientTransform="matrix(29.186,18.807,-64.655,100.333,83.353,19.84)"><stop stop-color="#005aff"/><stop offset="1"/></linearGradient><linearGradient id="obsidian_g8" x2="1" href="#obsidian_P" gradientTransform="matrix(-58.688,-56.387,93.644,-97.466,48.207,160.17)"><stop stop-color="#b15aff"/><stop offset="1"/></linearGradient><linearGradient id="obsidian_g9" x2="1" href="#obsidian_P" gradientTransform="matrix(31.907,38.214,-53.603,44.756,85.149,99.292)"><stop stop-color="#b15aff"/><stop offset="1"/></linearGradient><linearGradient id="obsidian_g10" x2="1" href="#obsidian_P" gradientTransform="matrix(43.67,52.303,-250.523,209.175,130.633,50.063)"><stop stop-color="#b15aff"/><stop offset="1"/></linearGradient></defs><style>.obsidian_a{fill:url(#obsidian_g1)}.obsidian_b{opacity:.9;mix-blend-mode:multiply;fill:#7650b2}.obsidian_c{opacity:.7;mix-blend-mode:screen;fill:url(#obsidian_g2)}.obsidian_d{opacity:.5;mix-blend-mode:multiply;fill:#707384}.obsidian_e{opacity:.7;mix-blend-mode:screen;fill:url(#obsidian_g3)}.obsidian_f{opacity:.3;mix-blend-mode:multiply;fill:#7650b2}.obsidian_g{opacity:.2;fill:#fff}.obsidian_h{opacity:.5;mix-blend-mode:screen;fill:url(#obsidian_g4)}.obsidian_i{opacity:.4;fill:#fff}.obsidian_j{mix-blend-mode:screen;fill:url(#obsidian_g5)}.obsidian_k{mix-blend-mode:screen;fill:url(#obsidian_g6)}.obsidian_l{opacity:.7;mix-blend-mode:screen;fill:url(#obsidian_g7)}.obsidian_m{fill:#e6bbff}.obsidian_n{fill:#fff}.obsidian_o{opacity:.7;mix-blend-mode:screen;fill:url(#obsidian_g8)}.obsidian_p{opacity:.7;mix-blend-mode:screen;fill:url(#obsidian_g9)}.obsidian_q{opacity:.7;mix-blend-mode:screen;fill:url(#obsidian_g10)}.obsidian_r{opacity:.5;mix-blend-mode:screen;fill:#6f52ff}</style><path fill-rule="evenodd" class="obsidian_a" d="m89.7 63.1v0.1q0 0.2-0.1 0.5 0 0 0 0 0 0.1 0 0.1 0 0.1 0 0.1 0 0-0.1 0.1 0 0 0 0.1 0 0.1-0.1 0.2 0 0.1 0 0.1 0 0.1-0.1 0.2 0 0.2-0.1 0.4-0.1 0.1-0.1 0.2 0 0-0.1 0.1-0.1 0.3-0.3 0.7 0 0.1-0.1 0.2-0.2 0.4-0.4 0.8-0.1 0.1-0.1 0.2-0.2 0.4-0.5 0.8 0 0.2-0.2 0.4 0 0 0 0 0 0 0 0-0.1 0.2-0.1 0.3-0.1 0.1-0.2 0.2-0.1 0.2-0.2 0.4-0.2 0.4-0.5 0.8-0.2 0.4-0.4 0.8-0.1 0-0.1 0 0 0 0 0 0 0 0 0 0 0.1 0 0.1 0 0 0 0-1 1.5-2.1 3.2-0.2 0.4-0.4 0.7-0.5 0.7-1 1.5-0.1 0.2-0.3 0.4-0.1 0.2-0.2 0.3c-2.5 3.8-5.5 8.1-8.5 12.4q-0.3 0.3-0.5 0.6-0.5 0.6-0.9 1.2-0.4 0.6-0.8 1.2-1.1 1.5-2.1 2.9-0.8 1-1.5 2.1-0.2 0.2-0.4 0.5-0.5 0.7-1 1.4-0.7 1-1.4 1.9-0.2 0.2-0.4 0.5-0.8 1.1-1.6 2.2-0.1 0.1-0.3 0.3-0.5 0.8-1.1 1.6-0.1 0.1-0.2 0.2-0.4 0.5-0.7 1-0.2 0.2-0.3 0.4-0.1 0.1-0.2 0.2-0.1 0.2-0.3 0.4-0.4 0.6-0.9 1.2-0.1 0.2-0.2 0.4-0.1 0.1-0.2 0.3-0.2 0.1-0.3 0.3-0.1 0.2-0.3 0.4-0.1 0.1-0.1 0.2-0.2 0.2-0.3 0.3-0.1 0.1-0.1 0.2-0.3 0.4-0.6 0.7-0.1 0.2-0.2 0.3-0.1 0.1-0.1 0.2-0.3 0.4-0.6 0.7-0.1 0.1-0.1 0.3-0.4 0.4-0.7 0.8-0.1 0.1-0.1 0.2-0.7 0.9-1.1 1.5-0.1 0-0.1 0.1-0.2 0.1-0.2 0.3 0 0-0.1 0-0.1 0.2-0.1 0.2 0 0 0-0.2-0.1-0.1-0.2-0.5c-1.2-3.6-6.6-19.9-10-30-1.2-3.5-2.1-6.2-2.5-7.5q0 0 0-0.1-0.2-0.4-0.2-0.5c-0.1-0.4 0.4-2.2 1.4-5q0.3-1 0.7-2c0.8-2.2 1.8-4.8 3-7.6 3.4-8.3 8.2-18.7 13.2-27.9q0.2-0.3 0.4-0.6 0 0 0-0.1 0.5-0.8 0.9-1.6 0.3-0.4 0.5-0.8 0.2-0.4 0.4-0.8l0.6-1q0.3-0.5 0.6-1 0.2-0.2 0.3-0.5 0.2-0.2 0.3-0.5 0.2-0.2 0.3-0.5 0.2-0.2 0.3-0.4 0.2-0.3 0.3-0.5 0.2-0.3 0.3-0.5 0.3-0.4 0.6-0.9 0.3-0.5 0.6-0.9 0.1-0.2 0.3-0.5 0.1-0.2 0.3-0.4l0.3-0.4q0-0.1 0-0.1 0.1-0.2 0.3-0.4 0.3-0.4 0.5-0.8 0.1 0 0.1 0 0.9-1.2 1.7-2.3c2.2-2.8 4.4-4.9 6.3-6.1l0.9 8.9 0.4 4.4 0.3 2.6q0 0 0 0 0 0 0 0l0.2 2.6 0.1 0.4q0 0 0 0.1 0 0 0 0 0.1 0.1 0.1 0.2 0.1 0 0.1 0 0 0.1 0.1 0.3 0.2 0.4 0.6 1.1 0.1 0.4 0.3 0.8 0.1 0.1 0.1 0.1 0 0.1 0 0.1 0.1 0.2 0.2 0.3 0 0.1 0.1 0.3 0.1 0.1 0.1 0.2 0.1 0.1 0.1 0.2 0.1 0.2 0.1 0.3 0.1 0.1 0.2 0.3 0 0.1 0.1 0.2 0.2 0.4 0.3 0.7 0.1 0.1 0.1 0.2 0.2 0.3 0.3 0.6 0 0.1 0.1 0.2 0 0.1 0.1 0.2 0.1 0.3 0.3 0.6 0.8 1.6 1.6 3.5 0.1 0.2 0.2 0.4 0.6 1.3 1.2 2.7 0.4 0.8 0.8 1.6 0.4 1 0.8 2 0.2 0.3 0.3 0.5 0.1 0.3 0.2 0.5 0.1 0.3 0.2 0.5c1.2 2.7 2.3 5.4 3 7.5q0.2 0.4 0.3 0.8 0 0 0 0.1 0.1 0.1 0.1 0.3 0 0 0.1 0.1 0 0.1 0 0.3 0.1 0 0.1 0.1 0 0.1 0.1 0.2 0 0.1 0 0.2 0 0.1 0 0.1 0.1 0.4 0.2 0.7 0 0 0.1 0.1 0.1 0.6 0.1 1 0.1 0 0.1 0.1 0 0.1 0 0.1z"/><path fill-rule="evenodd" class="obsidian_b" d="m89.7 63.1v0.1q0 0.2-0.1 0.5 0 0 0 0 0 0.1 0 0.1 0 0.1 0 0.1 0 0-0.1 0.1 0 0 0 0.1 0 0.1-0.1 0.2 0 0.1 0 0.1 0 0.1-0.1 0.2 0 0.2-0.1 0.4-0.1 0.1-0.1 0.2 0 0-0.1 0.1-0.1 0.3-0.3 0.7 0 0.1-0.1 0.2-0.2 0.4-0.4 0.8-0.1 0.1-0.1 0.2-0.2 0.4-0.5 0.8 0 0.2-0.2 0.4 0 0 0 0 0 0 0 0-0.1 0.2-0.1 0.3-0.1 0.1-0.2 0.2-0.1 0.2-0.2 0.4-0.2 0.4-0.5 0.8-0.2 0.4-0.4 0.8-0.1 0-0.1 0 0 0 0 0 0 0 0 0 0 0.1 0 0.1 0 0 0 0-1 1.5-2.1 3.2-0.2 0.4-0.4 0.7-0.5 0.7-1 1.5-0.1 0.2-0.3 0.4-0.1 0.2-0.2 0.3c-2.5 3.8-5.5 8.1-8.5 12.4q-0.3 0.3-0.5 0.6-0.5 0.6-0.9 1.2-0.4 0.6-0.8 1.2-1.1 1.5-2.1 2.9-0.8 1-1.5 2.1-0.2 0.2-0.4 0.5-0.5 0.7-1 1.4-0.7 1-1.4 1.9-0.2 0.2-0.4 0.5-0.8 1.1-1.6 2.2-0.1 0.1-0.3 0.3-0.5 0.8-1.1 1.6-0.1 0.1-0.2 0.2-0.4 0.5-0.7 1-0.2 0.2-0.3 0.4-0.1 0.1-0.2 0.2-0.1 0.2-0.3 0.4-0.4 0.6-0.9 1.2-0.1 0.2-0.2 0.4-0.1 0.1-0.2 0.3-0.2 0.1-0.3 0.3-0.1 0.2-0.3 0.4-0.1 0.1-0.1 0.2-0.2 0.2-0.3 0.3-0.1 0.1-0.1 0.2-0.3 0.4-0.6 0.7-0.1 0.2-0.2 0.3-0.1 0.1-0.1 0.2-0.3 0.4-0.6 0.7-0.1 0.1-0.1 0.3-0.4 0.4-0.7 0.8-0.1 0.1-0.1 0.2-0.7 0.9-1.1 1.5-0.1 0-0.1 0.1-0.2 0.1-0.2 0.3 0 0-0.1 0-0.1 0.2-0.1 0.2 0 0 0-0.2-0.1-0.1-0.2-0.5c-1.2-3.6-6.6-19.9-10-30-1.2-3.5-2.1-6.2-2.5-7.5l0.7-0.2q0 0 0 0l7.2-2.3 1.1-0.3 10.8-3.4q0-0.1 0.1-0.1l4.3-1.3 0.3-0.1 0.1-0.1 0.4-0.1q0 0 0 0 0 0 0-0.5 0-0.6 0-1.7v-0.2q0-0.9 0-2.1 0 0 0 0 0 0 0 0c0-2.8-0.1-6.6 0-10q0-0.3 0-0.7 0-0.3 0-0.6 0-0.4 0-0.8c0.1-1.9 0.1-3.6 0.2-4.9q0-0.3 0-0.6 0.1-0.8 0.2-1.3 0 0 0 0 0 0 0-0.1 0 0 0-0.1 0-0.1 0-0.1 0.1-0.1 0.1-0.2 0-0.1 0.1-0.2 0 0 0 0 0-0.1 0.1 0 0.1 0 0.3-0.2c0.3-0.2 0.6-0.6 1.1-1.1q0-0.1 0.1-0.1 0.1-0.2 0.4-0.5 0 0 0-0.1 0.3-0.3 0.6-0.7 0.1-0.1 0.1-0.1 0.1-0.1 0.2-0.2 0.1-0.2 0.2-0.3 0.2-0.3 0.4-0.6 0.1-0.1 0.1-0.2c0.8-0.9 1.6-2 2.3-3.1q0.1-0.1 0.2-0.2 0.1-0.1 0.2-0.2 0.1-0.2 0.1-0.3c0.7-1 1.4-1.9 2-2.8q0.2-0.2 0.3-0.4 0.1-0.1 0.1-0.1 0.1-0.2 0.2-0.3 0 0 0.1-0.1 0-0.1 0.1-0.3 0.1-0.1 0.2-0.1v-0.1q0.2-0.3 0.4-0.6 0.1-0.1 0.1-0.2 0 0 0.1 0 0-0.1 0.1-0.2 0.1-0.1 0.1-0.2 0.1-0.1 0.1-0.2 0.1 0 0.1-0.1 0.1-0.1 0.2-0.2 0 0 0 0 0 0 0 0 0 0 0 0.1 0 0 0 0 0.1 0.1 0.1 0.2 0.1 0 0.1 0 0 0.1 0.1 0.3 0.2 0.4 0.6 1.1 0.1 0.4 0.3 0.8 0.1 0.1 0.1 0.1 0 0.1 0 0.1 0.1 0.2 0.2 0.3 0 0.1 0.1 0.3 0.1 0.1 0.1 0.2 0.1 0.1 0.1 0.2 0.1 0.2 0.1 0.3 0.1 0.1 0.2 0.3 0 0.1 0.1 0.2 0.2 0.4 0.3 0.7 0.1 0.1 0.1 0.2 0.2 0.3 0.3 0.6 0 0.1 0.1 0.2 0 0.1 0.1 0.2 0.1 0.3 0.3 0.6 0.8 1.6 1.6 3.5 0.1 0.2 0.2 0.4 0.6 1.3 1.2 2.7 0.4 0.8 0.8 1.6 0.4 1 0.8 2 0.2 0.3 0.3 0.5 0.1 0.3 0.2 0.5 0.1 0.3 0.2 0.5c1.2 2.7 2.3 5.4 3 7.5q0.2 0.4 0.3 0.8 0 0 0 0.1 0.1 0.1 0.1 0.3 0 0 0.1 0.1 0 0.1 0 0.3 0.1 0 0.1 0.1 0 0.1 0.1 0.2 0 0.1 0 0.2 0 0.1 0 0.1 0.1 0.4 0.2 0.7 0 0 0.1 0.1 0.1 0.6 0.1 1 0.1 0 0.1 0.1 0 0.1 0 0.1z"/><path fill-rule="evenodd" class="obsidian_c" d="m89.7 63.2q0 0.2-0.1 0.5 0 0 0 0 0 0.1 0 0.1 0 0.1 0 0.1 0 0-0.1 0.1 0 0 0 0.1 0 0.1-0.1 0.2 0 0.1 0 0.1 0 0.1-0.1 0.2 0 0.2-0.1 0.4-0.1 0.1-0.1 0.2 0 0-0.1 0.1-0.1 0.3-0.3 0.7 0 0.1-0.1 0.2-0.2 0.4-0.4 0.8-0.1 0.1-0.1 0.2-0.2 0.4-0.5 0.8 0 0.2-0.2 0.4 0 0 0 0 0 0 0 0-0.1 0.2-0.1 0.3-0.1 0.1-0.2 0.2-0.1 0.2-0.2 0.4-0.2 0.4-0.5 0.8-0.2 0.4-0.5 0.8 0 0 0 0 0 0 0 0 0 0 0 0 0 0.1 0 0.1 0 0 0 0-1 1.5-2.1 3.2c-1.4-1.7-3.1-3.8-4.9-6.2-2.9-4-6.1-8.6-8.7-13.2-1.6-2.8-3-5.7-3.9-8.3q0 0 0 0l1.1 0.8 5.2 3.7 13.8 9.8 3.2 2.4z"/><path fill-rule="evenodd" class="obsidian_d" d="m64.8 70.9q0.1 0.2 0.1 0.4l-0.1-0.4-0.2-0.6q0.1 0.3 0.2 0.6z"/><path fill-rule="evenodd" class="obsidian_e" d="m71.2 92.5q-1.1 1.5-2.1 2.9-0.8 1-1.5 2.1-0.2 0.2-0.4 0.5-0.5 0.7-1 1.4-0.7 1-1.4 1.9-0.2 0.2-0.4 0.5-0.8 1.1-1.6 2.2-0.1 0.1-0.3 0.3-0.5 0.8-1.1 1.6-0.1 0.1-0.2 0.2-0.4 0.5-0.7 1-0.2 0.2-0.3 0.4-0.1 0.1-0.2 0.2-0.1 0.2-0.3 0.4-0.4 0.6-0.9 1.2-0.1 0.2-0.2 0.4-0.1 0.1-0.2 0.3-0.2 0.1-0.3 0.3-0.1 0.2-0.3 0.4-0.1 0.1-0.1 0.2-0.2 0.2-0.3 0.3-0.1 0.1-0.1 0.2-0.3 0.4-0.6 0.7-0.1 0.2-0.2 0.3-0.1 0.1-0.1 0.2-0.3 0.4-0.6 0.7-0.1 0.1-0.1 0.3-0.4 0.4-0.7 0.8-0.1 0.1-0.1 0.2-0.7 0.9-1.1 1.5-0.1 0-0.1 0.1-0.2 0.1-0.2 0.3 0 0-0.1 0-0.1 0.2-0.1 0.2 0 0 0-0.2 0.2-0.5 0.4-1c1.7-4.4 3.5-9.6 5.1-15 3-10.3 5.5-21.5 6.3-29.5q0-0.1 0-0.2 0 0 0 0 0-0.5 0.1-1c0.1-2.6 0.1-4.9-0.2-6.5l0.6 2.8q0 0 0 0 0 0 0 0l0.7 3.6 0.1 0.2 0.1 0.7v0.1l4.1 19.3v0.1z"/><path fill-rule="evenodd" class="obsidian_f" d="m76.8 32.7q0 0 0 0 0 0 0 0-0.1 0.1-0.2 0.2 0 0.1-0.1 0.1 0 0.1-0.1 0.2 0 0.1-0.1 0.2 0 0 0 0-0.1 0.1-0.1 0.2-0.1 0-0.1 0 0 0.1-0.1 0.2-0.2 0.3-0.4 0.7-0.1 0-0.2 0.1-0.1 0.2-0.1 0.3-0.1 0.1-0.1 0.1-0.1 0.1-0.2 0.2 0 0.1-0.1 0.2-0.1 0.2-0.3 0.4c-0.6 0.9-1.3 1.8-2 2.8q0 0.1-0.1 0.3-0.1 0.1-0.2 0.2-0.1 0.1-0.2 0.2c-0.7 1.1-1.5 2.2-2.3 3.1q0 0.1-0.1 0.2-0.2 0.3-0.4 0.6-0.1 0.1-0.2 0.3-0.1 0.1-0.2 0.2 0 0-0.1 0.1-0.3 0.4-0.6 0.7 0 0.1 0 0.1-0.2 0.3-0.4 0.5-0.1 0-0.1 0.1-0.7 0.8-1.1 1.1l-0.3 0.2-1.4-2-4.6-6.8-1.6-2.3q0.2-0.3 0.4-0.6 0 0 0-0.1 0.5-0.8 0.9-1.6 0.5-0.8 0.9-1.6 0.6-1 1.2-2 0.2-0.2 0.3-0.5 0.2-0.2 0.3-0.5 0.2-0.2 0.3-0.5 0.2-0.2 0.3-0.4 0.2-0.3 0.3-0.5 0.2-0.3 0.3-0.5 0.3-0.4 0.6-0.9 0.3-0.5 0.6-0.9 0.1-0.2 0.3-0.5 0.1-0.2 0.3-0.4 0.1-0.2 0.3-0.4 0-0.1 0-0.1 0.1-0.2 0.3-0.4 0.3-0.4 0.5-0.8c0.6-0.8-3.5 5.8-2.9 5.1 2.2 2.5 10.4-3.7 11.7-1.6 1.4 2.2 0.5 5.2 1.1 6.6z"/><path fill-rule="evenodd" class="obsidian_f" d="m41.8 81.7c0.2-1 23.8-11.1 23.8-11.1l-25 7.9z"/><path fill-rule="evenodd" class="obsidian_b" d="m66.4 69.7l2.8 16.6-4.1-15.9z"/><path fill-rule="evenodd" class="obsidian_b" d="m85.9 71q-1 1.5-2.1 3.2-0.2 0.4-0.4 0.7-0.6 1-1.3 1.9-0.1 0.2-0.2 0.3c-1-1.5-2.2-3.6-3.5-6.1-2.7-5-5.8-11.2-8.2-16.2-2.1-4.4-3.7-7.7-3.9-8.3q0 0 0 0 0 0 0 0l9.3-12v-0.1l1.2-1.6q0.1 0.1 0.1 0.2 0.1 0.1 0.2 0.3 0.2 0.4 0.6 1.1l-0.1 0.1-4.3 5.1-0.9 1-5.1 6.1q0 0 0.1 0.6c0.7 2.3 3.6 10.6 9.4 16.5q0.7 0.8 1.4 1.5c2.7 2.4 5.4 4.3 7.7 5.7z"/><path fill-rule="evenodd" class="obsidian_g" d="m41.8 72.9q0.3-1 0.7-2-0.4 1.1-0.7 2.3z"/><path fill-rule="evenodd" class="obsidian_h" d="m60.8 38.8c0 0-8.9 10.4-15.3 24.5 3.4-8.3 8.2-18.7 13.2-27.9q0.2-0.3 0.4-0.6l1.2 2.9z"/><path fill-rule="evenodd" class="obsidian_i" d="m64.6 70.3l0.2 0.6-15.2 4.8-8.3 2.6q-0.4 0.1-0.7 0.1-0.2-0.3-0.2-0.5c-0.1-0.4 0.4-2.2 1.4-5q0.3-1 0.7-2c0.8-2.2 1.8-4.8 3-7.6 3.4-8.3 8.2-18.7 13.2-27.9l1.6 2.3 4.6 6.8 1.4 2c-0.8-0.2-0.8 15.6-0.7 21.7 0 1.5-1 2.1-1 2.1z"/><path fill-rule="evenodd" class="obsidian_j" d="m66.4 77.3q0.4 1.1 0.7 2.2z"/><path fill-rule="evenodd" class="obsidian_k" d="m69.1 95.4q0-1.2 0-2.7 0-0.2 0-0.4c-0.2-3.4-0.7-8-2-12.8l2.1 6.7 1.2 4 0.1 0.2 0.7 2.1q-1.1 1.5-2.1 2.9z"/><path fill-rule="evenodd" class="obsidian_l" d="m89.7 63.1v0.1q0 0.2-0.1 0.5 0 0 0 0 0 0.1 0 0.1 0 0.1 0 0.1 0 0-0.1 0.1 0 0 0 0.1 0 0.1-0.1 0.2 0 0.1 0 0.1 0 0.1-0.1 0.2 0 0.2-0.1 0.4-0.1 0.1-0.1 0.2 0 0-0.1 0.1-0.1 0.3-0.3 0.7 0 0.1-0.1 0.2-0.2 0.4-0.4 0.8-0.1 0.1-0.1 0.2-0.2 0.4-0.5 0.8 0 0.2-0.2 0.4 0 0 0 0c-0.2-2.2-0.6-4.8-1-7.6q0 0-0.1-0.1c-0.7-4.4-1.7-9.4-3.1-14.4q0.4 0.8 0.8 1.6 0.4 1 0.8 2 0.2 0.3 0.3 0.5 0.1 0.3 0.2 0.5 0.1 0.3 0.2 0.5c1.2 2.7 2.3 5.4 3 7.5q0.2 0.4 0.3 0.8 0 0 0 0.1 0.1 0.1 0.1 0.3 0 0 0.1 0.1 0 0.1 0 0.3 0.1 0 0.1 0.1 0 0.1 0.1 0.2 0 0.1 0 0.2 0 0.1 0 0.1 0.1 0.4 0.2 0.7 0 0 0.1 0.1 0.1 0.6 0.1 1 0.1 0 0.1 0.1 0 0.1 0 0.1z"/><path fill-rule="evenodd" class="obsidian_m" d="m55.8 73.3c0.2-0.6 10.5-26.8 10.5-26.8 0 0 1 23.3-0.2 24.1-1.2 0.7-10.3 2.7-10.3 2.7z"/><path fill-rule="evenodd" class="obsidian_n" d="m58 67.9c-1.2 5 3.8 4.3 3.2 4.2-0.6-0.1-13.9 4.3-13.9 4.3z"/><path fill-rule="evenodd" class="obsidian_n" d="m65.7 46.3c-0.3 4 0.7 4.5 0.7 4.5 0 0 1.1-3.3 0.5-4-0.5-0.7-1.2-0.5-1.2-0.5z"/><path fill-rule="evenodd" class="obsidian_n" d="m71.1 17.2c-0.8 2.3 4.2-0.5 3.9-1.7-0.3-1.2 0.4-1.6-0.3-1.6-0.7 0.1-3.4 2.7-3.6 3.3z"/><path fill-rule="evenodd" class="obsidian_o" d="m89.7 63.1v0.1q0 0.2-0.1 0.5 0 0 0 0 0 0.1 0 0.1 0 0.1 0 0.1c-0.5 2.3-3.1 6.2-3.6 7q-0.1 0-0.1 0 0 0 0 0 0 0 0 0 0 0.1 0 0.1 0 0 0 0-1 1.5-2.1 3.2-0.2 0.4-0.4 0.7-0.5 0.7-1 1.5-0.1 0.2-0.3 0.4-0.1 0.2-0.2 0.3c-2.5 3.8-5.5 8.1-8.5 12.4q-0.3 0.3-0.5 0.6-0.5 0.6-0.9 1.2-0.4 0.6-0.8 1.2-1.1 1.5-2.1 2.9-0.8 1-1.5 2.1-0.2 0.2-0.4 0.5-0.5 0.7-1 1.4-0.7 1-1.4 1.9-0.2 0.2-0.4 0.5-0.8 1.1-1.6 2.2-0.1 0.1-0.3 0.3-0.5 0.8-1.1 1.6-0.1 0.1-0.2 0.2-0.4 0.5-0.7 1-0.2 0.2-0.3 0.4-0.1 0.1-0.2 0.2-0.1 0.2-0.3 0.4-0.4 0.6-0.9 1.2-0.1 0.2-0.2 0.4-0.1 0.1-0.2 0.3-0.2 0.1-0.3 0.3-0.1 0.2-0.3 0.4-0.1 0.1-0.1 0.2-0.2 0.2-0.3 0.3-0.1 0.1-0.1 0.2-0.3 0.4-0.6 0.7-0.1 0.2-0.2 0.3-0.1 0.1-0.1 0.2-0.3 0.4-0.6 0.7-0.1 0.1-0.1 0.3-0.4 0.4-0.7 0.8l-1.3 1.1-0.6 0.5c-1.2-3.6-6.6-19.9-10-30 3.8 5 11.2 14.5 12.7 14.9 0.6 0.1 1.7 0 3-0.4 3.2-0.9 7.8-3 8.9-4.8q0-0.1 0-0.1 0.1-0.1 0.1-0.2 0.2-0.4 0.4-0.8 0-0.1 0-0.1c0.3-0.8 0.5-1.5 0.9-2.2 0.3-0.7 0.7-1.4 1.3-2.1q0.1-0.1 0.2-0.2 0.6-0.5 1.5-1.2c2.4-1.7 5.1-11.9 6.3-17.8 0.3-1.2 0.4-2.2 0.5-3q0.2-0.7 0.2-1c0-0.4-0.4-1-0.9-1.7-1.4-2.4-4.5-6.8-5.6-14.3-0.5-3-0.6-6.4-0.2-10.4q0.1-0.9 0.2-2c0 0 0.3 0.5 0.7 1 0.5 0.7 1.4 1.4 2.4 1.7 1.4 0.3 3.2-0.8 4.2-2.2q0.1 0.3 0.3 0.6 0.8 1.6 1.6 3.5 0.1 0.2 0.2 0.4 0.6 1.3 1.2 2.7 0.4 0.8 0.8 1.6 0.4 1 0.8 2 0.2 0.3 0.3 0.5 0.1 0.3 0.2 0.5 0.1 0.3 0.2 0.5c1.2 2.7 2.3 5.4 3 7.5q0.2 0.4 0.3 0.8 0 0 0 0.1 0.1 0.1 0.1 0.3 0 0 0.1 0.1 0 0.1 0 0.3 0.1 0 0.1 0.1 0 0.1 0.1 0.2 0 0.1 0 0.2 0 0.1 0 0.1 0.1 0.4 0.2 0.7 0 0 0.1 0.1 0.1 0.6 0.1 1 0.1 0 0.1 0.1 0 0.1 0 0.1z"/><path fill-rule="evenodd" class="obsidian_p" d="m73.4 89.5q-0.3 0.3-0.5 0.6-0.5 0.6-0.9 1.2-0.4 0.6-0.8 1.2-1.1 1.5-2.1 2.9-0.8 1-1.5 2.1-0.2 0.2-0.4 0.5-0.5 0.7-1 1.4 0.8-2.2 1.5-3.7 0-0.1 0-0.1 0.2-0.5 0.5-1 0-0.1 0-0.1 0.5-1 0.9-1.8c0.5-1.1 1-1.8 1.4-2.3q0.1-0.2 0.1-0.3c0.4-0.4 0.7-0.6 1-0.7 0.4-0.1 1.1-0.1 1.8 0.1z"/><path fill-rule="evenodd" class="obsidian_q" d="m89.6 63.8q0 0.1 0 0.1c-0.5 2.3-3.3 6.5-3.7 7q0 0 0 0 0 0 0 0 0 0.1 0 0.1c0.6-2.6 0.6-6.6 0.5-10.2q0-0.1-0.1-0.1c-0.1-4.5-0.6-8.4-0.6-8.4 0 0 3.7 7.7 3.9 10.9q0 0.3 0 0.6z"/><path fill-rule="evenodd" class="obsidian_r" d="m62.6 40.3c-1.7-3.5-1.3-8.6 2.5-8.9 6-0.4 0.9 10.1-1.3 10-1.6-0.1-1.2-1.1-1.2-1.1z"/><path fill-rule="evenodd" class="obsidian_r" d="m55.3 87.6c1.1 4.7 4 1 1.6-3.3-2.3-4.2-1.6 3.3-1.6 3.3z"/></svg>