<svg version="1.2" xmlns="http://www.w3.org/2000/svg" viewBox="0 0 128 128" width="128" height="128"><defs><linearGradient id="pistol_P" gradientUnits="userSpaceOnUse"/><linearGradient id="pistol_g1" x2="1" href="#pistol_P" gradientTransform="matrix(22.724,-2.624,2.967,25.693,9.26,63.182)"><stop stop-color="#402e5a"/><stop offset="1" stop-color="#5a4668"/></linearGradient><linearGradient id="pistol_g2" x2="1" href="#pistol_P" gradientTransform="matrix(-40.974,-39.374,51.968,-54.081,25.251,148.688)"><stop stop-color="#221e45"/><stop offset="1" stop-color="#452b57"/></linearGradient><linearGradient id="pistol_g3" x2="1" href="#pistol_P" gradientTransform="matrix(-0.957,-10.46,16.772,-1.534,46.72,106.645)"><stop stop-color="#725f72"/><stop offset=".99" stop-color="#c9cacd"/></linearGradient><linearGradient id="pistol_g4" x2="1" href="#pistol_P" gradientTransform="matrix(-26.696,-59.054,42.886,-43.678,49.162,118.02)"><stop stop-color="#503c61"/><stop offset="1" stop-color="#6f4460"/></linearGradient><linearGradient id="pistol_g5" x2="1" href="#pistol_P" gradientTransform="matrix(134.369,231.206,-239.218,139.024,51.603,-26.813)"><stop stop-color="#ecbeba"/><stop offset=".85" stop-color="#705c96"/><stop offset="1" stop-color="#7e68ba"/></linearGradient><linearGradient id="pistol_g6" x2="1" href="#pistol_P" gradientTransform="matrix(-53.184,-51.106,52.49,-54.624,82.215,110.769)"><stop stop-color="#221e45"/><stop offset="1" stop-color="#452b57"/></linearGradient><linearGradient id="pistol_g7" x2="1" href="#pistol_P" gradientTransform="matrix(-22.583,-49.954,35.927,-36.591,82.068,70.885)"><stop stop-color="#503c61"/><stop offset="1" stop-color="#6f4460"/></linearGradient><linearGradient id="pistol_g8" x2="1" href="#pistol_P" gradientTransform="matrix(113.297,194.949,-201.704,117.223,84.127,-51.235)"><stop stop-color="#ecbeba"/><stop offset=".85" stop-color="#705c96"/><stop offset="1" stop-color="#7e68ba"/></linearGradient><linearGradient id="pistol_g9" x2="1" href="#pistol_P" gradientTransform="matrix(27.822,-42.532,51.356,35.728,50.117,50.061)"><stop stop-color="#161236"/><stop offset="1" stop-color="#361e47"/></linearGradient><linearGradient id="pistol_g10" x2="1" href="#pistol_P" gradientTransform="matrix(8.014,-0.777,.651,6.713,52.341,75.836)"><stop stop-color="#161236"/><stop offset="1" stop-color="#361e47"/></linearGradient><linearGradient id="pistol_g11" x2="1" href="#pistol_P" gradientTransform="matrix(6.377,-0.618,.999,10.297,70.156,14.073)"><stop stop-color="#161236"/><stop offset="1" stop-color="#361e47"/></linearGradient><linearGradient id="pistol_g12" x2="1" href="#pistol_P" gradientTransform="matrix(6.449,-0.626,.389,4.009,47.338,114.367)"><stop stop-color="#403d5a"/><stop offset="1" stop-color="#5a4668"/></linearGradient><linearGradient id="pistol_g13" x2="1" href="#pistol_P" gradientTransform="matrix(14.116,-1.369,.912,9.399,84.007,34.735)"><stop stop-color="#6f5f87"/><stop offset="1" stop-color="#79698b"/></linearGradient><linearGradient id="pistol_g14" x2="1" href="#pistol_P" gradientTransform="matrix(11.661,-1.131,1.099,11.328,32.155,108.867)"><stop stop-color="#07051f"/><stop offset="1" stop-color="#210b30"/></linearGradient><linearGradient id="pistol_g15" x2="1" href="#pistol_P" gradientTransform="matrix(.338,11.915,-13.444,-2.746,44.784,110.934)"><stop stop-color="#a183a4"/><stop offset="1" stop-color="#8a709d"/></linearGradient></defs><style>.pistol_a{fill:#b1cffc}.pistol_b{fill:url(#pistol_g1)}.pistol_c{opacity:.4;mix-blend-mode:soft-light;fill:#ffffea}.pistol_d{opacity:.5;mix-blend-mode:multiply;fill:#853e6e}.pistol_e{fill:url(#pistol_g2)}.pistol_f{opacity:.8;mix-blend-mode:multiply;fill:#ab2781}.pistol_g{fill:url(#pistol_g3)}.pistol_h{opacity:.8;mix-blend-mode:multiply;fill:#c1b6c5}.pistol_i{fill:url(#pistol_g4)}.pistol_j{fill:url(#pistol_g5)}.pistol_k{fill:url(#pistol_g6)}.pistol_l{fill:url(#pistol_g7)}.pistol_m{fill:url(#pistol_g8)}.pistol_n{fill:url(#pistol_g9)}.pistol_o{opacity:.8;mix-blend-mode:multiply;fill:#843e70}.pistol_p{opacity:.2;mix-blend-mode:soft-light;fill:#ffffea}.pistol_q{fill:url(#pistol_g10)}.pistol_r{fill:url(#pistol_g11)}.pistol_s{fill:#b8a9bb}.pistol_t{fill:url(#pistol_g12)}.pistol_u{fill:url(#pistol_g13)}.pistol_v{opacity:.5;mix-blend-mode:soft-light;fill:#ffffea}.pistol_w{fill:#ffffea}.pistol_x{fill:url(#pistol_g14)}.pistol_y{fill:url(#pistol_g15)}.pistol_z{opacity:.6;mix-blend-mode:soft-light;fill:#d2ebef}.pistol_A{opacity:.4;mix-blend-mode:multiply;fill:#594275}</style><path fill-rule="evenodd" class="pistol_a" d="m75.8 5c0 0-14 10.1-14.6 14.1-0.6 4-6.3 14.4-7.3 14.4-1 0-9.4-2.9-17.8 8.2-8.4 11.1-12.3 17.4-11.1 20.1 1.3 2.7 2.1 10.4 2.1 10.4 0 0-9.4-11.1-12.8-7.7-3.3 3.3-1.8 11.5 1.3 14.4 3.1 3 2.7 7.8 3.8 14.1 1 6.2 2.9 16.3 10.4 27.8 7.6 11.5 24.3 3.3 26 1.9 1.7-1.5 23.4-112.4 23.4-112.4z"/><path fill-rule="evenodd" class="pistol_b" d="m30.1 86.2c-9.9-3.6-17.7-12.8-17.5-19.5 0.2-4.3 6.2-3.5 7.3-2.6 5.1 3.9 12 12.5 12 12.5z"/><path fill-rule="evenodd" class="pistol_c" d="m13.9 65.9c4.5 4.9 9.6 4 9.4 2.5-0.3-2.3-3.8-4.4-5.5-4.8-2.2-0.4-4.8 1.3-3.9 2.3z"/><path fill-rule="evenodd" class="pistol_d" d="m13.6 66.9c-1.9 5.5 7.6 14.7 11.3 16.3 3.8 1.5 3.2-5.3 0.5-8-2.6-2.6-11.4-9.1-11.8-8.3z"/><path fill-rule="evenodd" class="pistol_c" d="m15.7 63.8c-2.8 1.4 4.7 2.6 5.4 2 0.8-0.7-3.4-3-5.4-2z"/><path fill-rule="evenodd" class="pistol_d" d="m16 68.9c0.9-0.5 7.4 3.8 7.2 4.9-0.2 1.6-3.6 2.6-4.8 1.7-1.3-1-4-5.7-2.4-6.6z"/><path fill-rule="evenodd" class="pistol_e" d="m76.5 78.2c-1.8 2.6-5.1 10.8-8.7 18.2-1.2 2.3-0.8 14.3-3.9 19.6-5.5 9.2-21 12.3-27.7 6.2-7.7-7.1-14.1-27.3-14.2-35.3-0.1-10.8 12.6-33.2 19-35.3 5.2-1.8 41.7 17.9 35.5 26.6z"/><path fill-rule="evenodd" class="pistol_f" d="m28.2 70.4c0.1 17.9 15.3 33.7 22 33.3 6.7-0.4 15.4-5.7 18.3-11.8 2.9-6-14.5-27.2-25.8-30.8-11.4-3.6-14.5 5.5-14.5 9.3z"/><path fill-rule="evenodd" class="pistol_g" d="m64.1 93.7c-1.3-3.1-10.1-1.6-8.2 2.3 1.7 3.3 0.4 6.6 0.1 6.9-1.6 1.9-0.4 5.8 1.4 6.7 1.4 0.6 4.6-1.6 6-4.1 1.3-1.6 3.5-5.4 0.7-11.8z"/><path fill-rule="evenodd" class="pistol_h" d="m60 103c3.2 0.5 3.7-0.1 4.1 0.9 0.4 1-2 4-2.4 4.8 0 0-0.6 3.6-3.1 4.5-2.6 0.8-5.9-5.8-3.5-9.1 0 0 1.1-1.5 1.4-2.4 0 0-5.8 4.9-14.6-1.1-8.8-6-14.5-25.6-13.7-30.8 0.8-5.2 4.3-14.4 18.5-5.8 14.2 8.7 23.5 19.8 18.4 31.9 0 0-1.5 4.3-3.9 1.9-1.6-1.6-1.7 5.1-1.2 5.2z"/><path fill-rule="evenodd" class="pistol_i" d="m42.9 38.7c-3.1 1.3-14.8 16.6-15.2 19.2-4.7 27.7 30.7 51.4 50.1 31 1-1.1 6.8-11.6 7.9-14.4 6.2-16.2-15.2-47.1-42.8-35.8z"/><path fill-rule="evenodd" class="pistol_j" d="m75.8 44.3c11.5 10.5 14.9 25.5 7.6 33.5-7.3 8-22.5 6-34-4.5-11.6-10.4-15-25.4-7.7-33.5 7.3-8 22.6-6 34.1 4.5z"/><path fill-rule="evenodd" class="pistol_k" d="m49.2 41.3c4.5-5.5 15-19.7 28.6-30.8 9.3-7.6 32.1 19.2 30.6 22.8-7 16.4-26.7 38.4-28.3 39.8-4.4 3.5-19 3.4-28.3-10.2-8-11.7-4.8-18.8-2.6-21.6z"/><path fill-rule="evenodd" class="pistol_f" d="m64.3 24c-9.3 11.6 2.5 40 19.6 38.5 8.8-0.8 13.5-10.3 14-13.1 1.4-9.7-29.7-30.3-33.6-25.4z"/><path fill-rule="evenodd" class="pistol_l" d="m77.9 3c-4.4 2-13.6 15-13.9 17.2-4 23.3 25.8 43.4 42.2 26.1 0.9-0.9 5.8-9.8 6.7-12.1 5.2-13.7-14.9-39.9-35-31.2z"/><path fill-rule="evenodd" class="pistol_m" d="m104.5 8.7c9.7 8.8 12.6 21.5 6.5 28.3-6.2 6.7-19.1 5-28.8-3.8-9.7-8.8-12.6-21.5-6.4-28.2 6.1-6.8 19-5.1 28.7 3.7z"/><path fill-rule="evenodd" class="pistol_n" d="m100.2 13.5c5.9 5.4 7.7 13.1 3.9 17.2-3.7 4.2-11.6 3.1-17.5-2.3-6-5.4-7.7-13.1-4-17.2 3.8-4.1 11.6-3.1 17.6 2.3z"/><path fill-rule="evenodd" class="pistol_d" d="m39.1 123.6c3.9 2 10.4-6 9.7-7.4-2.4-4.9-16.1-26.2-17.9-27.4-2.6-1.8-6.1 8.8-5.6 10.8 1.8 8.6 7.4 20.8 13.8 24z"/><path fill-rule="evenodd" class="pistol_f" d="m63.9 116c-1.2-1.8-12.4-0.2-14.9 1.8-2.6 2-8.2 5.6-6.7 6.5 1.5 0.9 5 1.3 11.2-0.9 6.2-2.1 11-6.5 10.4-7.4z"/><path fill-rule="evenodd" class="pistol_h" d="m48.1 93.1c4.1 1.3 7.8-13.6 5.4-15.8-6.6-6.2-10.5-10.6-12-11.3-2.4-1.1-11.3 8.1-10 11.1 2.3 5.7 9.5 13.7 16.6 16z"/><path fill-rule="evenodd" class="pistol_h" d="m88.5 43.5c-4.7-8.1-14.4-19.4-15.4-19.6-3.2-0.5-9.7 1.5-8.4 7 2.9 11.7 15.1 19.8 18.6 19.2 1.9-0.4 6-5.2 5.2-6.6z"/><path fill-rule="evenodd" class="pistol_o" d="m93.7 24.7c9.4 0.7 15.2-2.3 5.2-13.6-5.8-6.6-12.7-5.4-15.6-2.9-4.7 3.9-5.9 15.2 10.4 16.5z"/><path fill-rule="evenodd" class="pistol_d" d="m58.9 103.7c-1 0.8-2.2 4.2-2.1 6 0.2 1.7 2.9 2 7.2-5 0.8-1.3-3.1-2.6-5.1-1z"/><path fill-rule="evenodd" class="pistol_c" d="m53.4 76c-6.5-3.4-16.4-15-14.3-27.1 2-12.1 8.8-8.2 8.2-4.8-0.6 3.5-3.3 13.7 13.1 28.9 3.4 3.2-3.2 5-7 3z"/><path fill-rule="evenodd" class="pistol_d" d="m59.6 96.5c2.2 3.9 5.5 1.2 5.5-0.6 0 0-1.4 0.6-3.2 0.7-1.8 0.1-2.3-0.1-2.3-0.1z"/><path fill-rule="evenodd" class="pistol_p" d="m57.3 80.2c-2.4 1.8-7.2 13-5.3 14.3 1.9 1.3 9.9 3.3 18.7-0.9 8.8-4.3 10.8-12.5 10.2-12.6-0.6 0-1.9 2.3-10 2.3-6.3 0-12.4-4-13.6-3.1z"/><path fill-rule="evenodd" class="pistol_q" d="m52.5 76.1c-0.2 9.6 8.4 5.1 8.4 4.4 0-3.2-8.4-5.8-8.4-4.4z"/><path fill-rule="evenodd" class="pistol_r" d="m72.8 13.8c-3.5-0.2-2.8 11.2 1.8 10.2 4.6-0.9 2.4-9.9-1.8-10.2z"/><path fill-rule="evenodd" class="pistol_s" d="m76.6 21.3c-1.6-4-5.1-3.1-4.9 0 0.2 3.1 2.1 3.3 3.6 2.6 1.4-0.7 1.6-1.6 1.3-2.6z"/><path fill-rule="evenodd" class="pistol_s" d="m59.3 81.4c0.2-2.1-6.2-4.2-6.5-2.7-0.3 1.4 1.7 3.5 3.6 3.4 1.9 0 2.8-0.1 2.9-0.7z"/><path fill-rule="evenodd" class="pistol_d" d="m83.7 53.7c-18.1-13.4-27.2 11.2-27.1 14.2 0.3 7.7 6.8 16 18.9 14.1 12.9-2.1 13.6-24.3 8.2-28.3z"/><path fill-rule="evenodd" class="pistol_p" d="m47.9 47.6c-1.4 8 11.4-9.4 11.6-13 0.1-3.6-9.8 2.4-11.6 13z"/><path fill-rule="evenodd" class="pistol_p" d="m29.2 86.7c-1 4.1-4.2 10-4.9 9.2-0.6-0.7-2.2-5.3-1.9-11.3 0.4-6.1 3.1-8 4.4-6.4 1.3 1.6 2.9 6.3 2.4 8.5z"/><path fill-rule="evenodd" class="pistol_t" d="m48 114.8c-0.6 1.4-0.5 3.6 0.4 3.5 1-0.1 6-1.4 5.6-2.4-0.5-1-5.3-2.6-6-1.1z"/><path fill-rule="evenodd" class="pistol_p" d="m108.5 40.6c0.1-1.4-11 2.5-17.6 3.4-1.8 0.3-7.3 6.6-6.2 7.5 1.1 0.9 6.1 2.7 13.8-0.6 4.4-1.8 9.9-6.6 10-10.3z"/><path fill-rule="evenodd" class="pistol_p" d="m35.3 53.5c-6.4 2.9-7.7 7.3-7.7 9.5 0 2.2 1.7 9.1 2.1 9.2 0.3 0.1 9-8 9-10.7 0-2.8-1.6-8.9-3.4-8z"/><path fill-rule="evenodd" class="pistol_p" d="m68.6 13.4c-2.1 2.3-4.4 6.5-4.3 9.9 0.1 3.5 3.5 0.7 4.3-0.5 0.8-1.2 2.9-12.3 0-9.4z"/><path fill-rule="evenodd" class="pistol_u" d="m84.3 34.7c-1.5-0.1 4.2 9.1 6.5 8.9 2.2-0.3 8.6-1.8 8.1-2.4-4.5-4.9-10.7-6.3-14.6-6.5z"/><path fill-rule="evenodd" class="pistol_v" d="m98.9 37.4c4.7 2.8 13.7-0.7 14.6-8.9 1-8.3-4.6-15.1-7.5-13.8-2.9 1.3 1.1 7.6 0.8 10.7-0.3 3.2-1.6 6.6-5.9 8.2-4.2 1.6-3.5 2.8-2 3.8z"/><path fill-rule="evenodd" class="pistol_v" d="m96.1 7.3c-5.3-1.6-11.7-2.2-16.9 3-5.2 5.2-5.5-3.4-2.1-6 3.3-2.6 7.6-4.3 13-2.8 5.5 1.4 9.6 6.9 6 5.8z"/><path fill-rule="evenodd" class="pistol_w" d="m44.2 65.4c9.6-6-2.2-21.4-4.3-19.4-2 2.1-2.5 8.7 0.1 13.7 2.7 4.9 3.4 6.2 4.2 5.7z"/><path fill-rule="evenodd" class="pistol_w" d="m77.1 5.1c2.2 5.8 7.8-0.5 6.2-2.9-0.8-1.2-7 0.9-6.2 2.9z"/><path fill-rule="evenodd" class="pistol_x" d="m39.2 108.5c-8.3-1.4-9.1 9.3-0.6 10.9 8.5 1.5 7-9.8 0.6-10.9z"/><path fill-rule="evenodd" class="pistol_y" d="m43.1 117.3c-2.9 2.7-8.6 1.4-9.5-4.1-0.5-3.6 5-4.7 7.1-3.2 3 2.2 3.6 6.2 2.4 7.3z"/><path fill-rule="evenodd" class="pistol_z" d="m43 116.6c-0.9 0.6-3 0.2-4.2-0.9-0.7-0.7-3.4-5.1-1.9-5.9 4.5-2.1 8.2 5.4 6.1 6.8z"/><path fill-rule="evenodd" class="pistol_A" d="m35.8 110.8c4.2 6.1 2.7 7.8 1 7.2-1.7-0.6-3-3.4-3.2-4.8-0.2-1.5 1.2-3.7 2.2-2.4z"/><path fill-rule="evenodd" class="pistol_z" d="m36.9 109.8c3.3-1.1 3.6 5.3 1.8 4.6-1.9-0.8-2.6-4.3-1.8-4.6z"/><path fill-rule="evenodd" class="pistol_o" d="m36.8 108.4c0 0 2.4 0.4 4.5 4.6 2 4.3 0.3 6.3 0.3 6.3 0 0 3.5-0.6 2.8-5.3-0.7-4.7-5.1-5.7-5.9-5.7-0.7 0.1-1.7 0.1-1.7 0.1z"/></svg>