<svg version="1.2" xmlns="http://www.w3.org/2000/svg" viewBox="0 0 128 128" width="128" height="128"><defs><linearGradient id="ruby_P" gradientUnits="userSpaceOnUse"/><linearGradient id="ruby_g1" x2="1" href="#ruby_P" gradientTransform="matrix(-58.685,-263.195,457.581,-102.028,-13.362,179.46)"><stop stop-color="#ff0c02"/><stop offset=".56" stop-color="#9815ff"/><stop offset="1" stop-color="#e90df4"/></linearGradient><linearGradient id="ruby_g2" x2="1" href="#ruby_P" gradientTransform="matrix(150.474,218.974,-673.235,462.632,118.349,-68.82)"><stop stop-color="#ff0c02"/><stop offset=".56" stop-color="#9815ff"/><stop offset="1" stop-color="#e90df4"/></linearGradient><linearGradient id="ruby_g3" x2="1" href="#ruby_P" gradientTransform="matrix(-58.688,-132.632,358.294,-158.542,70.964,196.215)"><stop offset=".02" stop-color="#ff2cfe"/><stop offset="1"/></linearGradient><linearGradient id="ruby_g4" x2="1" href="#ruby_P" gradientTransform="matrix(-30.705,-55.297,54.847,-30.455,42.768,133.884)"><stop stop-color="#3663f4"/><stop offset=".99"/></linearGradient><linearGradient id="ruby_g5" x2="1" href="#ruby_P" gradientTransform="matrix(99.549,-49.341,108.595,219.097,-22.389,10.728)"><stop stop-color="#3663f4"/><stop offset=".99"/></linearGradient><linearGradient id="ruby_g6" x2="1" href="#ruby_P" gradientTransform="matrix(-34.1,-66.669,81.442,-41.656,50.239,128.094)"><stop stop-color="#3663f4"/><stop offset=".99"/></linearGradient><radialGradient id="ruby_g7" cx="0" cy="0" r="1" href="#ruby_P" gradientTransform="matrix(16.546,3.243,-3.523,17.975,69.019,61.733)"><stop stop-color="#3600ac"/><stop offset=".99"/></radialGradient><radialGradient id="ruby_g8" cx="0" cy="0" r="1" href="#ruby_P" gradientTransform="matrix(16.746,3.282,-8.341,42.559,62.188,73.425)"><stop stop-color="#3600ac"/><stop offset=".99"/></radialGradient></defs><style>.ruby_a{fill:url(#ruby_g1)}.ruby_b{fill:#890086}.ruby_c{fill:#fff}.ruby_d{fill:url(#ruby_g2)}.ruby_e{mix-blend-mode:screen;fill:url(#ruby_g3)}.ruby_f{opacity:.5;mix-blend-mode:multiply;fill:#960066}.ruby_g{mix-blend-mode:screen;fill:#ff007c}.ruby_h{opacity:.9;mix-blend-mode:screen;fill:#ff556e}.ruby_i{mix-blend-mode:color-dodge;fill:url(#ruby_g4)}.ruby_j{mix-blend-mode:screen;fill:#ffc098}.ruby_k{mix-blend-mode:color-dodge;fill:url(#ruby_g5)}.ruby_l{mix-blend-mode:color-dodge;fill:url(#ruby_g6)}.ruby_m{mix-blend-mode:color-dodge;fill:url(#ruby_g7)}.ruby_n{mix-blend-mode:color-dodge;fill:url(#ruby_g8)}</style><path fill-rule="evenodd" class="ruby_a" d="m99.2 55.2l-32.3 58.8h-0.9l-18.8-0.3-16.5-5.6h-0.2l15-88.8 34.6-3.2 5.2-0.5 4.5 12.8z"/><g style="opacity:.7;mix-blend-mode:multiply"><path fill-rule="evenodd" class="ruby_b" d="m99.2 55.2l-32.3 58.8h-0.9l-18.8-0.3-16.5-5.6h-0.2l15-88.8 22.4 41.8 9.9 6.4 6.4-3.6z"/></g><path fill-rule="evenodd" class="ruby_c" d="m89.8 28.4l-9.7-12.4 5.2-0.4z"/><g style="opacity:.7;mix-blend-mode:multiply"><path fill-rule="evenodd" class="ruby_b" d="m99.2 55.2l-32.3 58.8h-0.9l11.8-46.5 6.4-3.6z"/></g><path fill-rule="evenodd" class="ruby_d" d="m67.9 61.1c0 0-16 40.7-20.7 52.6l-16.5-5.6 14.8-88.8 22.4 41.8z"/><path fill-rule="evenodd" class="ruby_e" d="m90.6 62.3c-15.7 9.6-19.2 34.4-19 37.7 0.1 3.3 21.6-32.9 21.7-34.6 0.1-1.7-2.7-3.1-2.7-3.1z"/><path fill-rule="evenodd" class="ruby_f" d="m45.9 29.8c16.5-20.2 35.7 3.9 40.2 11.7 4 6.9 2.7 18.9-14.9 37.3-18.6 19.4-18.6 30-20.7 31.5-2.2 1.6-13.5-6.7-12.8-25.4 0.8-21.2 8.2-55.1 8.2-55.1z"/><path fill-rule="evenodd" class="ruby_c" d="m84.3 63.9l-18.3-7.4 1.9 4.6 9.9 6.5z"/><path fill-rule="evenodd" class="ruby_g" d="m58.6 20.3c-11.8 3.2-13.8 22.2-11.5 24.2 2.2 1.9 13.5-10.5 12.5-15.8-1.1-5.6-1-8.4-1-8.4z"/><path fill-rule="evenodd" class="ruby_g" d="m87.2 36.7c-0.1 5.2 2.8 7.7 2.2 5.1-0.5-2.7-2.2-5.1-2.2-5.1z"/><path fill-rule="evenodd" class="ruby_g" d="m74.8 85c-3.3 6.2-4.2 13.1-1.2 10.3 2.8-2.7 1.2-10.3 1.2-10.3z"/><path fill-rule="evenodd" class="ruby_g" d="m67.7 87.1c-0.6 2.8 0.4 3.9 0.9 2.1 0.6-1.8-0.9-2.1-0.9-2.1z"/><path fill-rule="evenodd" class="ruby_f" d="m47.5 109.2c7.8-12.1-2.5-25.4-4.1-26.4-1.7-1-6.3 13.4-1.4 19.8 4.4 5.9 5.5 6.6 5.5 6.6z"/><path fill-rule="evenodd" class="ruby_h" d="m45.5 19.3l22.4 41.8 9.9 6.5 21.4-12.4-13.9-39.6z"/><path fill-rule="evenodd" class="ruby_i" d="m37.6 67.9c-4.9 30.7 7.6 41.3 9.4 41.6 1.7 0.3 9.2-17.3 9.2-17.3 0 0-5.8 13.6 1.8 17 6.8 3.1 8.7-3 8.8-3.3 0.1-0.4 9.4-8.7 9.4-8.7l-9.3 16.8-19.7-0.3-16.5-5.6z"/><path fill-rule="evenodd" class="ruby_f" d="m96.6 47.8c1.7 8.4-2.8 10.2-2.8 10.2 0 0 5.5-2.1 5.4-2.8-0.1-0.6-2.6-7.4-2.6-7.4z"/><path fill-rule="evenodd" class="ruby_j" d="m36.1 85.7c0 16.8 13 24.8 7.4 25-6 0.1-11-2.7-11.7-4.3-0.7-1.7 4.3-20.7 4.3-20.7z"/><path fill-rule="evenodd" class="ruby_k" d="m57.6 41.2c7.7 26.3 14.3 49.8 16 54.6 1.6 4.5-4.9 14.9-4.9 14.9 0 0 6.5-13.2 9.5-18 2.9-4.8-9.2-32.9-13-39.8-4.2-7.6 24.6-11.5 23.8-0.7-0.7 10.1 10.2 5.3 5.9-8.8-5.1-16.8-28.4-25.9-24.4-17.1 3.7 8.1-12.9 14.9-12.9 14.9z"/><path fill-rule="evenodd" class="ruby_l" d="m66 114l5-20c0 0-4.5 15.4-6.4 14.7-2-0.8 1.3-12.3-3.7-14.8-5.4-2.6-13.7 19.8-13.7 19.8z"/><path fill-rule="evenodd" class="ruby_j" d="m48.9 112.7c5.4-2.3 4.4-11.3 3.1-10.2-1.3 1.1-4.3 10.3-4.3 10.3z"/><path fill-rule="evenodd" class="ruby_j" d="m52.6 18.1c-4.1 2.8-3 9.3-3 9.3l-4.1-8.1z"/><path fill-rule="evenodd" class="ruby_m" d="m83.9 70c-3.3 7.9-12.1 11.7-20.2 8.5-8.9-3.6-13.9-14.2-10.5-23.6 3.6-9.7 14.2-13.2 22.9-8 7.9 4.7 11.1 15 7.8 23.1z"/><path fill-rule="evenodd" class="ruby_n" d="m76.8 82.5c-7.3 17.8-19.4 30.2-27.8 28.3-9.1-2.1-11.3-20.1-3.7-41.2 8.1-22.3 22.8-36.4 31.6-30.8 8.1 5.2 7.6 24.9-0.1 43.7z"/></svg>