<svg version="1.2" xmlns="http://www.w3.org/2000/svg" viewBox="0 0 128 128" width="128" height="128"><defs><linearGradient id="P" gradientUnits="userSpaceOnUse"/><linearGradient id="g1" x2="1" href="#P" gradientTransform="matrix(-12.594,45.377,25.017,1.33,34.589,9.837)"><stop stop-color="#f7e2d1"/><stop offset="1" stop-color="#a58caf"/></linearGradient><linearGradient id="g2" x2="1" href="#P" gradientTransform="matrix(9.613,-47.099,-61.556,1.836,75.118,88.635)"><stop stop-color="#ecbeba"/><stop offset="1" stop-color="#674d7e"/></linearGradient><linearGradient id="g3" x2="1" href="#P" gradientTransform="matrix(-44.721,1.334,-16.199,79.373,55.681,26.254)"><stop stop-color="#8b6d9d"/><stop offset="1" stop-color="#705c96"/></linearGradient><linearGradient id="g4" x2="1" href="#P" gradientTransform="matrix(-2.678,4.104,5.497,2.925,24.196,28.479)"><stop stop-color="#67486a"/><stop offset="1" stop-color="#523b63"/></linearGradient><linearGradient id="g5" x2="1" href="#P" gradientTransform="matrix(-8.055,.24,-1.306,6.399,36.866,74.384)"><stop stop-color="#67486a"/><stop offset="1" stop-color="#523b63"/></linearGradient><linearGradient id="g6" x2="1" href="#P" gradientTransform="matrix(-90.092,-5.11,-2.348,41.386,119.036,87.448)"><stop stop-color="#ecbeba"/><stop offset=".85" stop-color="#705c96"/><stop offset="1" stop-color="#7e68ba"/></linearGradient><linearGradient id="g7" x2="1" href="#P" gradientTransform="matrix(-84.897,-4.816,-1.196,21.087,116.982,86.136)"><stop stop-color="#f7e2d1"/><stop offset="1" stop-color="#a58caf"/></linearGradient><radialGradient id="g8" cx="0" cy="0" r="1" href="#P" gradientTransform="matrix(-34.37,-1.95,-1.95,34.37,86.809,88.838)"><stop stop-color="#ca450e"/><stop offset="1" stop-color="#932b1d"/></radialGradient><linearGradient id="g9" x2="1" href="#P" gradientTransform="matrix(-10.204,-40.858,-19.755,4.933,94.327,103.757)"><stop stop-color="#fff"/><stop offset=".98" stop-color="#aa0038"/></linearGradient><linearGradient id="g10" x2="1" href="#P" gradientTransform="matrix(-87.768,-4.978,-2.601,45.847,124.256,29.932)"><stop stop-color="#ecbeba"/><stop offset=".85" stop-color="#705c96"/><stop offset="1" stop-color="#7e68ba"/></linearGradient><linearGradient id="g11" x2="1" href="#P" gradientTransform="matrix(87.768,4.978,1.39,-24.506,35.123,49.006)"><stop stop-color="#a58caf"/><stop offset="1" stop-color="#f7e2d1"/></linearGradient><linearGradient id="g12" x2="1" href="#P" gradientTransform="matrix(3.231,-5.405,-5.425,-3.243,115.841,41.134)"><stop stop-color="#ffb6ca"/><stop offset="1" stop-color="#ffddc7"/></linearGradient><linearGradient id="g13" x2="1" href="#P" gradientTransform="matrix(13.443,-44.573,-27.495,-8.292,85.536,58.109)"><stop stop-color="#ffb6ca"/><stop offset="1" stop-color="#ffddc7"/></linearGradient><radialGradient id="g14" cx="0" cy="0" r="1" href="#P" gradientTransform="matrix(-28.023,-1.59,-1.682,29.649,69.801,45.213)"><stop offset=".02" stop-color="#9738aa"/><stop offset="1" stop-color="#fff"/></radialGradient><linearGradient id="g15" x2="1" href="#P" gradientTransform="matrix(-0.165,2.901,33.825,1.919,37.67,18.603)"><stop stop-color="#fff"/><stop offset=".98" stop-color="#9738aa"/></linearGradient><radialGradient id="g16" cx="0" cy="0" r="1" href="#P" gradientTransform="matrix(-22.615,-1.283,-1.357,23.928,61.757,32.907)"><stop stop-color="#fff"/><stop offset=".98" stop-color="#9738aa"/></radialGradient><linearGradient id="g17" x2="1" href="#P" gradientTransform="matrix(1.606,-28.31,-63.202,-3.585,92.21,31.331)"><stop stop-color="#0ff"/><stop offset=".99"/></linearGradient><linearGradient id="g18" x2="1" href="#P" gradientTransform="matrix(1.185,-20.896,-41.031,-2.327,109.651,40.316)"><stop stop-color="#0ff"/><stop offset=".99"/></linearGradient><linearGradient id="g19" x2="1" href="#P" gradientTransform="matrix(2.34,-3.914,-4.051,-2.422,49.279,46.034)"><stop stop-color="#ffb6ca"/><stop offset="1" stop-color="#ffddc7"/></linearGradient><linearGradient id="g20" x2="1" href="#P" gradientTransform="matrix(-0.128,-17.39,-12.248,.09,96.758,49.337)"><stop stop-color="#ffb6ca"/><stop offset="1" stop-color="#ffddc7"/></linearGradient><linearGradient id="g21" x2="1" href="#P" gradientTransform="matrix(.934,-16.462,-6.708,-0.381,86.805,49.327)"><stop offset=".02" stop-color="#9738aa"/><stop offset="1" stop-color="#fff"/></linearGradient><linearGradient id="g22" x2="1" href="#P" gradientTransform="matrix(-9.506,-4.326,-2.364,12.046,59.682,51.972)"><stop stop-color="#a183a4"/><stop offset="1" stop-color="#8a709d"/></linearGradient><linearGradient id="g23" x2="1" href="#P" gradientTransform="matrix(2.055,-8.451,-2.163,-1.148,51.555,67.783)"><stop stop-color="#a58caf"/><stop offset="1" stop-color="#f7e2d1"/></linearGradient><linearGradient id="g24" x2="1" href="#P" gradientTransform="matrix(-10.337,4.234,5.054,12.339,101.933,49.983)"><stop stop-color="#a183a4"/><stop offset="1" stop-color="#8a709d"/></linearGradient><linearGradient id="g25" x2="1" href="#P" gradientTransform="matrix(-1.985,-8.468,2.173,-1.13,101.68,73.285)"><stop stop-color="#a58caf"/><stop offset="1" stop-color="#f7e2d1"/></linearGradient><linearGradient id="g26" x2="1" href="#P" gradientTransform="matrix(-9.506,-4.326,-2.364,12.046,53.235,105.447)"><stop stop-color="#a183a4"/><stop offset="1" stop-color="#8a709d"/></linearGradient><linearGradient id="g27" x2="1" href="#P" gradientTransform="matrix(2.055,-8.451,-2.163,-1.148,45.108,121.258)"><stop stop-color="#a58caf"/><stop offset="1" stop-color="#f7e2d1"/></linearGradient><linearGradient id="g28" x2="1" href="#P" gradientTransform="matrix(-8.56,-5.984,-4.517,11.414,102.937,110.706)"><stop stop-color="#a183a4"/><stop offset="1" stop-color="#8a709d"/></linearGradient><linearGradient id="g29" x2="1" href="#P" gradientTransform="matrix(-3.447,-7.985,1.939,-1.495,101.194,124.838)"><stop stop-color="#a58caf"/><stop offset="1" stop-color="#f7e2d1"/></linearGradient><linearGradient id="g30" x2="1" href="#P" gradientTransform="matrix(19.29,5.246,10.652,-40.749,38.926,89.553)"><stop stop-color="#8c50e6"/><stop offset=".48"/></linearGradient></defs><style>.a{fill:#b1cffc}.b{fill:url(#g1)}.c{opacity:.3;mix-blend-mode:soft-light;fill:#fffee0}.d{fill:url(#g2)}.e{fill:url(#g3)}.f{opacity:.3;mix-blend-mode:multiply;fill:#9265a4}.g{fill:url(#g4)}.h{opacity:.5;mix-blend-mode:multiply;fill:#923c8e}.i{fill:#d7baca}.j{opacity:.5;mix-blend-mode:soft-light;fill:#92ffff}.k{opacity:.5;mix-blend-mode:soft-light;fill:#fffee0}.l{opacity:.3;mix-blend-mode:multiply;fill:#6d0081}.m{opacity:.4;mix-blend-mode:multiply;fill:#9265a4}.n{fill:url(#g5)}.o{fill:url(#g6)}.p{fill:url(#g7)}.q{fill:url(#g8)}.r{opacity:.7;mix-blend-mode:multiply;fill:#b10053}.s{opacity:.6;mix-blend-mode:multiply;fill:url(#g9)}.t{fill:url(#g10)}.u{fill:url(#g11)}.v{fill:#48385c}.w{fill:url(#g12)}.x{fill:url(#g13)}.y{opacity:.3;mix-blend-mode:multiply;fill:url(#g14)}.z{opacity:.3;mix-blend-mode:multiply;fill:url(#g15)}.A{opacity:.3;mix-blend-mode:multiply;fill:url(#g16)}.B{fill:#fff}.C{opacity:.3;mix-blend-mode:color-dodge;fill:url(#g17)}.D{opacity:.3;mix-blend-mode:color-dodge;fill:url(#g18)}.E{fill:url(#g19)}.F{fill:url(#g20)}.G{opacity:.6;mix-blend-mode:multiply;fill:url(#g21)}.H{opacity:.2;mix-blend-mode:multiply;fill:#ab2781}.I{fill:#fffee0}.J{mix-blend-mode:multiply;fill:#ab6377}.K{fill:url(#g22)}.L{opacity:.6;mix-blend-mode:soft-light;fill:#d2ebef}.M{opacity:.4;mix-blend-mode:multiply;fill:#594275}.N{fill:url(#g23)}.O{fill:url(#g24)}.P{fill:url(#g25)}.Q{fill:url(#g26)}.R{fill:url(#g27)}.S{fill:url(#g28)}.T{fill:url(#g29)}.U{opacity:.6;mix-blend-mode:soft-light;fill:#ffd8ba}.V{opacity:.5;mix-blend-mode:multiply;fill:#d42f55}.W{opacity:.5;mix-blend-mode:screen;fill:url(#g30)}.X{opacity:.5;mix-blend-mode:multiply;fill:#b10053}.Y{opacity:.2;mix-blend-mode:soft-light;fill:#fff}.Z{fill:#e26521}</style><path fill-rule="evenodd" class="a" d="m15.5 27.1c0 0-2.5 0.5-7 9.1-4.6 8.6-6.3 25.1-4.8 27.6 1.4 2.6 17.4 10.7 21.2 13.7 3.8 3.1 4 6.6 3 9.2-1.1 2.6-4.8 9.3-4.8 10.3 0.1 1.1 3.7 3.7 3.7 4.9-0.1 1.3-1 4.6-0.8 6.7 0.1 2 17.7 14.5 36.5 16.4l-24-50.9c0 0-10.3-7.4-14.6-25.7-4.3-18.3-8.4-21.3-8.4-21.3z"/><path fill-rule="evenodd" class="b" d="m59 43.8c-0.1-7-15.1-19.3-21.5-20.4-2.3-0.4-20.3 2.2-23.2 4.8 0 0 20.7 8.5 28.1 24.8z"/><path fill-rule="evenodd" class="c" d="m48.5 38.1c-6.3 3.4-28-10.4-25.8-11.4 2.2-1 11.2-3.6 16.2-1.7 5.1 1.9 15.5 9.9 9.6 13.1z"/><path fill-rule="evenodd" class="d" d="m30.7 40.5c-4.6 5.9-2 20 11.4 30.8 5.5 4.5 10 8.4 11.6 14.5 1.7 6.2-7.9 15.8-7.9 15.8l-9.2 2c0 0 5.7-15.2 0.7-20-4.7-4.6-20.8-13.3-22.2-32.3-1.4-18.9 9.3-16.2 9.3-16.2z"/><path fill-rule="evenodd" class="e" d="m14.3 28.2c-6.7 7.7-11 29.6-4.1 36.8 7 7.1 21.2 13.6 19.5 20.1-1.1 4.5-4.1 7.5-4.7 10.4-0.8 4.1 12.9 10.2 12.9 10.2l4-12.1c0 0 1-8.3-12.6-18.6-17.7-13.5-14.7-33.6-10-35.4 4.7-1.8 18.1 8.1 17.5 11-0.5 2.9-2 8.7 5.2 11.2 0 0 6-10.3 4.5-13.5-1.4-3.3-27.8-25.2-32.2-20.1z"/><path fill-rule="evenodd" class="f" d="m34.7 81.4c7.7 5.4-2.6 17.8-5.1 17.4-2.4-0.3-4-1.5-2.7-5.5 1.3-4 4.1-7.1 4.1-10-0.1-3 2.4-2.8 3.7-1.9z"/><path fill-rule="evenodd" class="f" d="m31.5 39.2c-2.6 2.5-9.6 0-12.6-0.8-6.6-2-7.7-13.9 2.9-9.2 4 1.8 12.7 7.1 9.7 10z"/><path fill-rule="evenodd" class="g" d="m23.2 30.4c3-2.3 6.4 0.8 5.2 3-1.2 2.2-9.1 0-5.2-3z"/><path fill-rule="evenodd" class="h" d="m26 29.7c4 1.2-1.6 3.9-3 3.3-1.4-0.6-0.7-2.3 0.6-2.9 1.4-0.7 1.8-0.5 2.4-0.4z"/><path fill-rule="evenodd" class="i" d="m24.6 33.9c2.1 0.8 3.9 0.2 4-1.4 0.1-1.6-4.8 1.1-4 1.4z"/><path fill-rule="evenodd" class="j" d="m14.3 28.2c-8 26.3 3.7 41.1 2.3 41.4-1.4 0.2-7-4.9-8.2-8.1-1.2-3.3-2.6-8-0.8-16.9 1.9-9 6.7-16.4 6.7-16.4z"/><path fill-rule="evenodd" class="k" d="m38.9 25c12.2 7.4 0 9-12.1 2.8-5.2-2.6 9.7-4.3 12.1-2.8z"/><path fill-rule="evenodd" class="l" d="m40.9 45.1c-6.1 4.4-4.3 12.3-2.9 13.6 1.4 1.4 2-0.4 2.5-6.6 0.5-6.2 1.1-7.5 0.4-7z"/><path fill-rule="evenodd" class="m" d="m28.7 43c-1.4 13.5 6.1 20.1 4.6 21.1-2.4 1.5-13.2 1.8-16.1-7.4-3.6-11.4 0.9-17.7 4-17.4 3.1 0.3 7.6 2.9 7.5 3.7z"/><path fill-rule="evenodd" class="k" d="m24.4 67.7c6.9 8.6 14.8 13.4 15.7 12.3 1-1 3-6.3 1.5-7.7-1.5-1.4-5.6-6.4-8.6-6.9-3-0.6-10.5 0-8.6 2.3z"/><path fill-rule="evenodd" class="n" d="m35.3 80.8c-8.1 0-7.3-5.4-6-6.1 1.4-0.8 7.6 6.1 6 6.1z"/><path fill-rule="evenodd" class="o" d="m116.5 94.7c0 0-1.8 6.6 1.1 17.9 0 0-10.5 15.7-45.2 13.7-30.1-1.7-44.9-19.1-44.9-19.1 0 0 3-8.9 4.3-20.8 0 0 11.4-3.8 46.2-1.2 32.3 2.4 38.5 9.5 38.5 9.5z"/><path fill-rule="evenodd" class="p" d="m116.5 94.7c-33 23.1-79 2.3-84.7-8.3 0 0 15.1-5.2 46.7-2.3 31.6 2.9 38 10.6 38 10.6z"/><path fill-rule="evenodd" class="q" d="m38 88.1c0 0 1.7 2.1 6.1 4.7 2.3 1.3 5.5 2.8 9.6 4.2q0.5 0.2 1.1 0.3c4.1 1.3 9.2 2.4 15.3 3.1q0.4 0 0.8 0.1 0.6 0 1.2 0.1c8 0.7 14.7 0.3 20.1-0.5q0.6-0.1 1.2-0.3c11.6-2 17-6.3 17-6.3-0.5-3.7-0.7-7.3-0.8-10.6-0.4-10.9 0.6-18.8 0.6-18.8l-14.4-1.2-1.6-0.2-17.7-1.5-1.7-0.1-15.5-1.4-3.5-0.2-13.5-1.3c1.7 8.1-4.3 29.9-4.3 29.9z"/><path fill-rule="evenodd" class="r" d="m94.1 61.1q0 0.8 0.1 1.6c0.4 11.1-1.1 28.3-2 37.4q0.6-0.1 1.2-0.3c0.3-8.6 1.1-25.7 2.4-36.9 0.3-2.2 0.5-4.1 0.8-5.8 0 0-3.5-11.1-2.5 4z"/><path fill-rule="evenodd" class="r" d="m70.1 100.4q0.4 0 0.8 0.1 0.6 0 1.2 0.1c0.5-9.7 1.7-23.1 4.4-39.4q0.5-2.8 1.1-5.8l-3.2-1.4c0.3 1.7 0.4 4.1 0.4 7.1-0.2 10.4-2.7 27.3-4.7 39.3z"/><path fill-rule="evenodd" class="r" d="m53.7 97q0.5 0.2 1.1 0.3c0.9-9.1 2.4-23.2 4.5-37.6q0.4-3.2 1-6.5l-4.5 6.3-0.8 1.1c1.2 12.7-0.2 27.4-1.3 36.4z"/><path fill-rule="evenodd" class="s" d="m38 88.1c0 0 1.7 2.1 6.1 4.7 1.7-3.3 8-12.2 29.4-15.5 26.4-4 35.6 6.2 35.6 6.2l0.5-0.6c-0.4-10.9 0.6-18.8 0.6-18.8l-14.4-1.2-1.6-0.2-17.7-1.5-1.7-0.1-15.5-1.4-3.5-0.2-13.5-1.3c1.7 8.1-4.3 29.9-4.3 29.9z"/><path fill-rule="evenodd" class="t" d="m123.5 43.5c0 0-5.2 6.5-7.5 23.9 0 0-3.5 7.9-38.6 5.9-35.1-2-41.1-18.2-41.1-18.2 0 0 1.1-10.4-0.3-21.1 0 0 15.2-11.3 48.8-5.6 33.5 5.7 38.7 15.1 38.7 15.1z"/><path fill-rule="evenodd" class="u" d="m123.5 43.5c0 0-18.8 11.8-48 7.4-29.2-4.3-39.5-16.9-39.5-16.9 0 0 15.2-11.2 48.4-6.3 33.1 4.9 39.1 15.8 39.1 15.8z"/><path fill-rule="evenodd" class="v" d="m112.7 40.7c3.8 2.3-46 10.7-69.9-7.4-1.5-1.1 38-12.3 69.9 7.4z"/><path fill-rule="evenodd" class="w" d="m120 27.3c1.8 8.8-10.4 8.1-10.7 2.2-0.4-9.4 9.8-7.3 10.7-2.2z"/><path fill-rule="evenodd" class="x" d="m43.8 31.8c0.7 1.6 1.3 2.7 1.3 2.7 0 0 5.5 5.3 21.5 8.4q1.7 0.4 3.5 0.7 2.8 0.4 5.9 0.8 2.5 0.2 4.8 0.4c10.8 0.8 18.6 0.1 23.4-0.8 4.1-0.7 6.2-1.6 6.2-1.6 1.1-2.9 1.5-5.7 1.3-8.3-0.6-9.7-9.1-16-14.6-16.3-6.9-0.4-10.2 5.5-10.2 5.5 0 0 0.1-1.3-0.1-3.4-0.4-6-2.8-18.1-14.6-19.1-5.1-0.4-8.7 1.4-11.3 4-5.5 5.6-6.4 14.8-6.4 14.8v-0.4c0-1.2-3.1-5.8-8.3-3.9-2.7 1-3.9 4.8-4.2 7.1-0.4 3.2 0.8 6.9 1.8 9.4z"/><path fill-rule="evenodd" class="y" d="m45.1 34.5c0 0 6.9-8.2 15.1-3.1 8.2 5.2 6.6 10.9 6.6 10.9l-0.2 0.6q1.7 0.4 3.5 0.7c-4.5-7 5.7-16.7 11.1-9.7 5.5 7-0.6 10.7-0.6 10.7l0.2 0.2c20 1.5 29.6-2.4 29.6-2.4 1.1-2.9 1.5-5.7 1.3-8.3-2.4 21.6-26.6 2.4-24.8-10.8 0 0 0.1-1.3-0.1-3.4 0 0-1.9 12.2-13.6 11-12.5-1.4-12.3-26.1-12.3-26.1-5.5 5.6-6.4 14.8-6.4 14.8 0 0 0.2 8.6-5.3 9.1-5.4 0.5-7.2-6.3-7.2-6.3-0.7 5.3 3.1 12.1 3.1 12.1z"/><path fill-rule="evenodd" class="z" d="m54.5 22.5c0.3-1.7 0-2.9 0-2.9-0.2 0.9-0.1 1.9 0 2.9z"/><path fill-rule="evenodd" class="A" d="m43.8 31.8c0.7 1.6 1.3 2.7 1.3 2.7 0 0 5.5 5.3 21.5 8.4q1.7 0.4 3.5 0.7 2.8 0.4 5.9 0.8 2.5 0.2 4.8 0.4c10.8 0.8 18.6 0.1 23.4-0.8l-0.5 0.1c-14 1.5-21.2-8.4-22.3-10 1.5 1.9 2.8 4.8 1.2 7-3.5 5.1-12.1-3-11.5-6.7 0 0 1.4-1.3 2.1-1.8-1.2 0.8-5.9 3.8-9.7 1.4 0 0 3.3 6.7-0.6 7.4-4.9 0.7-16.4-7.1-11.4-11.1 0 0 2.8-1.1 6.2-0.1 0 0-2.7-3.8-3.2-7.7-0.4 2.6-2.1 6.2-7.6 8.4q-1.6 0.6-3.1 0.9z"/><path fill-rule="evenodd" class="B" d="m106.7 29.1c-0.1 2.9-4.7 4.6-4.2 0.1 0.4-4.5 4.3-3 4.2-0.1z"/><path fill-rule="evenodd" class="B" d="m81.4 11.4c-0.5 3.7-3.3 1.8-3.4-1.2-0.2-3.1 4-3.1 3.4 1.2z"/><path fill-rule="evenodd" class="B" d="m79.7 37.4c0.3 2.5-4.1 2.3-3.3-0.2 0.8-2.5 2.9-2.6 3.3 0.2z"/><path fill-rule="evenodd" class="B" d="m61.9 35.9c0.3 2.5-4 2.3-3.2-0.2 0.8-2.5 2.8-2.6 3.2 0.2z"/><path fill-rule="evenodd" class="C" d="m61.3 7c-6.7 10.9 1.3 23.5-1.9 22.4-3.2-1-5.5-7.8-4.1-13.7 1.3-5.9 6.7-13 11.7-14 5.3-1-4.3 3.1-5.7 5.3z"/><path fill-rule="evenodd" class="D" d="m94.6 20.2c-9.3 7.1-4.5 18.6-5 18.9-0.4 0.4-6.3-2.6-5.3-8.7 1.1-6.2 4.8-9.9 8.2-11.2 3.5-1.4 3.9-0.4 2.1 1z"/><path fill-rule="evenodd" class="E" d="m51.7 40.1c-1.3 2.2-7.3-0.4-7.1-4.6 0.2-6.9 9.6 0.4 7.1 4.6z"/><path fill-rule="evenodd" class="F" d="m84.3 38.2q0.4 0.1 0.8 0.3 0.2-0.6 0.6-1.3 1.6-2.7 3.1-4.3 0 0 0 0c8.2-8.5 15.6 4.7 13.4 10.7q-0.1 0.4-0.3 0.8 0 0 0 0 0 0-0.1 0.1 0 0 0 0-0.1 0.2-0.4 0.7-0.1 0.1-0.2 0.2-0.1 0.2-0.3 0.4c-1.6 1.9-4.3 2.9-7 2.7-2.7-0.1-5.3-1-7-2.4-0.6 1.1-1.5 1.9-2.8 1.9-3.7 0-6.8-0.6-7.7-3.4q-0.2-0.7-0.2-1.6c0-3.5 6.4-5.4 8.1-4.8z"/><path fill-rule="evenodd" class="G" d="m65.7 42.8c0 0 1.2 1.9 5.7 3.3 3.6 1.1 10.6 1.8 10.6 1.8 0 0 4.2 1.8 9.5 1.6 5.3-0.2 8.1-2.1 9.4-3.7q0.2-0.2 0.3-0.4 0.1-0.1 0.2-0.2 0.3-0.5 0.4-0.7c-0.3 0.5-1.3 2.3-5.5 2.3-5.8-0.1-10.6-7.1-7.5-13.9q-1.5 1.6-3.1 4.3-0.4 0.7-0.6 1.3c2.3 2.9 0 5.5-2 5.8-3.1 0.4-5.4-3.5-3.3-5q0.5-0.4 1-0.7c-2.2 0.8-4.6 2.3-4.6 4.4q0 0.9 0.2 1.6c-3.2-0.5-10.7-1.8-10.7-1.8z"/><path fill-rule="evenodd" class="H" d="m72.8 53.4c5.4 10.9-1 18-3.7 17.7-2.7-0.4-21.8-4-24.1-9.2-1.8-4.2-1.4-16.4 1.9-17.3 3.3-0.9 24.7 6.4 25.9 8.8z"/><path fill-rule="evenodd" class="j" d="m37.9 36.9c9.9 7.7 5.8 23.3 4.7 23.2-1.1-0.1-5.2-3.8-5.6-6.3-0.4-2.6-1.1-18.5 0.9-16.9z"/><path fill-rule="evenodd" class="H" d="m75.8 107.6c2.7 9.3-3 19-7.8 18.3-4.8-0.6-24.1-4.1-27.2-10.1-3.1-6-0.6-16.1 3.8-16.8 4.4-0.6 30.4 5.6 31.2 8.6z"/><path fill-rule="evenodd" class="j" d="m32.7 91.1c5.5 2.7 5.9 22.5 4 22.5-1.9-0.1-6.5-4.6-7-6.6-0.5-2 0.3-17.2 3-15.9z"/><path fill-rule="evenodd" class="c" d="m117.2 49.9c-1 15.4-1.8 15.2-7.3 18.9-5.5 3.6-24.6 4.3-27.8 0.6-3.2-3.8-4.2-12.2 1-14.9 5.3-2.6 34.3-8 34.1-4.6z"/><path fill-rule="evenodd" class="c" d="m113.3 98.9c0.6 13 2.7 13.7 0.2 16.6-2.5 3-23.4 9.4-28.7 8.4-5.4-1-3.9-16.7 0.5-17.3 4.4-0.7 27.9-11 28-7.7z"/><path fill-rule="evenodd" class="I" d="m117 46.6c5.1-2.2-16.1-1.3-17.5 1.4-1.4 2.7-1.1 3.3 1.7 2.9 2.8-0.5 13.7-3.4 15.8-4.3z"/><path fill-rule="evenodd" class="I" d="m110.9 98.2c-3.3-1.7-22.1 4-18.3 5.2 3.9 1.2 19.6-4.6 18.3-5.2z"/><path fill-rule="evenodd" class="I" d="m115.8 52.4c-7.6 7-1.6 13.4-0.6 10.6 1-2.7 4.3-14 0.6-10.6z"/><path fill-rule="evenodd" class="I" d="m113.5 101.4c-6.3 5.8-1.1 11.7 0.5 10.6 1.7-1.1 1.3-12.4-0.5-10.6z"/><path fill-rule="evenodd" class="J" d="m107.8 71.7c-31.8 41.9-62-6.9-62-6.9 0 0 17.7 7.7 36.8 8.6 21.4 1.1 25.2-1.7 25.2-1.7z"/><path fill-rule="evenodd" class="v" d="m60.1 55.2c0.2 10.3-12 11.1-12.3 0.6-0.3-10.6 12.2-8.5 12.3-0.6z"/><path fill-rule="evenodd" class="K" d="m58.8 53.7c0.8 5.8-3.3 10.9-8.4 6.9-3.2-2.5-1.4-9.6 1-10.6 3.3-1.5 7 1.4 7.4 3.7z"/><path fill-rule="evenodd" class="L" d="m58.1 53.3c0 1.6-1.4 3.5-2.8 3.8-1 0.2-6.2-0.8-6-3.2 0.5-6.8 8.7-4.2 8.8-0.6z"/><path fill-rule="evenodd" class="M" d="m49.6 56.1c7.2 0.8 8 3.9 6.6 5.3-1.5 1.3-4.5 0.3-5.8-0.8-1.4-1.1-2.5-4.6-0.8-4.5z"/><path fill-rule="evenodd" class="L" d="m52 55.8c2.8-5.9 6.2-0.9 4.7 0.5-1.6 1.4-5.2 0.6-4.7-0.5z"/><path fill-rule="evenodd" class="N" d="m57.3 62.1c0 0-2.1 3.1-5.1 1.7-4-1.8-4.1-5.6-4.1-5.6 0 0 1.9 4.5 5 5.1 3 0.5 4.2-1.2 4.2-1.2z"/><path fill-rule="evenodd" class="h" d="m59.8 58.2c0 0-0.3-4.6-4.7-7.2-4.5-2.6-6.8 1.1-6.8 1.1 0 0 1.4-4.3 6.5-3.4 5.1 1 5.6 6.5 5.4 7.4-0.2 0.9-0.4 2.1-0.4 2.1z"/><path fill-rule="evenodd" class="v" d="m93.2 60.6c-0.3 10.3 12 11.3 12.3 0.7 0.4-10.5-12.1-8.5-12.3-0.7z"/><path fill-rule="evenodd" class="O" d="m104.5 61c-1.2 5.7-6.8 9.1-10.2 3.5-2.1-3.5 2.1-9.5 4.6-9.6 3.7-0.2 6.2 3.8 5.6 6.1z"/><path fill-rule="evenodd" class="L" d="m104.1 60.4c-0.5 1.5-2.5 2.8-4 2.5-1-0.1-5.5-2.9-4.5-5 2.9-6.3 9.6-0.9 8.5 2.5z"/><path fill-rule="evenodd" class="M" d="m95.1 60c6.5 3.3 6.1 6.5 4.3 7.2-1.8 0.8-4.3-1.2-5.1-2.7-0.9-1.5-0.7-5.2 0.8-4.5z"/><path fill-rule="evenodd" class="L" d="m97.5 60.6c4.7-4.6 6.1 1.3 4.2 2.1-2 0.8-5-1.3-4.2-2.1z"/><path fill-rule="evenodd" class="P" d="m96 67.5c0 0 2.1 3.2 5.1 1.8 4-1.7 4.1-5.5 4.1-5.5 0 0-1.9 4.5-5 4.9-3.1 0.5-4.2-1.2-4.2-1.2z"/><path fill-rule="evenodd" class="h" d="m93.5 63.6c0 0 0.4-4.6 4.8-7.1 4.5-2.5 6.7 1.2 6.7 1.2 0 0-1.3-4.4-6.4-3.5-5.2 0.9-5.6 6.4-5.5 7.3 0.2 1 0.4 2.1 0.4 2.1z"/><path fill-rule="evenodd" class="v" d="m53.7 108.7c0.2 10.2-12.1 11.1-12.4 0.6-0.2-10.6 12.2-8.5 12.4-0.6z"/><path fill-rule="evenodd" class="Q" d="m52.3 107.2c0.8 5.8-3.2 10.9-8.3 6.9-3.3-2.6-1.4-9.7 0.9-10.7 3.4-1.4 7.1 1.5 7.4 3.8z"/><path fill-rule="evenodd" class="L" d="m51.7 106.7c0 1.6-1.4 3.6-2.9 3.9-0.9 0.2-6.1-0.8-5.9-3.2 0.4-6.8 8.6-4.2 8.8-0.7z"/><path fill-rule="evenodd" class="M" d="m43.1 109.6c7.3 0.7 8 3.9 6.6 5.2-1.4 1.4-4.4 0.3-5.7-0.7-1.4-1.1-2.5-4.7-0.9-4.5z"/><path fill-rule="evenodd" class="L" d="m45.6 109.3c2.7-6 6.2-0.9 4.6 0.5-1.5 1.4-5.1 0.6-4.6-0.5z"/><path fill-rule="evenodd" class="R" d="m50.9 115.5c0 0-2.2 3.2-5.2 1.8-4-1.8-4-5.6-4-5.6 0 0 1.8 4.5 4.9 5 3.1 0.5 4.3-1.2 4.3-1.2z"/><path fill-rule="evenodd" class="h" d="m53.3 111.7c0 0-0.3-4.7-4.7-7.2-4.4-2.6-6.7 1.1-6.7 1.1 0 0 1.3-4.3 6.5-3.4 5.1 0.9 5.5 6.4 5.3 7.4-0.1 0.9-0.4 2.1-0.4 2.1z"/><path fill-rule="evenodd" class="v" d="m90.5 113.9c1.5 10.1 13.8 8.9 12.3-1.5-1.5-10.5-13.5-6.3-12.3 1.5z"/><path fill-rule="evenodd" class="S" d="m101.7 112.3c-0.3 5.8-5.2 10.1-9.4 5.2-2.8-3.1 0.4-9.7 2.8-10.3 3.6-0.8 6.7 2.7 6.6 5.1z"/><path fill-rule="evenodd" class="L" d="m101.1 111.7c-0.2 1.6-1.9 3.2-3.5 3.2-0.9 0-5.8-1.9-5.2-4.2 1.7-6.6 9.3-2.5 8.7 1z"/><path fill-rule="evenodd" class="M" d="m92.2 113c7 2 7.2 5.3 5.6 6.3-1.7 1-4.5-0.5-5.5-1.8-1.2-1.3-1.6-5-0.1-4.5z"/><path fill-rule="evenodd" class="L" d="m94.7 113.1c3.8-5.4 6.3 0.2 4.5 1.3-1.8 1.1-5.2-0.3-4.5-1.3z"/><path fill-rule="evenodd" class="T" d="m94.6 120.2c0 0 2.6 2.7 5.3 0.9 3.7-2.5 3.1-6.3 3.1-6.3 0 0-1.1 4.8-4 5.8-3 1-4.4-0.4-4.4-0.4z"/><path fill-rule="evenodd" class="h" d="m91.4 116.8c0 0-0.5-4.6 3.4-7.9 3.9-3.3 6.8 0 6.8 0 0 0-2-4.1-6.9-2.3-4.9 1.8-4.4 7.3-4.1 8.2 0.3 0.8 0.8 2 0.8 2z"/><path fill-rule="evenodd" class="U" d="m92.7 78.5c1.1 5-1.3 20.4-1.9 20.9-0.6 0.6-15.1 2.2-17 0-1.8-2.1 0.9-19.9 2.4-20.7 1-0.6 3.1-1.5 8.4-1.5 5 0 7.9 0 8.1 1.3z"/><path fill-rule="evenodd" class="U" d="m71.9 78.6c0.5 2.6-1.2 20.2-2.6 20.7-1.4 0.5-13.2-1.2-13.4-3.6-0.1-2.4 2-11.6 3-12.8 1.9-2.2 12.7-5.6 13-4.3z"/><path fill-rule="evenodd" class="V" d="m54.5 76.7c-0.5 3.9-1.6 18.9-2.1 19.1-0.6 0.2-12.6-4.4-12.9-7.8-0.3-3.5 4.3-21.4 6-20.2 1.7 1.1 9.1 7.6 9 8.9z"/><path fill-rule="evenodd" class="W" d="m40.8 89.5c10 1.3 10.7-13.1 8.3-17.8-2.3-4.8-5.9-4.3-6.7-1-1.4 5.3-3.7 18.5-1.6 18.8z"/><path fill-rule="evenodd" class="U" d="m95.6 78.5c-0.6 1.6-1.8 19.7-0.9 20 0.9 0.2 8.1-1.7 8.5-3.8 0.4-2.1-0.7-13.4-1.5-14.5-0.8-1.3-5.8-2.4-6.1-1.7z"/><path fill-rule="evenodd" class="X" d="m57.5 70.3c-0.6 12.8-2.1 19-2.5 18.9-0.5-0.1 0.7-19.7 0.7-19.7z"/><path fill-rule="evenodd" class="X" d="m92.2 100.1c0 0 1-12 1.4-11.3 0.3 0.7-0.2 11-0.2 11z"/><path fill-rule="evenodd" class="Y" d="m64.9 113.3c-8.7 9.6-10.3-1.5-5.1-4.2 5.3-2.6 8.6 0.3 5.1 4.2z"/><path fill-rule="evenodd" class="Y" d="m60 120.1c-1.9 4.6-4.6 1.9-2.7-0.4 1.9-2.2 3.7-1.7 2.7 0.4z"/><path fill-rule="evenodd" class="Z" d="m91.7 88.1c-6.9 3-0.8 9.4-0.3 8.1 0.5-1.2 2.4-9 0.3-8.1z"/><path fill-rule="evenodd" class="Z" d="m95.3 88.3c1-1.5 2.1 2.3 0.4 3.5-1.6 1.3-1.1-2.7-0.4-3.5z"/><path fill-rule="evenodd" class="a" d="m35.1 56.8c0.2 2 4.9 4.5 5.6 6.6 0.8 2.2-0.4 14-0.4 14 0 0 2.2-12.1 2.3-14.7 0 0-5-4.1-5.6-5.9-0.7-1.7-0.6-5.5-0.3-10.1 0.3-4.5 0-9.7 0-9.7 0 0-1.7 17.8-1.6 19.8z"/><path fill-rule="evenodd" class="a" d="m31.3 86.5c-1.7 9.4-3.8 20.3-3.8 20.3 0 0 1.7-3.3 2.9-11.5 0.9-6.4 1.2-8.8 1.9-9 0.7-0.2 5.2-1.2 5.2-1.2 0 0-6 0.3-6.2 1.4z"/></svg>