<svg version="1.2" xmlns="http://www.w3.org/2000/svg" viewBox="0 0 128 128" width="128" height="128"><defs><linearGradient id="P" gradientUnits="userSpaceOnUse"/><linearGradient id="g1" x2="1" href="#P" gradientTransform="matrix(.615,43.923,67.073,-0.94,55.071,71.99)"><stop stop-color="#cf461d"/><stop offset="1" stop-color="#de700e"/></linearGradient><linearGradient id="g2" x2="1" href="#P" gradientTransform="matrix(.624,44.532,53.026,-0.743,48.133,58.384)"><stop stop-color="#72001b"/><stop offset="1" stop-color="#8b1f11"/></linearGradient><linearGradient id="g3" x2="1" href="#P" gradientTransform="matrix(-0.311,-22.202,-35.941,.504,45.62,29.511)"><stop stop-color="#531047"/><stop offset="1" stop-color="#934b29"/></linearGradient><linearGradient id="g4" x2="1" href="#P" gradientTransform="matrix(12.397,-11.822,-10.101,-10.592,35.295,45.125)"><stop stop-color="#503c61"/><stop offset="1" stop-color="#6f4460"/></linearGradient><linearGradient id="g5" x2="1" href="#P" gradientTransform="matrix(-1.075,-76.718,-62.5,.876,108.896,101.991)"><stop stop-color="#161236"/><stop offset="1" stop-color="#361e47"/></linearGradient><linearGradient id="g6" x2="1" href="#P" gradientTransform="matrix(-1.189,-84.883,-162.092,2.271,121.844,106.865)"><stop stop-color="#161236"/><stop offset="1" stop-color="#361e47"/></linearGradient><linearGradient id="g7" x2="1" href="#P" gradientTransform="matrix(25.567,-122.822,-334.281,-69.586,153.44,151.937)"><stop stop-color="#503c61"/><stop offset="1" stop-color="#6f4460"/></linearGradient><linearGradient id="g8" x2="1" href="#P" gradientTransform="matrix(.829,59.153,125.464,-1.758,49.471,34.374)"><stop stop-color="#503c61"/><stop offset="1" stop-color="#6f4460"/></linearGradient><linearGradient id="g9" x2="1" href="#P" gradientTransform="matrix(.516,36.848,105.717,-1.481,62.21,45.822)"><stop stop-color="#1d2034"/><stop offset=".4" stop-color="#1e1136"/><stop offset="1" stop-color="#2a1036"/></linearGradient><linearGradient id="g10" x2="1" href="#P" gradientTransform="matrix(-0.457,-32.592,-167.522,2.347,184.023,76.101)"><stop stop-color="#1d2034"/><stop offset=".4" stop-color="#1e1136"/><stop offset="1" stop-color="#2a1036"/></linearGradient><linearGradient id="g11" x2="1" href="#P" gradientTransform="matrix(-8.106,.114,.225,16.036,39.041,32.506)"><stop stop-color="#1d2034"/><stop offset=".4" stop-color="#1e1136"/><stop offset="1" stop-color="#2a1036"/></linearGradient><linearGradient id="g12" x2="1" href="#P" gradientTransform="matrix(60.872,-68.72,-91.772,-81.291,93.556,136.934)"><stop stop-color="#531047"/><stop offset="1" stop-color="#934b29"/></linearGradient><linearGradient id="g13" x2="1" href="#P" gradientTransform="matrix(6.688,45.45,247.348,-36.398,-108.261,63.58)"><stop stop-color="#8c50e6"/><stop offset="1"/></linearGradient><linearGradient id="g14" x2="1" href="#P" gradientTransform="matrix(-42.244,.592,.439,31.346,44.105,81.28)"><stop stop-color="#72001b"/><stop offset="1" stop-color="#8b1f11"/></linearGradient><linearGradient id="g15" x2="1" href="#P" gradientTransform="matrix(-32.88,.461,.703,50.209,72.731,67.383)"><stop stop-color="#cf461d"/><stop offset="1" stop-color="#de700e"/></linearGradient><linearGradient id="g16" x2="1" href="#P" gradientTransform="matrix(-0.697,-49.76,-59.251,.83,71.161,117.429)"><stop stop-color="#72001b"/><stop offset="1" stop-color="#8b1f11"/></linearGradient><linearGradient id="g17" x2="1" href="#P" gradientTransform="matrix(-27.482,26.749,47.39,48.688,40.027,59.085)"><stop stop-color="#ecbeba"/><stop offset=".87" stop-color="#705c96"/><stop offset="1" stop-color="#7e68ba"/></linearGradient><linearGradient id="g18" x2="1" href="#P" gradientTransform="matrix(-20.809,23.566,30.349,26.798,28.821,67.334)"><stop stop-color="#8b6d9d"/><stop offset="1" stop-color="#705c96"/></linearGradient><linearGradient id="g19" x2="1" href="#P" gradientTransform="matrix(-10.726,-3.993,-1.652,13.35,41.563,89.013)"><stop stop-color="#a183a4"/><stop offset="1" stop-color="#8a709d"/></linearGradient><linearGradient id="g20" x2="1" href="#P" gradientTransform="matrix(1.473,-8.695,-2.072,-0.918,33.907,106.233)"><stop stop-color="#a58caf"/><stop offset="1" stop-color="#f7e2d1"/></linearGradient></defs><style>.a{fill:#b1cffc}.b{fill:url(#g1)}.c{fill:url(#g2)}.d{opacity:.5;mix-blend-mode:multiply;fill:#c77c65}.e{mix-blend-mode:multiply;fill:#ab6377}.f{fill:url(#g3)}.g{fill:url(#g4)}.h{opacity:.4;mix-blend-mode:multiply;fill:#904f98}.i{fill:url(#g5)}.j{fill:url(#g6)}.k{fill:url(#g7)}.l{fill:url(#g8)}.m{fill:url(#g9)}.n{fill:url(#g10)}.o{fill:url(#g11)}.p{fill:#442c4e}.q{opacity:.3;mix-blend-mode:soft-light;fill:#c5cfea}.r{opacity:.3;mix-blend-mode:multiply;fill:#904f98}.s{opacity:.2;mix-blend-mode:soft-light;fill:#c5cfea}.t{fill:#6d5c7f}.u{fill:url(#g12)}.v{opacity:.3;mix-blend-mode:soft-light;fill:#e8b4ae}.w{opacity:.5;mix-blend-mode:screen;fill:url(#g13)}.x{opacity:.1;fill:#c5cfea}.y{fill:#3c2a51}.z{opacity:.5;mix-blend-mode:soft-light;fill:#e8b4ae}.A{fill:#33100c}.B{fill:url(#g14)}.C{opacity:.8;mix-blend-mode:multiply;fill:#c77c65}.D{fill:url(#g15)}.E{fill:url(#g16)}.F{opacity:.5;mix-blend-mode:multiply;fill:#862781}.G{opacity:.5;mix-blend-mode:soft-light;fill:#ffd8ba}.H{opacity:.3;mix-blend-mode:soft-light;fill:#ffffb3}.I{fill:#ad3e24}.J{opacity:.5;fill:#ff9259}.K{fill:#992e1c}.L{opacity:.4;mix-blend-mode:multiply;fill:#c877af}.M{fill:url(#g17)}.N{fill:url(#g18)}.O{fill:#48385c}.P{fill:url(#g19)}.Q{opacity:.6;mix-blend-mode:soft-light;fill:#d2ebef}.R{opacity:.4;mix-blend-mode:multiply;fill:#594275}.S{fill:url(#g20)}.T{opacity:.5;mix-blend-mode:multiply;fill:#923c8e}.U{opacity:.3;mix-blend-mode:multiply;fill:#774a81}.V{opacity:.2;mix-blend-mode:soft-light;fill:#ffffb3}.W{opacity:.3;mix-blend-mode:multiply;fill:#772781}.X{opacity:.5;mix-blend-mode:soft-light;fill:#ffba81}</style><path fill-rule="evenodd" class="a" d="m23.3 8.5c-4.1 4.6-6.5 11.5-2.4 17.3 4.1 5.8 5.1 7.9 4.7 9.5-0.4 1.6-5 4.9-9.6 18.5-4.7 13.6 1.7 24.9 2 27.7 0.2 2.9 1.4 10.3-0.5 11.6-1.8 1.3-15.2 4-16.4 6.9-1.1 3 1 15.3 3 15.7 2 0.5 19.1-3.6 21.6-2.1 2.6 1.6 9.2 7.5 16.4 6.9 7.2-0.5 20.2-7.2 20.2-7.2l-8.3-36.9-24-49.9-6-9z"/><path fill-rule="evenodd" class="a" d="m66.2 108.5c9 7.8 23.3 3.1 23.3 3.1l-20.7-6.5z"/><path fill-rule="evenodd" class="b" d="m77.8 62c5.1-0.8 10.2 0 11-0.2q0 0 0 0 0 0 0 0c0.8 0.1 8.9 1.6 20.5 13.6 0 0 1.8 10.5-0.3 23.3 0 0-4.8 9.5-19.5 12.9q0 0 0 0 0 0 0 0c-4.8 0.5-11 0.1-11 0.1-2.4-12.7-0.7-49.7-0.7-49.7z"/><path fill-rule="evenodd" class="c" d="m57.7 76.1c11.3-12.3 19.3-14 20.1-14.1q0 0 0 0 0 0 0 0c0.8 0.1 8.9 1.6 20.5 13.6 0 0 1.8 10.5-0.3 23.3 0 0-4.8 9.4-19.5 12.8q0 0 0 0 0 0 0 0c-14.8-2.9-19.9-12.3-19.9-12.3-2.4-12.7-0.9-23.3-0.9-23.3z"/><path fill-rule="evenodd" class="d" d="m109 98.7c-2.7 2.8-11 0.2-11 0.2l1.5-1.7c0 0-1.5-12-5.6-17.6-8.2-11.3-22.3-4.2-29 7.1-6.6 11.3 3.8 26.6 21.1 24.9 17.2-1.7 23-12.9 23-12.9z"/><path fill-rule="evenodd" class="e" d="m110.1 92.1c-8.4-3.2-9.8 3.8-9.8 3.8 0 0-8.9 14.6-21.2 15.5-7.7 0.6-21.1-8.8-19.4-20.7 1.7-11.8 38-24.6 45.2-12.9 7.2 11.8 5.2 14.3 5.2 14.3z"/><path fill-rule="evenodd" class="f" d="m21.5 22c0.5 1.7 1.2 3 1.9 4 1.9 2.7 4.2 3.5 5.4 3.7 0.6 0.1 0.9 0 0.9 0l2.3-2.5 2.4-2.7c0 0-0.7-0.3-1.7-0.7q-0.4-0.2-0.8-0.5c-0.9-0.5-1.9-1.2-2.6-2.1q0-0.1 0-0.1c-0.5-0.6-0.9-1.4-1.1-2.3-0.6-3.9 2.2-7.9 2.2-7.9 0 0-2.6-5.4-7.1-2.4 0 0-4.5 5.4-1.8 13.5z"/><path fill-rule="evenodd" class="g" d="m28.4 37.8l17-12.5c0 0-1.1-0.5-2.6-1.1-2.7-0.9-7.1-2-10.1-0.4q-0.6 0.3-1.1 0.7l-0.3 0.3c-1.2 1.3-2 3.1-2.5 4.9-1 4-0.4 8.1-0.4 8.1z"/><path fill-rule="evenodd" class="h" d="m28.8 29.7c-1 4-0.4 8.1-0.4 8.1l17-12.5c0 0-1.1-0.5-2.6-1.1-1.6 1.3-8.7 6.2-10.8 3-0.4-0.5-0.6-1.3-0.7-2.4l0.3-0.3 0.8-0.8-0.5-0.4-2.7-2.2q0 0 0.1 0 0 0 0 0.1c0.2 0.3 1.1 5-1.2 5.4-2.7 0.6-4.7-0.6-4.7-0.6 1.9 2.7 4.2 3.5 5.4 3.7z"/><path fill-rule="evenodd" class="i" d="m117.8 35.3c13 15.8 2.6 42.4-2.4 54.7-0.8 2.1-6.3 4.7-15 7.4-8.2 2.5-45.9 9.6-57.3 1.3-11.5-8.3-18.1-52.2-8.9-63.3 11.8-14.2 74.3-11.4 83.6-0.1z"/><path fill-rule="evenodd" class="j" d="m18 66.9c1 17.8 16.1 38.9 31.8 41 0.9 0.1 4.1-7.4 4.1-7.4-1.3-0.2-2-0.2-3.4-0.4-6-10.2-8.6-22-9.9-33.5-1.4-13.2 3.6-27.9 11.9-38.3 3.7-0.8 5.6-1.2 9.4-2 0 0-6-4.3-11.9-3.2-19.6 4.6-33.1 24.1-32 43.8z"/><path fill-rule="evenodd" class="k" d="m49.8 107.9c1.1 0 4.1-7.4 4.1-7.4-1.3-0.2-2-0.2-3.4-0.4-6.3-9.7-9.8-22.2-9.9-33.5 0-13.3 1.9-30.3 14-38.7 2.9-0.7 4.4-1 7.3-1.6 0 0-6-4.3-11.9-3.2-15 7.5-20.2 26-18.6 41.5 1.6 15.3 7.3 32.1 18.4 43.3z"/><path fill-rule="evenodd" class="l" d="m116.1 34.2c17 8 11.6 56-4.6 58.4-9.6 1.4-13.1-22.3-12.8-30.1 0.3-6.8 5.5-33.8 17.4-28.3z"/><path fill-rule="evenodd" class="m" d="m121.1 51.5c1.9 8.7-1 28.7-6.4 30.4-4.6 1.4-6.4-17.4-5.6-22.3 2.1-12.5 9.2-21 12-8.1z"/><path fill-rule="evenodd" class="n" d="m102.7 44.6c1.4 8.6-1.4 32.8-2.3 32.7-1.4-0.2-3.6-6.7-3.5-15.7 0-11.2 5.8-17 5.8-17z"/><path fill-rule="evenodd" class="o" d="m39 32.5c0 0 0.6 7.9-2 11.4-2.6 3.5-4.8 4.7-4.8 4.7 0 0-2.2-5.8-0.4-9.5 1.8-3.6 7.2-6.6 7.2-6.6z"/><path fill-rule="evenodd" class="e" d="m38.7 38.7c-1.5 9.1-8.5 2.6-6.4-0.3 2.3-3.3 6.7-5.9 6.7-5.9 0 0 0.4 2.3-0.3 6.2z"/><path fill-rule="evenodd" class="p" d="m32.2 48.6c0 0 5-2.4-1-7.8 0 0-1.4 4.6 1 7.8z"/><path fill-rule="evenodd" class="q" d="m39.9 31.2c3.1 5.1-2.4 41.9-4.5 44-2 2.1-3.4-6.4-3.9-12.4-0.6-6.7 0.7-14.2 0.7-14.2 0 0 4.8-2.7 6.2-7.4 1.1-4.1 0.8-9 0.8-9z"/><path fill-rule="evenodd" class="e" d="m121 59.1c-0.3 11-12.7 5.1-10.2-4.6 2.5-9.6 10.8-16.6 10.2 4.6z"/><path fill-rule="evenodd" class="q" d="m111.3 66.1c10.7 1.3 6.2 15.2 3.4 15.8-2.9 0.5-7.8-16.4-3.4-15.8z"/><path fill-rule="evenodd" class="r" d="m95.2 66.3c2 21.1 11.9 25.8 11.5 26.8-1.1 2.3-33.5 9.4-49.3 7.3-15.9-2.1-13.1-14.3-14.7-26-1.7-11.6-1.2-10.7 4.6-11.6 5.8-1 47.4-1.7 47.9 3.5z"/><path fill-rule="evenodd" class="s" d="m93 61.8c-1.9 0.7-47.8 1.8-49.3 0.4-1.4-1.4-1.6-12 2.5-16.4 4.1-4.4 49-7.2 53.3-5.9 3 0.9-3.3 20.8-6.5 21.9z"/><path fill-rule="evenodd" class="t" d="m103 56.9c0.7 9.3 0.6 18.8 0.3 23.3-0.4 4.6 2.6 9.6 4.5 11.5 0 0-4.1-3.7-6.2-8.6-1.9-4.7-3-8.5-3-8.5 0 0 0.7 0.2 1.6 0.8 2 1.3 2.8-18.5 2.8-18.5z"/><path fill-rule="evenodd" class="e" d="m97.9 65c-2 1.6 0.4-12.7 2-16.4 1.6-3.6 2.8-4 2.8-4 0 0 2.7 14-4.8 20.4z"/><path fill-rule="evenodd" class="p" d="m102.1 64.5c0.2 0.7-0.6 10-1.7 10.4-1.1 0.4-1.5 0.2-2.8-4.8-1.3-4.9 3.9-7.7 4.5-5.6z"/><path fill-rule="evenodd" class="q" d="m104.1 75.7c-0.9-7.8-0.9-19.7 0.5-27.9 1.2-6.6 7.5-23.9 17.4-6 3.8 7 1.4 9.1 0.4 7.9-3.3-4.3-7.8-11.7-11.5-0.1-3 9-3 21.6-0.1 29.4 1.5 3.9 7 6 9.8 1.2 2.8-4.8 1.8 7.4-6.8 10.1-5.9 1.9-8.5-5.3-9.7-14.6z"/><path fill-rule="evenodd" class="e" d="m23.9 86.8c13.6-18 40.4-26 76.5 10.6 0 0-28.5 7.7-48.4 4.2-20-3.4-28.1-14.8-28.1-14.8z"/><path fill-rule="evenodd" class="u" d="m105.2 29.2c0 0-1.1-4.1-3.3-6.8-3.1-4-11.4-6.8-17.4-5.6-15.3 3.2-26.4 19-31.4 30.9-6.7 15.8-8.2 33.4-6.4 49.4 6-0.1 9-0.1 15.1 0-1.1-12.5-0.4-26 4-38.3 3.6-9.8 12.9-27.6 26.7-31.6 5.4 0.7 7.5 1.1 12.7 2z"/><path fill-rule="evenodd" class="e" d="m65 62.2c0 0-2.3 16.7 4.5 34.5l-8.7-6.1c0 0-2.2-1.8-1-10.6 1.5-11.5 5.2-17.8 5.2-17.8z"/><path fill-rule="evenodd" class="e" d="m47.2 69.3c3.8-18.7 13.8 13.2 13.8 13.2l-0.3 7.3-14.3-3.6z"/><path fill-rule="evenodd" class="e" d="m100.8 28.5c0 0-3.2-4.6-7.6-4.7-4.3-0.1-12.5 5.5-17.9 16.9 0 0 12.4-10.7 17.5-11.8 5.2-1 8-0.4 8-0.4z"/><path fill-rule="evenodd" class="v" d="m89.2 20.6c-11 10.6-26.8 33.4-31.3 39-2.2 2.9-8.1 3.4-3.2-9.7 10.8-29.1 24.5-31 28.5-32.2 4.1-1.2 8.3 0.8 6 2.9z"/><path fill-rule="evenodd" class="w" d="m25.6 40.3c0 0-6.9 23.2 1.2 46.7 0 0-7.2-4.3-8.6-17.6-1.8-17.1 7.4-29.1 7.4-29.1z"/><path fill-rule="evenodd" class="x" d="m91.6 58.6c-7.8 6.1-11.4-1.9-6.9-3.4 4.6-1.5 11.1 0.2 6.9 3.4z"/><path fill-rule="evenodd" class="x" d="m80.7 60.2c-5.8 3.4-8.6-0.5-4.4-2 4.1-1.5 7.7 0.1 4.4 2z"/><path fill-rule="evenodd" class="y" d="m121.9 57.6c0 0 1.4-7.7-3.8-12 0 0-0.1 11.3 3.8 12z"/><path fill-rule="evenodd" class="e" d="m66.2 27.8c-22.1 9.3-29.3 31.4-30.3 37.8-1 6.4 0.8 9.9 0.8 9.9l10-2.1c0 0-0.2-3.6 4.1-19.4 4.3-15.8 15.4-26.2 15.4-26.2z"/><path fill-rule="evenodd" class="z" d="m29.4 11c-2 6.1-0.9 12.8-2.2 13.4-1.3 0.7-6.9-3.7-5.4-9.8 1.5-6.1 8.8-7 7.6-3.6z"/><path fill-rule="evenodd" class="e" d="m21.2 12.8c-1.6 8.9 9.3-4.1 8.4-0.6l0.8-1.3c0 0-2.5-5.7-7.1-2.4 0 0-1.7 2.2-2.1 4.3z"/><path fill-rule="evenodd" class="z" d="m26.9 15.5c-5.5 3.3-0.6 8 0.4 7.3 1-0.7 1.3-8.2-0.4-7.3z"/><path fill-rule="evenodd" class="A" d="m45.2 109.2l-39.5 4 0.5-8.4 36.8-15.4z"/><path fill-rule="evenodd" class="B" d="m39.7 99.4l-34 13.8c0 0-3.5-6.5-3.6-14.3l42-17.6z"/><path fill-rule="evenodd" class="C" d="m4 99.6c-1.6 0.8 0 12.2 3.9 11.7 3.8-0.6 13.6-4.7 13.3-5.9-0.3-1.3-1.6-11-3.8-10.6-2.2 0.5-10.7 3.3-13.4 4.8z"/><path fill-rule="evenodd" class="e" d="m20.3 91.6c-11.3 11.6-8.7 19.4-8.7 19.4l20.4-8.4-3.9-13z"/><path fill-rule="evenodd" class="D" d="m40.9 68.1c5-0.7 10.2 0 10.9-0.2q0 0 0 0 0.1 0 0.1 0c0.7 0.2 8.8 1.6 20.4 13.6 0 0 1.9 10.6-0.2 23.4 0 0-4.9 9.4-19.5 12.8q0 0-0.1 0 0 0 0 0c-4.7 0.5-10.9 0.1-10.9 0.1-2.5-12.7-0.7-49.7-0.7-49.7z"/><path fill-rule="evenodd" class="E" d="m20.7 82.3c11.3-12.3 19.3-14.1 20.1-14.2q0 0 0 0 0.1 0 0.1 0c0.7 0.1 8.8 1.6 20.4 13.6 0 0 1.9 10.5-0.3 23.3 0 0-4.8 9.5-19.4 12.8q0 0-0.1 0 0 0 0 0c-13.3-3.1-19.8-12.2-19.8-12.2-2.5-12.8-1-23.3-1-23.3z"/><path fill-rule="evenodd" class="F" d="m34.5 70.6c2.1 1 23.5 31.2 27 31.2 2 0 11.2-1.6 11.2-1.6l-0.3 2.1c0 0-9.7 0.7-10.8 0.4-3.2-0.9-17.5-13.1-24.2-19.9-6.8-6.7-7.4-9-7.4-9z"/><path fill-rule="evenodd" class="F" d="m20.5 89c0 0 19.6 19.8 30.4 25.7l11.7-0.9-1.4 0.8c0 0-10.3 0.9-13.1 1.2 0 0-9.6-7.3-18.7-14.6-9.2-7.4-9.2-7.4-9.2-7.4z"/><path fill-rule="evenodd" class="d" d="m61.8 105.1c4-1.3 9.7-0.7 9.7 0.1 0 0.8-4.4 6.5-11.7 9.5-7.2 3-16.5 2.7-16.5 2.7 0 0 6.2-1.2 10.9-4.6 4.7-3.4 6.5-7.4 7.6-7.7z"/><path fill-rule="evenodd" class="G" d="m71.7 81.4c-1.2 4-9.6-0.2-10.3-0.8-0.6-0.6-16.2-11.2-15.4-11.8 0.8-0.6 7.8-0.7 10.4 0.8 2.6 1.5 15.7 10.6 15.3 11.8z"/><path fill-rule="evenodd" class="e" d="m51 100.1c0 0-5.9 11.6-11.9 13.2-6.1 1.7-12.6-6.7-12.1-16.6 0.5-10 28.4-17.7 24 3.4z"/><path fill-rule="evenodd" class="H" d="m54.7 89c-2.5 0.3-5-13.6-17.4-11.2-6.8 1.4-9.8 11.4-9.8 14.5 0.1 3.1-6 1.3-5.6-5.7 0.3-7.1 13.2-16.9 19.2-17.1 6.1-0.2 16.6 8.5 17.4 12.2 0.9 3.7-0.3 7-3.8 7.3z"/><path fill-rule="evenodd" class="I" d="m61.6 99.3c4.8-9.3-0.3-17.6-0.3-17.6 0 0-1.7 2.3-1.6 8.2 0.1 5.9 1.9 9.4 1.9 9.4z"/><path fill-rule="evenodd" class="J" d="m71.7 81.4c-1.5 3.1-8.5 0.5-11.8-1.9 0 0 3.7-3.8 6.9-2.4 3.1 1.4 4.9 4.3 4.9 4.3z"/><path fill-rule="evenodd" class="K" d="m58 108.9c-1.5 5.6-6.5 5.2-6.5 5.2 2.1-4.1 6.5-5.2 6.5-5.2z"/><path fill-rule="evenodd" class="L" d="m60.5 99.8c0.6 4.1-7.1 13.9-15.2 16.3-8 2.4-19.2-5.3-21.9-10.9-2.8-5.5 36.2-12.3 37.1-5.4z"/><path fill-rule="evenodd" class="e" d="m43.1 79.6c12.3 5.5 8.8 17.5 8.8 17.5 0 0 3-8.6-1-13.3-4-4.7-7.8-4.2-7.8-4.2z"/><path fill-rule="evenodd" class="M" d="m40.3 79.2c10.3 0.3 13.3 10.2 11.8 17.3-1.6 7.4-5.2 10.1-11.9 11-1.2 0.2-3.6 0.1-3.6 0.1l0.1-28.3c0 0 2.4-0.1 3.6-0.1z"/><path fill-rule="evenodd" class="N" d="m36.7 79.3c9.4 0.3 11.2 10.7 10.8 16.3-0.3 5.6-4.8 11.6-10.9 12-6 0.4-11.3-6.1-11.1-15 0.2-8.8 5.1-13.6 11.2-13.3z"/><path fill-rule="evenodd" class="O" d="m42.3 92.5c1 11.2-12.3 13.1-13.4 1.6-1.2-11.5 12.6-10.2 13.4-1.6z"/><path fill-rule="evenodd" class="P" d="m40.7 91c1.3 6.2-2.7 12.2-8.6 8.2-3.8-2.6-2.2-10.5 0.2-11.7 3.6-1.9 7.9 1 8.4 3.5z"/><path fill-rule="evenodd" class="Q" d="m39.9 90.6c0.2 1.7-1.2 3.9-2.8 4.4-1 0.2-6.7-0.5-6.7-3-0.1-7.6 9.1-5.3 9.5-1.4z"/><path fill-rule="evenodd" class="R" d="m30.8 94.3c8 0.3 9.1 3.7 7.6 5.2-1.4 1.6-4.8 0.7-6.3-0.3-1.6-1.1-3.1-4.9-1.3-4.9z"/><path fill-rule="evenodd" class="Q" d="m33.5 93.8c2.5-6.7 6.7-1.5 5.1 0.2-1.6 1.7-5.6 1-5.1-0.2z"/><path fill-rule="evenodd" class="S" d="m39.8 100.2c0 0-2.1 2.7-5.7 1.9-3.2-0.7-4.7-5.4-4.7-5.4 0 0 2.4 4.8 5.8 5.2 3.4 0.3 4.6-1.7 4.6-1.7z"/><path fill-rule="evenodd" class="T" d="m42.1 95.8c0 0-0.6-5-5.7-7.5-5-2.4-7.2 1.8-7.2 1.8 0 0 1.1-4.8 6.8-4.2 5.7 0.6 6.6 6.5 6.4 7.6-0.1 1-0.3 2.3-0.3 2.3z"/><path fill-rule="evenodd" class="Q" d="m52.2 91.8c-0.5 1.1-3.5 2.8-4 1.3-2.7-8.3-0.4-11.8 0.9-9.9 1.3 1.8 3.6 7.7 3.1 8.6z"/><path fill-rule="evenodd" class="U" d="m48.5 95.9c1.6-1.7 3.7-0.9 3.5 0-0.7 3.5-1.5 9.1-9.6 11-2.2 0.5-0.2-0.6 2.6-4.2 2.4-3.3 2.9-6.2 3.5-6.8z"/><path fill-rule="evenodd" class="V" d="m44.5 95.6c3.8-0.1 2.8-14.6-5.9-15.4-8.7-0.8-11.5 6-11.5 8.5 0 2.5 4.5-4.4 8.7-4.2 4.3 0.2 7.1 4.3 7.4 7.5 0.3 3.2 0.5 3.6 1.3 3.6z"/><path fill-rule="evenodd" class="W" d="m45.8 99.9c-2.1 8.7-11 7.8-12.7 6.8-1.6-1.1-0.2-2.4 3.4-3.5 3.6-1 10.3-7.2 9.3-3.3z"/><path fill-rule="evenodd" class="Q" d="m51.8 91c-1.7 3.8-3.5 1.6-3.5 0.5 0-1.1 4.3-2.2 3.5-0.5z"/><path fill-rule="evenodd" class="X" d="m81.4 22.3c-13.4 17.8-18.9 16.1-15 7.6 3.9-8.4 19.6-13.8 15-7.6z"/></svg>