<svg version="1.2" xmlns="http://www.w3.org/2000/svg" viewBox="0 0 128 128" width="128" height="128"><defs><linearGradient id="P" gradientUnits="userSpaceOnUse"/><linearGradient id="g1" x2="1" href="#P" gradientTransform="matrix(-49.785,-24.582,-38.992,78.969,119.143,19.307)"><stop stop-color="#ecbeba"/><stop offset=".85" stop-color="#705c96"/><stop offset="1" stop-color="#7e68ba"/></linearGradient><linearGradient id="g2" x2="1" href="#P" gradientTransform="matrix(-4.896,38.084,-57.589,-7.404,86.779,57.865)"><stop stop-color="#de700e"/><stop offset="1" stop-color="#cf461d"/></linearGradient><linearGradient id="g3" x2="1" href="#P" gradientTransform="matrix(-49.261,-6.333,13.732,-106.804,68.157,136.921)"><stop stop-color="#72001b"/><stop offset="1" stop-color="#8b1f11"/></linearGradient><linearGradient id="g4" x2="1" href="#P" gradientTransform="matrix(-4.241,32.988,-28.503,-3.665,62.515,77.758)"><stop stop-color="#5c2a20"/><stop offset="1" stop-color="#531047"/></linearGradient><linearGradient id="g5" x2="1" href="#P" gradientTransform="matrix(-9.267,-2.716,3.608,-12.312,54.837,82.334)"><stop stop-color="#72001b"/><stop offset="1" stop-color="#8b1f11"/></linearGradient><linearGradient id="g6" x2="1" href="#P" gradientTransform="matrix(-35.757,-16.519,19.716,-42.677,45.903,141.002)"><stop stop-color="#de700e"/><stop offset="1" stop-color="#cf461d"/></linearGradient><linearGradient id="g7" x2="1" href="#P" gradientTransform="matrix(-7.616,-4.794,4.983,-7.917,48.041,104.311)"><stop stop-color="#b33d2e"/><stop offset="1" stop-color="#c24810"/></linearGradient></defs><style>.a{fill:#b1cffc}.b{fill:url(#g1)}.c{opacity:.5;mix-blend-mode:soft-light;fill:#f6f4ea}.d{opacity:.3;mix-blend-mode:soft-light;fill:#ffffea}.e{opacity:.5;mix-blend-mode:multiply;fill:#c1b6c5}.f{opacity:.6;mix-blend-mode:soft-light;fill:#fff}.g{mix-blend-mode:soft-light;fill:#fff}.h{opacity:.5;mix-blend-mode:multiply;fill:#4d2757}.i{opacity:.8;mix-blend-mode:multiply;fill:#c1b6c5}.j{opacity:.8;mix-blend-mode:soft-light;fill:#ffffea}.k{opacity:.2;mix-blend-mode:multiply;fill:#be579d}.l{fill:#d3c2d6}.m{fill:url(#g2)}.n{fill:url(#g3)}.o{fill:url(#g4)}.p{opacity:.5;mix-blend-mode:multiply;fill:#ab2781}.q{opacity:.8;mix-blend-mode:multiply;fill:#ab2781}.r{mix-blend-mode:soft-light;fill:#ffba81}.s{opacity:.2;mix-blend-mode:soft-light;fill:#ffffea}.t{fill:url(#g5)}.u{fill:#b13125}.v{fill:url(#g6)}.w{opacity:.2;mix-blend-mode:multiply;fill:#ab2781}.x{fill:url(#g7)}</style><path fill-rule="evenodd" class="a" d="m69 3.7c2.8 6.7 3.8 20.3-2.5 30-6.3 9.7-17.4 10.7-21 11.3-3.5 0.6-5.7 6.5-6.9 7.1-1.2 0.6-2.1-1.8-4.7 0.4-2.6 2.1-11.1 13.6-11.1 15.6 0 1.9 9.5 7.5 9.7 10 0.2 2.6-1 5.8-2.6 7.4-1.5 1.5-5.3-1.2-9 3.1-3.8 4.4 3.5 24.5 11.2 32 7.7 7.5 12.8 6.9 16.6 3.6 3.8-3.4 11.9-16.4 11.9-16.4l-15-16.1 46.2-75z"/><path fill-rule="evenodd" class="b" d="m44.8 45c-5.5 6.7-5.8 32.9-5.8 32.9l27 7.6c0 0-0.6-7.9 14.2-14.4 14.9-6.5 20.4-15.2 20.4-15.2-2.3-2.1 4.1-7.3 4.1-7.3 6.9-15.5 1.6-22.5 1.6-22.5 0 0-3 2.1-6.6-1.6-4.2-4.2 1.4-9.2 1.4-9.2 0 0-0.5-4.2-11.5-10.5-9.8-5.7-20.3-3.8-20.8-1.8q-0.1 0.3 0.2 0.7 0 0 0 0c8.3 8.9 6 25.6-2.4 34.2-9.7 10-20.6 5.6-21.8 7.1z"/><path fill-rule="evenodd" class="c" d="m68.8 3q0.2 0.6 0.2 0.7 0 0 0 0c23.4 9 26.9 25.2 19.4 40.6-6.7 14-25.1 19.1-41.7 16.6q-0.9-0.2-1.7-0.2l0.2 8.1c0 0 20.2 8.8 35 2.3 14.9-6.5 20.4-15.2 20.4-15.2-2.3-2.1 4.1-7.3 4.1-7.3 6.9-15.5 1.6-22.5 1.6-22.5 0 0-3 2.1-6.6-1.6-4.2-4.2 1.4-9.2 1.4-9.2 0 0-0.5-4.2-11.5-10.5-9.8-5.7-20.3-3.8-20.8-1.8z"/><path fill-rule="evenodd" class="d" d="m72.2 4.2c10.2 6.4 15.5 10.5 18.4 17.4 2.8 7 11.2-6.8 8.7-8.7-2.4-1.9-4.6-6.2-13.8-9.1-9.3-3-16.7-1.7-13.3 0.4z"/><path fill-rule="evenodd" class="e" d="m72.9 6c8.4 2.9 17.2 11.5 17.7 19.6 0.4 8.1-2.7 15.4-10.8 20.4-7.7 4.6-22.1 0.5-19.7-1.7 2.3-2.3 8.1-5.2 11.9-12.6 7.2-13.9-2.3-26.8 0.9-25.7z"/><path fill-rule="evenodd" class="f" d="m75.5 71.2c21.3-4.8 25.8-19.2 25.4-20.2-0.9-2-11.5-6.6-12.5-5.5-1.1 1.1-7.3 11.8-22.6 14.4-4.2 0.7 8.1 11.7 9.7 11.3z"/><path fill-rule="evenodd" class="g" d="m69.6 2.8c7.4-4.5 22.9 3.4 24.6 6.7 1.8 3.4-4.2 8.3-4.9 8-1.1-0.4-2.1-2.3-6.6-6.1-4.9-4.2-13.5-8.4-13.1-8.6z"/><path fill-rule="evenodd" class="h" d="m54.4 45.5c18.7 6.3 27.3-11.5 19.9-24.6-0.7-1.3 0.2 6.6-5.9 15.3-6.1 8.8-16.3 8.5-14 9.3z"/><path fill-rule="evenodd" class="h" d="m48 69.9c19.8 6 23 2.7 31.9 0.2 10.8-3 18.6-11.6 18.6-11.6 0 0-11.2 12.8-27.1 14.8-10.5 1.3-23.4-3.4-23.4-3.4z"/><path fill-rule="evenodd" class="h" d="m100.7 14.3c0.5 0.9 0.6 0.8 0 1.4-0.5 0.5-2.9 3.6-2.7 6 0 0-1-2.4-0.8-4.4 0.2-2 2.9-4.1 3.5-3z"/><path fill-rule="evenodd" class="h" d="m104.7 48.6c-1.6-1.1-3.3 3-3.3 3z"/><path fill-rule="evenodd" class="i" d="m90.9 24.5c4.9 17.6-14.9 28.1-28.1 20.6-2.9-1.6 15.7-12 11.8-33.4-1-5.6 13 0.9 16.3 12.8z"/><path fill-rule="evenodd" class="j" d="m76.1 70c-4.7-1.1 8.5-14.5 12.8-14.7 4.4-0.2 10.2 1.7 9.6 3.2-0.6 1.4-14.6 13.4-22.4 11.5z"/><path fill-rule="evenodd" class="k" d="m48.2 60.9c3.5 0.7 9.9 0.5 10.7 0.9 0.8 0.3 5.8 10.2 4.5 11-1.2 0.8-13.4-2.2-16-3.6-2.7-1.4 0.8-8.3 0.8-8.3z"/><path fill-rule="evenodd" class="l" d="m91.5 35c1.8-0.2 1.3-9-0.2-11.5-0.9-1.4-1.7 6.3-1.4 7.5 0.6 2.3 1.6 4 1.6 4z"/><path fill-rule="evenodd" class="l" d="m81.5 53.4c-5.6 2.6-30.9 7.6-30.1 7.8 3.5 1 11.6 1.8 19.3-1.9 7.7-3.7 10.8-5.9 10.8-5.9z"/><path fill-rule="evenodd" class="m" d="m83.9 80.5c0.1-0.9-3.8-10.5-20.3-20.3-15.3-9-27.4-8.8-28.7-8.5-1.6 0.4-7.4 10.4-7.7 14.6 0 0 4.3 10.8 21.3 20.1 17.1 9.4 25.1 8.1 25.1 8.1 0 0 9.8-9.7 10.3-14z"/><path fill-rule="evenodd" class="n" d="m73.6 94.5c-12.9-20.5-30.5-28.5-46.4-28.2 0 0 4 10.7 21.3 20.1 17.4 9.5 25.1 8.1 25.1 8.1z"/><path fill-rule="evenodd" class="o" d="m61 89.5c0 0-0.6-11.4-23.8-15 0 0-6.3 11.8-5.5 21.8l18 13.3z"/><path fill-rule="evenodd" class="p" d="m51.4 71.5c5.2 2 9.6-10.9 8.1-12.5-1.4-1.5-5.5-3.8-15.4-5.6-9.8-1.8-10-0.4-11.2 1.5-1.1 1.9-1.5 8.7 0.4 10.1 1.8 1.3 11.2 3.8 18.1 6.5z"/><path fill-rule="evenodd" class="q" d="m58.8 85.9c-3.3-7.8-13.7-16.1-24-17.7-10.4-1.6-3.9 4.9 1.1 9.1 0 0-4.9 10-1.4 15.6 3.6 5.6 24.3-7 24.3-7z"/><path fill-rule="evenodd" class="r" d="m74.4 69.3c-2.3-3.5-12.4-9-13-8.7-0.7 0.4-5.5 9.7-5.1 11.3 0.4 1.5 10 11.7 12 11.6 1.9 0 7.6-12 6.1-14.2z"/><path fill-rule="evenodd" class="s" d="m56.6 88.8c-7.8 1.8-10.5 13.2-7.6 13.8 2.8 0.6 14.3-15.5 7.6-13.8z"/><path fill-rule="evenodd" class="t" d="m57.2 76.3c-0.5-4.3-7.1-9.5-9.7-6.1-2.5 3.4 10.3 11.1 9.7 6.1z"/><path fill-rule="evenodd" class="q" d="m54.1 71.7c-5.9-1.5-0.6 6.9 1.7 6.2 2.2-0.8 1.8-5.3-1.7-6.2z"/><path fill-rule="evenodd" class="u" d="m50.6 70.9c-0.9-2.5-3.1-1.4-3.3 0.1-0.3 1.5 2.7 4.2 3.2 4.1 0.4-0.1 0.5-3 0.1-4.2z"/><path fill-rule="evenodd" class="r" d="m72.5 73.2c1.1-7.9-13.5-0.4-13.6 1.4-0.1 1.8 5.5 7.1 7.4 7.8 1.8 0.7 5.9-6.7 6.2-9.2z"/><path fill-rule="evenodd" class="v" d="m62 108.1c0.2-1.8-3.9-9-10.9-13.7-0.1-0.1-2.1-0.8-5.5-2.7-1.4-0.8-4.1-3-4.4-3.1-11.8-5.8-19-3.4-19.7-1.9-1.6 3.7 2.7 25.1 17.3 35.4 5.3 3.8 23-11.1 23.2-14z"/><path fill-rule="evenodd" class="r" d="m46.5 94.5c-2.8 0.6-9.6 29.1-5 28.1 7.3-1.5 19.6-12.5 19.1-14.8-0.4-2.4-8.4-14.6-14.1-13.3z"/><path fill-rule="evenodd" class="p" d="m40 89.8c-2.7-2.9-14.3-7.4-17.5-2.7-3.1 4.6 6 24.7 12.2 29.8 6.3 5.2 9.1-23 5.3-27.1z"/><path fill-rule="evenodd" class="w" d="m40 89.8c-5.6-3.6-13.7 10.7-13.2 14.5 0.6 3.8 5.8 14.8 10.1 12 4.2-2.9 6.8-24.1 3.1-26.5z"/><path fill-rule="evenodd" class="r" d="m40.7 119.5c2.3 1.6 13.8-5.4 11.9-10.4-1.9-5-7.8-10-8.9-7.8-1.1 2.3-5.7 16.2-3 18.2z"/><path fill-rule="evenodd" class="x" d="m51.1 94.6c0 0-5-1.8-9.9-6-0.3-0.3 1.2 10.7 2.7 10.6 1.5 0 6.7-1.9 7.2-4.6z"/></svg>