<svg width="16" height="16" viewBox="0 0 16 16" fill="none" xmlns="http://www.w3.org/2000/svg">
<path fill-rule="evenodd" clip-rule="evenodd" d="M6.64 10.2V5.4H8.44C9.2132 5.4 9.84 6.0268 9.84 6.8V8.8C9.84 9.5732 9.2132 10.2 8.44 10.2L6.64 10.2ZM7.84 9H8.44C8.55048 9 8.64 8.91046 8.64 8.8V6.8C8.64 6.68955 8.55048 6.6 8.44 6.6H7.84V9Z" fill="currentColor" />
<path fill-rule="evenodd" clip-rule="evenodd" d="M3.9 5.4C2.93902 5.4 2.16 6.20337 2.16 7.19437L2.16 8.41352C2.16 9.40453 2.93902 10.2079 3.9 10.2079C4.86098 10.2079 5.64 9.40453 5.64 8.41352V8.31908H4.54105V8.41352C4.54105 8.77863 4.25404 9.0746 3.9 9.0746C3.54596 9.0746 3.25895 8.77863 3.25895 8.41352V7.19437C3.25895 6.82927 3.54596 6.53329 3.9 6.53329H3.99158C4.29504 6.53329 4.54105 6.78699 4.54105 7.09993H5.64C5.64 6.16109 4.90198 5.4 3.99158 5.4H3.9Z" fill="currentColor" />
<path fill-rule="evenodd" clip-rule="evenodd" d="M10.84 5.40469H11.34H11.5067L11.7931 5.4L12.84 7.64922V5.40469H13.84V9.60469V10.2047H13.34H13.1733H12.8791L11.84 7.96016V10.2047H10.84V6.00469V5.40469Z" fill="currentColor" />
<path fill-rule="evenodd" clip-rule="evenodd" d="M14 3.4H2C1.44771 3.4 1 3.84771 1 4.4V11.6C1 12.1523 1.44771 12.6 2 12.6H14C14.5523 12.6 15 12.1523 15 11.6V4.4C15 3.84771 14.5523 3.4 14 3.4ZM2 2.4C0.895432 2.4 0 3.29543 0 4.4V11.6C0 12.7046 0.895432 13.6 2 13.6H14C15.1046 13.6 16 12.7046 16 11.6V4.4C16 3.29543 15.1046 2.4 14 2.4H2Z" fill="currentColor" />
</svg>
