<?xml version="1.0" encoding="utf-8"?>
<svg xmlns="http://www.w3.org/2000/svg" height="16" stroke-linejoin="round" viewBox="0 0 16.042 16.043" width="16" xmlns:bx="https://boxy-svg.com" preserveAspectRatio="none"><defs/><g clip-path="url(#clip0_1535_29637)"><path d="M15.25 8V2.25C15.25 1.42157 14.5784 0.75 13.75 0.75H2.25C1.42157 0.75 0.75 1.42157 0.75 2.25V13.75C0.75 14.5784 1.42157 15.25 2.25 15.25H8" stroke="currentColor" style="stroke: currentcolor; fill-opacity: 0;" stroke-width="1.5"/><path d="M9.24618 4.25V4.25C8.00565 4.25 7 5.25565 7 6.49618L7 9.50439C7 10.7446 5.99461 11.75 4.75439 11.75V11.75" stroke="currentColor" style="stroke: currentcolor; fill-opacity: 0;" stroke-width="1.5" stroke-linecap="square"/><path d="M5.25 7.75H8.75" stroke="currentColor" style="stroke: currentColor" stroke-width="1.5" stroke-linecap="square"/><path d="M 13.087 9.247 C 13.041 9.247 12.998 9.257 12.958 9.27 C 13.042 9.33 13.089 9.406 13.112 9.494 C 13.115 9.506 13.117 9.516 13.118 9.527 C 13.121 9.538 13.122 9.548 13.122 9.558 C 13.129 9.71 13.084 9.728 13.052 9.818 C 13.005 9.933 13.017 10.056 13.075 10.156 C 13.08 10.167 13.087 10.181 13.095 10.194 C 13.032 9.76 13.382 9.693 13.447 9.558 C 13.451 9.439 13.358 9.359 13.283 9.306 C 13.211 9.261 13.147 9.247 13.087 9.247 Z M 13.614 9.345 C 13.608 9.385 13.613 9.374 13.61 9.395 C 13.609 9.408 13.609 9.427 13.608 9.439 C 13.604 9.452 13.602 9.468 13.597 9.48 C 13.593 9.494 13.588 9.507 13.583 9.522 C 13.576 9.536 13.571 9.548 13.565 9.562 C 13.56 9.569 13.556 9.575 13.551 9.581 C 13.548 9.586 13.544 9.591 13.541 9.596 C 13.533 9.609 13.524 9.622 13.517 9.632 C 13.507 9.642 13.498 9.654 13.487 9.664 L 13.487 9.665 C 13.477 9.674 13.466 9.684 13.455 9.692 C 13.419 9.72 13.381 9.739 13.344 9.766 C 13.333 9.775 13.321 9.781 13.311 9.791 C 13.3 9.8 13.289 9.81 13.279 9.819 C 13.268 9.829 13.26 9.839 13.25 9.85 C 13.242 9.863 13.232 9.874 13.224 9.886 C 13.217 9.897 13.208 9.911 13.201 9.923 C 13.195 9.935 13.19 9.948 13.183 9.961 C 13.178 9.975 13.173 9.987 13.169 10.002 C 13.164 10.017 13.162 10.03 13.158 10.044 C 13.157 10.051 13.157 10.06 13.154 10.067 C 13.153 10.073 13.153 10.079 13.152 10.087 C 13.152 10.101 13.15 10.115 13.15 10.129 C 13.15 10.139 13.15 10.151 13.152 10.161 C 13.152 10.174 13.153 10.188 13.157 10.204 C 13.158 10.217 13.162 10.23 13.164 10.245 C 13.169 10.258 13.173 10.272 13.178 10.286 C 13.181 10.295 13.186 10.304 13.19 10.31 L 12.809 10.157 C 12.745 10.138 12.681 10.12 12.616 10.106 C 12.582 10.097 12.546 10.088 12.512 10.079 C 12.412 10.06 12.311 10.044 12.211 10.034 C 12.207 10.034 12.206 10.031 12.202 10.031 C 12.101 10.022 12.004 10.017 11.905 10.017 C 11.832 10.017 11.758 10.02 11.688 10.025 C 11.584 10.031 11.483 10.045 11.382 10.063 C 11.357 10.067 11.332 10.072 11.308 10.077 C 11.256 10.087 11.206 10.099 11.159 10.11 C 11.133 10.118 11.108 10.124 11.083 10.131 C 11.058 10.141 11.035 10.155 11.012 10.164 C 10.994 10.173 10.975 10.181 10.958 10.189 C 10.954 10.193 10.951 10.193 10.949 10.194 C 10.932 10.203 10.918 10.209 10.904 10.217 C 10.898 10.22 10.895 10.221 10.891 10.221 C 10.873 10.23 10.854 10.241 10.839 10.25 C 10.828 10.255 10.816 10.262 10.806 10.267 C 10.801 10.269 10.795 10.273 10.792 10.276 C 10.778 10.283 10.762 10.294 10.748 10.303 C 10.733 10.31 10.72 10.319 10.709 10.327 C 10.696 10.337 10.685 10.343 10.675 10.351 C 10.673 10.352 10.672 10.352 10.671 10.355 C 10.662 10.361 10.649 10.37 10.639 10.378 C 10.639 10.378 10.637 10.379 10.636 10.382 C 10.627 10.389 10.62 10.396 10.611 10.403 C 10.607 10.405 10.604 10.408 10.601 10.41 C 10.593 10.416 10.584 10.425 10.576 10.431 C 10.574 10.436 10.571 10.438 10.569 10.44 C 10.559 10.449 10.55 10.458 10.539 10.468 C 10.538 10.468 10.538 10.469 10.537 10.472 C 10.526 10.48 10.516 10.49 10.506 10.5 C 10.505 10.502 10.505 10.504 10.504 10.504 C 10.495 10.513 10.487 10.521 10.478 10.532 C 10.476 10.536 10.469 10.538 10.467 10.542 C 10.458 10.552 10.448 10.563 10.439 10.573 C 10.436 10.575 10.434 10.579 10.431 10.583 C 10.418 10.596 10.408 10.61 10.394 10.621 C 10.393 10.624 10.391 10.627 10.389 10.628 C 10.362 10.657 10.334 10.686 10.304 10.712 C 10.274 10.74 10.244 10.764 10.212 10.787 C 10.177 10.811 10.147 10.833 10.112 10.853 C 10.078 10.871 10.044 10.889 10.008 10.904 C 9.972 10.921 9.935 10.934 9.899 10.945 C 9.829 10.96 9.758 10.991 9.697 10.996 C 9.684 10.996 9.669 10.999 9.655 11 C 9.641 11.003 9.628 11.006 9.615 11.01 C 9.601 11.017 9.588 11.022 9.574 11.027 C 9.56 11.031 9.548 11.038 9.535 11.045 C 9.523 11.054 9.509 11.061 9.499 11.07 C 9.487 11.078 9.475 11.088 9.465 11.098 C 9.453 11.107 9.442 11.12 9.431 11.13 C 9.421 11.14 9.411 11.15 9.404 11.164 C 9.395 11.177 9.384 11.19 9.378 11.203 C 9.369 11.215 9.363 11.229 9.356 11.243 C 9.349 11.26 9.342 11.272 9.337 11.287 C 9.332 11.302 9.327 11.316 9.322 11.331 C 9.319 11.345 9.315 11.361 9.314 11.373 C 9.314 11.376 9.312 11.377 9.312 11.378 C 9.309 11.393 9.309 11.414 9.308 11.425 C 9.305 11.436 9.304 11.447 9.304 11.459 C 9.304 11.467 9.304 11.474 9.305 11.482 C 9.308 11.493 9.309 11.505 9.312 11.515 C 9.315 11.524 9.319 11.534 9.324 11.546 L 9.324 11.547 C 9.329 11.557 9.336 11.567 9.342 11.577 C 9.349 11.588 9.356 11.599 9.364 11.609 C 9.372 11.617 9.382 11.627 9.392 11.636 C 9.401 11.647 9.411 11.655 9.424 11.663 C 9.463 11.7 9.473 11.711 9.525 11.739 C 9.532 11.744 9.541 11.748 9.551 11.753 C 9.553 11.753 9.554 11.756 9.556 11.756 C 9.556 11.758 9.556 11.76 9.558 11.764 C 9.559 11.776 9.563 11.79 9.567 11.804 C 9.569 11.82 9.574 11.834 9.579 11.846 C 9.584 11.857 9.588 11.866 9.593 11.876 C 9.595 11.88 9.596 11.885 9.597 11.886 C 9.605 11.9 9.611 11.91 9.618 11.922 C 9.626 11.935 9.633 11.947 9.642 11.959 C 9.65 11.969 9.66 11.982 9.67 11.992 C 9.68 12.002 9.69 12.011 9.702 12.021 C 9.702 12.021 9.703 12.022 9.706 12.022 C 9.716 12.032 9.726 12.039 9.736 12.047 C 9.748 12.054 9.758 12.061 9.772 12.068 C 9.783 12.076 9.796 12.084 9.81 12.089 C 9.82 12.093 9.832 12.096 9.843 12.1 C 9.845 12.101 9.846 12.101 9.85 12.103 C 9.857 12.105 9.865 12.107 9.871 12.108 C 9.866 12.201 9.865 12.289 9.879 12.321 C 9.892 12.354 9.966 12.249 10.038 12.129 C 10.028 12.248 10.022 12.387 10.038 12.428 C 10.056 12.471 10.156 12.337 10.244 12.19 C 11.419 11.908 12.493 12.75 12.606 13.937 C 12.585 13.751 12.364 13.649 12.263 13.676 C 12.213 13.802 12.128 13.967 11.992 14.067 C 12.004 13.953 11.999 13.836 11.975 13.724 C 11.939 13.88 11.868 14.028 11.771 14.157 C 11.613 14.168 11.452 14.089 11.371 13.97 C 11.364 13.967 11.362 13.954 11.357 13.947 C 11.352 13.936 11.346 13.925 11.344 13.913 C 11.339 13.899 11.335 13.888 11.334 13.876 C 11.332 13.863 11.332 13.852 11.332 13.838 C 11.332 13.83 11.332 13.821 11.332 13.814 C 11.334 13.8 11.338 13.788 11.34 13.777 C 11.344 13.765 11.346 13.751 11.352 13.74 C 11.359 13.728 11.364 13.718 11.372 13.704 C 11.4 13.622 11.4 13.555 11.349 13.514 C 11.339 13.508 11.329 13.503 11.317 13.498 C 11.312 13.496 11.303 13.492 11.297 13.491 C 11.291 13.49 11.288 13.487 11.283 13.486 C 11.271 13.482 11.26 13.48 11.248 13.477 C 11.237 13.475 11.224 13.471 11.213 13.471 C 11.201 13.47 11.187 13.468 11.177 13.468 C 11.169 13.468 11.16 13.47 11.153 13.47 C 11.139 13.47 11.127 13.471 11.116 13.476 C 11.103 13.477 11.091 13.48 11.08 13.482 C 11.069 13.486 11.057 13.49 11.047 13.494 C 11.034 13.499 11.024 13.504 11.012 13.509 C 11.002 13.514 10.992 13.523 10.98 13.528 C 10.594 13.788 10.825 14.4 11.088 14.576 C 10.989 14.596 10.887 14.618 10.859 14.64 C 10.858 14.641 10.857 14.644 10.857 14.644 C 10.927 14.688 11.002 14.725 11.08 14.759 C 11.187 14.795 11.299 14.828 11.349 14.841 L 11.349 14.844 C 11.487 14.872 11.628 14.883 11.768 14.874 C 12.503 14.82 13.106 14.242 13.215 13.48 C 13.218 13.494 13.222 13.508 13.224 13.524 C 13.229 13.555 13.237 13.588 13.239 13.62 L 13.239 13.622 C 13.243 13.636 13.245 13.652 13.247 13.667 L 13.247 13.673 C 13.248 13.689 13.25 13.704 13.25 13.719 C 13.252 13.736 13.253 13.755 13.253 13.774 L 13.253 13.802 C 13.253 13.81 13.255 13.821 13.255 13.83 C 13.255 13.84 13.253 13.85 13.253 13.861 L 13.253 13.884 C 13.253 13.897 13.252 13.905 13.252 13.919 C 13.252 13.926 13.252 13.932 13.25 13.941 C 13.25 13.953 13.248 13.967 13.248 13.979 C 13.247 13.984 13.247 13.988 13.247 13.993 C 13.245 14.009 13.243 14.02 13.242 14.034 C 13.242 14.038 13.242 14.043 13.239 14.048 C 13.238 14.067 13.236 14.083 13.233 14.099 L 13.233 14.104 C 13.229 14.117 13.227 14.135 13.223 14.152 L 13.223 14.157 C 13.22 14.171 13.217 14.186 13.213 14.202 C 13.213 14.205 13.211 14.207 13.211 14.21 C 13.208 14.225 13.205 14.239 13.2 14.255 L 13.2 14.26 C 13.195 14.278 13.19 14.294 13.186 14.308 C 13.185 14.311 13.185 14.312 13.185 14.312 C 13.18 14.329 13.175 14.348 13.169 14.364 C 13.163 14.38 13.158 14.396 13.152 14.413 C 13.145 14.429 13.14 14.448 13.134 14.464 C 13.127 14.48 13.121 14.497 13.115 14.512 L 13.112 14.512 C 13.106 14.528 13.099 14.545 13.09 14.561 C 13.089 14.566 13.087 14.57 13.085 14.572 C 13.084 14.575 13.084 14.576 13.081 14.577 C 12.974 14.803 12.815 15 12.616 15.155 C 12.603 15.164 12.589 15.174 12.577 15.184 C 12.573 15.188 12.568 15.189 12.565 15.193 C 12.552 15.201 12.541 15.211 12.528 15.22 L 12.533 15.23 L 12.535 15.23 C 12.557 15.226 12.582 15.224 12.605 15.22 L 12.606 15.22 C 12.649 15.212 12.693 15.203 12.736 15.194 C 12.746 15.193 12.76 15.189 12.772 15.187 C 12.779 15.184 12.787 15.183 12.795 15.182 C 12.807 15.179 12.819 15.177 12.83 15.174 C 12.84 15.17 12.851 15.169 12.861 15.166 C 13.025 15.125 13.186 15.068 13.342 15 C 13.078 15.374 12.724 15.675 12.311 15.871 C 12.501 15.859 12.693 15.824 12.876 15.77 C 13.544 15.565 14.106 15.1 14.443 14.474 C 14.375 14.87 14.223 15.248 13.998 15.577 C 14.159 15.468 14.305 15.341 14.441 15.196 C 14.813 14.795 15.056 14.284 15.139 13.736 C 15.195 14.009 15.212 14.287 15.187 14.565 C 16.386 12.835 15.287 11.042 14.827 10.569 C 14.824 10.566 14.823 10.564 14.823 10.561 C 14.823 10.563 14.823 10.563 14.823 10.564 C 14.823 10.563 14.823 10.563 14.82 10.561 C 14.82 10.583 14.819 10.602 14.818 10.621 C 14.813 10.662 14.808 10.7 14.8 10.738 C 14.792 10.776 14.782 10.813 14.772 10.852 C 14.76 10.887 14.746 10.925 14.732 10.96 C 14.717 10.996 14.701 11.031 14.683 11.066 C 14.665 11.098 14.644 11.133 14.623 11.164 C 14.601 11.196 14.578 11.228 14.555 11.257 C 14.531 11.287 14.503 11.315 14.478 11.342 C 14.46 11.358 14.444 11.372 14.429 11.385 C 14.416 11.398 14.405 11.408 14.391 11.419 C 14.36 11.442 14.331 11.467 14.299 11.487 C 14.266 11.509 14.233 11.527 14.2 11.546 C 14.165 11.562 14.131 11.577 14.095 11.594 C 14.061 11.608 14.025 11.619 13.988 11.63 C 13.951 11.641 13.914 11.649 13.877 11.655 C 13.839 11.662 13.799 11.666 13.765 11.668 C 13.737 11.669 13.711 11.672 13.683 11.672 C 13.646 11.672 13.608 11.668 13.571 11.666 C 13.533 11.662 13.496 11.657 13.459 11.649 C 13.419 11.642 13.385 11.631 13.348 11.619 L 13.345 11.619 C 13.382 11.616 13.418 11.613 13.455 11.605 C 13.493 11.599 13.529 11.589 13.566 11.579 C 13.603 11.569 13.64 11.557 13.674 11.543 C 13.711 11.529 13.746 11.514 13.779 11.496 C 13.813 11.478 13.845 11.459 13.878 11.437 C 13.91 11.417 13.941 11.393 13.971 11.371 C 14.001 11.345 14.03 11.32 14.056 11.292 C 14.084 11.267 14.109 11.238 14.133 11.209 C 14.159 11.177 14.181 11.145 14.203 11.117 C 14.206 11.112 14.21 11.103 14.212 11.098 C 14.23 11.071 14.247 11.043 14.262 11.017 C 14.28 10.982 14.296 10.948 14.311 10.911 C 14.326 10.875 14.339 10.839 14.351 10.801 C 14.363 10.764 14.37 10.728 14.379 10.69 C 14.386 10.649 14.392 10.611 14.396 10.574 C 14.4 10.536 14.402 10.495 14.402 10.458 C 14.402 10.43 14.401 10.403 14.4 10.375 C 14.396 10.337 14.391 10.299 14.386 10.261 C 14.379 10.221 14.37 10.183 14.36 10.146 C 14.349 10.109 14.337 10.072 14.323 10.035 C 14.311 10.001 14.295 9.964 14.278 9.929 C 14.259 9.895 14.242 9.86 14.221 9.828 C 14.2 9.794 14.178 9.765 14.156 9.733 C 14.131 9.704 14.105 9.675 14.078 9.645 C 14.066 9.632 14.05 9.617 14.036 9.601 C 13.961 9.543 13.883 9.485 13.806 9.436 C 13.793 9.428 13.784 9.423 13.772 9.416 C 13.718 9.382 13.665 9.362 13.614 9.345 Z M 13.614 9.345" fill="#e0234e"/></g></svg>