<?xml version="1.0" encoding="UTF-8"?>
<svg xmlns="http://www.w3.org/2000/svg" xmlns:xlink="http://www.w3.org/1999/xlink" width="16px" height="16px" viewBox="0 0 16 16" version="1.1">
<g id="surface1">
<path fill="rgb(0%,67.450982%,84.313726%)" d="M 2.511719 6.320312 C 2.488281 6.320312 2.480469 6.304688 2.492188 6.289062 L 2.625 6.117188 C 2.636719 6.101562 2.667969 6.085938 2.695312 6.085938 L 4.925781 6.085938 C 4.949219 6.085938 4.957031 6.105469 4.945312 6.125 L 4.835938 6.289062 C 4.824219 6.304688 4.792969 6.324219 4.773438 6.324219 Z M 2.511719 6.320312 "/>
<path fill="rgb(0%,67.450982%,84.313726%)" d="M 1.570312 6.894531 C 1.542969 6.894531 1.539062 6.882812 1.550781 6.863281 L 1.679688 6.695312 C 1.695312 6.675781 1.726562 6.664062 1.75 6.664062 L 4.601562 6.664062 C 4.625 6.664062 4.636719 6.679688 4.632812 6.699219 L 4.582031 6.851562 C 4.574219 6.875 4.550781 6.886719 4.523438 6.886719 Z M 1.570312 6.894531 "/>
<path fill="rgb(0%,67.450982%,84.313726%)" d="M 3.082031 7.46875 C 3.054688 7.46875 3.050781 7.449219 3.0625 7.429688 L 3.148438 7.273438 C 3.164062 7.257812 3.1875 7.238281 3.210938 7.238281 L 4.460938 7.238281 C 4.488281 7.238281 4.5 7.257812 4.5 7.28125 L 4.488281 7.429688 C 4.488281 7.457031 4.460938 7.476562 4.445312 7.476562 Z M 3.082031 7.46875 "/>
<path fill="rgb(0%,67.450982%,84.313726%)" d="M 9.570312 6.207031 C 9.175781 6.304688 8.90625 6.382812 8.519531 6.480469 C 8.425781 6.507812 8.417969 6.511719 8.335938 6.417969 C 8.242188 6.3125 8.175781 6.242188 8.042969 6.179688 C 7.648438 5.988281 7.269531 6.042969 6.914062 6.273438 C 6.488281 6.550781 6.269531 6.957031 6.273438 7.460938 C 6.28125 7.960938 6.625 8.375 7.117188 8.445312 C 7.542969 8.5 7.898438 8.351562 8.179688 8.03125 C 8.238281 7.960938 8.289062 7.886719 8.351562 7.800781 C 8.125 7.800781 7.84375 7.800781 7.144531 7.800781 C 7.011719 7.800781 6.980469 7.71875 7.023438 7.613281 C 7.105469 7.417969 7.257812 7.09375 7.34375 6.929688 C 7.363281 6.894531 7.40625 6.832031 7.5 6.832031 C 7.820312 6.832031 8.992188 6.832031 9.773438 6.832031 C 9.761719 7 9.761719 7.167969 9.738281 7.335938 C 9.667969 7.789062 9.5 8.199219 9.226562 8.5625 C 8.773438 9.15625 8.1875 9.523438 7.445312 9.625 C 6.832031 9.707031 6.261719 9.585938 5.761719 9.210938 C 5.300781 8.863281 5.039062 8.398438 4.96875 7.824219 C 4.886719 7.144531 5.085938 6.53125 5.5 5.992188 C 5.945312 5.414062 6.53125 5.042969 7.25 4.914062 C 7.835938 4.804688 8.398438 4.875 8.90625 5.21875 C 9.238281 5.4375 9.476562 5.738281 9.632812 6.101562 C 9.667969 6.15625 9.644531 6.1875 9.570312 6.207031 Z M 9.570312 6.207031 "/>
<path fill="rgb(0%,67.450982%,84.313726%)" d="M 11.636719 9.664062 C 11.070312 9.648438 10.550781 9.488281 10.113281 9.113281 C 9.742188 8.792969 9.511719 8.386719 9.4375 7.90625 C 9.324219 7.199219 9.519531 6.574219 9.945312 6.019531 C 10.398438 5.417969 10.949219 5.105469 11.695312 4.976562 C 12.332031 4.863281 12.929688 4.925781 13.476562 5.292969 C 13.96875 5.632812 14.273438 6.085938 14.355469 6.6875 C 14.460938 7.53125 14.21875 8.21875 13.636719 8.804688 C 13.226562 9.226562 12.71875 9.488281 12.136719 9.605469 C 11.96875 9.636719 11.800781 9.644531 11.636719 9.664062 Z M 13.125 7.136719 C 13.117188 7.054688 13.117188 6.992188 13.105469 6.929688 C 12.992188 6.3125 12.425781 5.960938 11.832031 6.101562 C 11.25 6.230469 10.875 6.601562 10.738281 7.1875 C 10.625 7.675781 10.863281 8.167969 11.3125 8.367188 C 11.65625 8.519531 12 8.5 12.332031 8.332031 C 12.824219 8.074219 13.09375 7.675781 13.125 7.136719 Z M 13.125 7.136719 "/>
</g>
</svg>
