<?xml version="1.0" encoding="UTF-8"?>
<svg xmlns="http://www.w3.org/2000/svg" xmlns:xlink="http://www.w3.org/1999/xlink" width="16px" height="16px" viewBox="0 0 16 16" version="1.1">
<g id="surface1">
<path fill="rgb(56.862748%,14.901961%,14.901961%)" d="M 15.371094 12.285156 C 14.515625 12.804688 10.09375 14.921875 9.152344 15.492188 C 8.210938 16.0625 7.6875 16.058594 6.945312 15.644531 C 6.199219 15.230469 1.496094 13.019531 0.648438 12.546875 C 0.222656 12.3125 0 12.113281 0 11.921875 L 0 10.042969 C 0 10.042969 6.125 8.488281 7.117188 8.078125 C 8.105469 7.664062 8.449219 7.648438 9.289062 8.007812 C 10.132812 8.367188 15.164062 9.421875 15.996094 9.777344 L 15.996094 11.632812 C 15.996094 11.820312 15.804688 12.023438 15.371094 12.285156 "/>
<path fill="rgb(77.64706%,18.82353%,16.862746%)" d="M 15.371094 10.414062 C 14.515625 10.933594 10.09375 13.050781 9.152344 13.621094 C 8.210938 14.191406 7.6875 14.1875 6.945312 13.773438 C 6.199219 13.359375 1.496094 11.148438 0.648438 10.675781 C -0.199219 10.203125 -0.21875 9.878906 0.613281 9.5 C 1.445312 9.121094 6.125 6.984375 7.117188 6.570312 C 8.105469 6.15625 8.449219 6.140625 9.289062 6.5 C 10.132812 6.859375 14.527344 8.894531 15.359375 9.25 C 16.191406 9.605469 16.222656 9.898438 15.371094 10.414062 "/>
<path fill="rgb(56.862748%,14.901961%,14.901961%)" d="M 15.371094 9.242188 C 14.515625 9.757812 10.09375 11.875 9.152344 12.449219 C 8.210938 13.019531 7.6875 13.011719 6.945312 12.597656 C 6.199219 12.1875 1.496094 9.972656 0.648438 9.5 C 0.222656 9.265625 0 9.066406 0 8.878906 L 0 6.996094 C 0 6.996094 6.125 5.445312 7.117188 5.03125 C 8.105469 4.617188 8.449219 4.601562 9.289062 4.960938 C 10.132812 5.320312 15.164062 6.378906 15.996094 6.734375 L 15.996094 8.589844 C 15.996094 8.773438 15.804688 8.976562 15.371094 9.242188 "/>
<path fill="rgb(77.64706%,18.82353%,16.862746%)" d="M 15.371094 7.371094 C 14.515625 7.890625 10.09375 10.003906 9.152344 10.578125 C 8.210938 11.148438 7.6875 11.140625 6.945312 10.726562 C 6.199219 10.316406 1.496094 8.101562 0.648438 7.628906 C -0.199219 7.160156 -0.21875 6.835938 0.613281 6.453125 C 1.445312 6.074219 6.125 3.9375 7.117188 3.523438 C 8.105469 3.113281 8.449219 3.097656 9.289062 3.457031 C 10.132812 3.816406 14.527344 5.851562 15.359375 6.207031 C 16.191406 6.5625 16.222656 6.851562 15.371094 7.371094 "/>
<path fill="rgb(56.862748%,14.901961%,14.901961%)" d="M 15.371094 6.082031 C 14.515625 6.601562 10.09375 8.71875 9.152344 9.289062 C 8.210938 9.859375 7.6875 9.855469 6.945312 9.441406 C 6.199219 9.027344 1.496094 6.816406 0.648438 6.34375 C 0.222656 6.109375 0 5.910156 0 5.722656 L 0 3.839844 C 0 3.839844 6.125 2.285156 7.117188 1.875 C 8.105469 1.460938 8.449219 1.445312 9.289062 1.804688 C 10.132812 2.164062 15.164062 3.21875 15.996094 3.574219 L 15.996094 5.429688 C 15.996094 5.617188 15.804688 5.820312 15.371094 6.082031 "/>
<path fill="rgb(77.64706%,18.82353%,16.862746%)" d="M 15.371094 4.214844 C 14.515625 4.730469 10.09375 6.847656 9.152344 7.417969 C 8.210938 7.988281 7.6875 7.984375 6.945312 7.570312 C 6.199219 7.15625 1.496094 4.945312 0.648438 4.472656 C -0.199219 4 -0.21875 3.675781 0.613281 3.296875 C 1.445312 2.917969 6.125 0.78125 7.117188 0.367188 C 8.105469 -0.046875 8.449219 -0.0625 9.289062 0.296875 C 10.132812 0.65625 14.527344 2.695312 15.359375 3.046875 C 16.191406 3.402344 16.222656 3.695312 15.371094 4.214844 "/>
<path fill="rgb(100%,100%,100%)" d="M 9.953125 2.382812 L 8.578125 2.546875 L 8.269531 3.410156 L 7.773438 2.449219 L 6.183594 2.28125 L 7.371094 1.785156 L 7.015625 1.023438 L 8.125 1.527344 L 9.167969 1.128906 L 8.886719 1.917969 L 9.953125 2.382812 M 8.1875 6.566406 L 5.621094 5.328125 L 9.300781 4.667969 L 8.1875 6.566406 M 4.628906 2.863281 C 5.714844 2.863281 6.59375 3.257812 6.59375 3.75 C 6.59375 4.238281 5.714844 4.636719 4.628906 4.636719 C 3.542969 4.636719 2.664062 4.238281 2.664062 3.75 C 2.664062 3.257812 3.542969 2.863281 4.628906 2.863281 "/>
<path fill="rgb(38.431373%,10.588235%,10.980392%)" d="M 11.578125 2.617188 L 13.753906 3.621094 L 11.582031 4.621094 L 11.578125 2.617188 "/>
<path fill="rgb(60.392159%,16.078432%,15.686275%)" d="M 9.171875 3.726562 L 11.578125 2.617188 L 11.582031 4.621094 L 11.34375 4.726562 L 9.171875 3.726562 "/>
</g>
</svg>
