<?xml version="1.0" encoding="UTF-8"?>
<svg xmlns="http://www.w3.org/2000/svg" xmlns:xlink="http://www.w3.org/1999/xlink" width="16px" height="16px" viewBox="0 0 16 16" version="1.1">
<path fill="#e0234e" d="M 9.273438 0.265625 C 9.164062 0.265625 9.0625 0.289062 8.96875 0.320312 C 9.167969 0.460938 9.277344 0.640625 9.332031 0.847656 C 9.335938 0.875 9.34375 0.898438 9.347656 0.925781 C 9.351562 0.949219 9.355469 0.972656 9.355469 0.996094 C 9.371094 1.355469 9.265625 1.398438 9.191406 1.609375 C 9.078125 1.878906 9.109375 2.171875 9.246094 2.40625 C 9.257812 2.433594 9.273438 2.464844 9.292969 2.496094 C 9.144531 1.472656 9.96875 1.316406 10.121094 0.996094 C 10.132812 0.71875 9.910156 0.53125 9.734375 0.402344 C 9.566406 0.296875 9.414062 0.265625 9.273438 0.265625 Z M 10.515625 0.496094 C 10.5 0.589844 10.511719 0.566406 10.507812 0.613281 C 10.503906 0.644531 10.503906 0.6875 10.5 0.71875 C 10.492188 0.75 10.484375 0.785156 10.472656 0.816406 C 10.464844 0.847656 10.453125 0.878906 10.441406 0.914062 C 10.425781 0.945312 10.414062 0.972656 10.398438 1.003906 C 10.386719 1.023438 10.378906 1.039062 10.367188 1.054688 C 10.359375 1.066406 10.351562 1.078125 10.34375 1.089844 C 10.324219 1.117188 10.304688 1.148438 10.285156 1.171875 C 10.261719 1.195312 10.242188 1.222656 10.214844 1.246094 L 10.214844 1.25 C 10.191406 1.269531 10.167969 1.292969 10.140625 1.3125 C 10.058594 1.378906 9.964844 1.425781 9.878906 1.488281 C 9.851562 1.507812 9.824219 1.523438 9.800781 1.546875 C 9.773438 1.566406 9.75 1.589844 9.726562 1.613281 C 9.699219 1.636719 9.679688 1.660156 9.65625 1.6875 C 9.636719 1.714844 9.613281 1.742188 9.597656 1.769531 C 9.578125 1.796875 9.558594 1.828125 9.542969 1.855469 C 9.527344 1.886719 9.515625 1.914062 9.5 1.949219 C 9.488281 1.980469 9.476562 2.007812 9.46875 2.042969 C 9.457031 2.078125 9.449219 2.109375 9.441406 2.140625 C 9.4375 2.160156 9.4375 2.179688 9.433594 2.195312 C 9.429688 2.210938 9.429688 2.226562 9.425781 2.242188 C 9.425781 2.277344 9.421875 2.3125 9.421875 2.34375 C 9.421875 2.367188 9.421875 2.394531 9.425781 2.417969 C 9.425781 2.449219 9.429688 2.480469 9.4375 2.519531 C 9.441406 2.550781 9.449219 2.582031 9.457031 2.617188 C 9.46875 2.648438 9.476562 2.679688 9.488281 2.710938 C 9.496094 2.734375 9.507812 2.753906 9.515625 2.769531 L 8.617188 2.410156 C 8.464844 2.363281 8.316406 2.324219 8.164062 2.289062 C 8.082031 2.269531 8 2.246094 7.917969 2.226562 C 7.683594 2.179688 7.445312 2.140625 7.207031 2.117188 C 7.199219 2.117188 7.195312 2.113281 7.1875 2.113281 C 6.953125 2.089844 6.722656 2.078125 6.488281 2.078125 C 6.316406 2.078125 6.144531 2.085938 5.976562 2.097656 C 5.734375 2.113281 5.496094 2.144531 5.257812 2.1875 C 5.199219 2.195312 5.140625 2.207031 5.082031 2.21875 C 4.960938 2.242188 4.84375 2.273438 4.730469 2.300781 C 4.671875 2.316406 4.613281 2.332031 4.554688 2.347656 C 4.496094 2.371094 4.441406 2.402344 4.386719 2.425781 C 4.34375 2.445312 4.300781 2.464844 4.257812 2.484375 C 4.25 2.492188 4.242188 2.492188 4.238281 2.496094 C 4.199219 2.515625 4.164062 2.53125 4.128906 2.550781 C 4.117188 2.554688 4.109375 2.558594 4.101562 2.5625 C 4.058594 2.582031 4.015625 2.609375 3.980469 2.628906 C 3.953125 2.640625 3.925781 2.65625 3.902344 2.667969 C 3.890625 2.675781 3.875 2.683594 3.867188 2.6875 C 3.832031 2.707031 3.796875 2.730469 3.765625 2.75 C 3.730469 2.769531 3.699219 2.789062 3.671875 2.808594 C 3.644531 2.832031 3.617188 2.847656 3.59375 2.867188 C 3.589844 2.871094 3.585938 2.871094 3.582031 2.875 C 3.558594 2.890625 3.53125 2.910156 3.507812 2.929688 C 3.507812 2.929688 3.503906 2.933594 3.5 2.9375 C 3.480469 2.957031 3.460938 2.972656 3.441406 2.988281 C 3.433594 2.992188 3.425781 3 3.417969 3.003906 C 3.398438 3.019531 3.378906 3.039062 3.359375 3.054688 C 3.355469 3.066406 3.347656 3.070312 3.34375 3.074219 C 3.320312 3.097656 3.296875 3.117188 3.273438 3.140625 C 3.269531 3.140625 3.269531 3.144531 3.265625 3.148438 C 3.242188 3.167969 3.21875 3.195312 3.195312 3.21875 C 3.191406 3.222656 3.191406 3.226562 3.1875 3.226562 C 3.167969 3.246094 3.148438 3.265625 3.128906 3.292969 C 3.121094 3.300781 3.109375 3.308594 3.101562 3.316406 C 3.082031 3.339844 3.058594 3.363281 3.035156 3.386719 C 3.03125 3.394531 3.023438 3.402344 3.019531 3.410156 C 2.988281 3.441406 2.960938 3.472656 2.929688 3.503906 C 2.925781 3.507812 2.921875 3.515625 2.917969 3.519531 C 2.855469 3.585938 2.789062 3.65625 2.71875 3.714844 C 2.648438 3.78125 2.574219 3.839844 2.5 3.894531 C 2.421875 3.949219 2.347656 4 2.265625 4.046875 C 2.1875 4.09375 2.105469 4.132812 2.019531 4.167969 C 1.9375 4.207031 1.851562 4.238281 1.765625 4.265625 C 1.601562 4.300781 1.433594 4.371094 1.289062 4.382812 C 1.257812 4.382812 1.222656 4.390625 1.191406 4.394531 C 1.15625 4.402344 1.125 4.410156 1.09375 4.417969 C 1.0625 4.433594 1.03125 4.445312 1 4.457031 C 0.96875 4.46875 0.9375 4.484375 0.90625 4.5 C 0.878906 4.519531 0.847656 4.539062 0.820312 4.558594 C 0.792969 4.578125 0.765625 4.601562 0.742188 4.625 C 0.714844 4.644531 0.6875 4.675781 0.664062 4.699219 C 0.640625 4.726562 0.617188 4.75 0.597656 4.78125 C 0.578125 4.8125 0.554688 4.839844 0.539062 4.871094 C 0.519531 4.902344 0.5 4.933594 0.484375 4.964844 C 0.46875 5.003906 0.453125 5.035156 0.441406 5.070312 C 0.429688 5.105469 0.417969 5.140625 0.40625 5.175781 C 0.398438 5.207031 0.390625 5.242188 0.386719 5.273438 C 0.386719 5.277344 0.382812 5.28125 0.382812 5.285156 C 0.375 5.320312 0.375 5.371094 0.371094 5.394531 C 0.367188 5.421875 0.363281 5.449219 0.363281 5.476562 C 0.363281 5.492188 0.363281 5.511719 0.367188 5.527344 C 0.371094 5.554688 0.375 5.582031 0.382812 5.605469 C 0.390625 5.628906 0.398438 5.652344 0.410156 5.679688 L 0.410156 5.683594 C 0.421875 5.707031 0.4375 5.730469 0.453125 5.753906 C 0.46875 5.777344 0.484375 5.804688 0.503906 5.828125 C 0.523438 5.847656 0.546875 5.871094 0.570312 5.890625 C 0.59375 5.917969 0.617188 5.9375 0.644531 5.957031 C 0.738281 6.042969 0.761719 6.070312 0.882812 6.136719 C 0.902344 6.148438 0.921875 6.15625 0.945312 6.167969 C 0.949219 6.167969 0.953125 6.171875 0.957031 6.171875 C 0.957031 6.179688 0.957031 6.183594 0.960938 6.191406 C 0.964844 6.222656 0.972656 6.257812 0.980469 6.289062 C 0.988281 6.324219 1 6.359375 1.011719 6.386719 C 1.023438 6.410156 1.03125 6.433594 1.042969 6.457031 C 1.046875 6.464844 1.050781 6.476562 1.054688 6.480469 C 1.070312 6.511719 1.085938 6.539062 1.101562 6.566406 C 1.121094 6.597656 1.140625 6.625 1.160156 6.652344 C 1.179688 6.675781 1.203125 6.707031 1.226562 6.730469 C 1.25 6.753906 1.273438 6.773438 1.300781 6.796875 C 1.300781 6.796875 1.304688 6.800781 1.308594 6.800781 C 1.332031 6.824219 1.355469 6.84375 1.378906 6.859375 C 1.40625 6.878906 1.433594 6.894531 1.464844 6.910156 C 1.492188 6.929688 1.523438 6.945312 1.554688 6.957031 C 1.578125 6.96875 1.605469 6.976562 1.632812 6.984375 C 1.636719 6.988281 1.640625 6.988281 1.648438 6.992188 C 1.664062 6.996094 1.683594 7 1.699219 7.003906 C 1.6875 7.222656 1.683594 7.429688 1.714844 7.503906 C 1.75 7.582031 1.921875 7.335938 2.09375 7.054688 C 2.070312 7.332031 2.054688 7.660156 2.09375 7.757812 C 2.136719 7.859375 2.371094 7.542969 2.574219 7.195312 C 5.34375 6.53125 7.875 8.515625 8.140625 11.3125 C 8.089844 10.875 7.570312 10.632812 7.332031 10.695312 C 7.214844 10.992188 7.015625 11.378906 6.695312 11.617188 C 6.722656 11.347656 6.710938 11.074219 6.65625 10.808594 C 6.570312 11.179688 6.402344 11.527344 6.171875 11.828125 C 5.800781 11.855469 5.425781 11.667969 5.230469 11.390625 C 5.214844 11.378906 5.210938 11.351562 5.199219 11.335938 C 5.1875 11.308594 5.175781 11.28125 5.167969 11.253906 C 5.15625 11.222656 5.148438 11.195312 5.144531 11.167969 C 5.140625 11.140625 5.140625 11.109375 5.140625 11.078125 C 5.140625 11.058594 5.140625 11.039062 5.140625 11.019531 C 5.144531 10.988281 5.152344 10.960938 5.160156 10.933594 C 5.167969 10.90625 5.175781 10.875 5.1875 10.847656 C 5.203125 10.820312 5.214844 10.792969 5.234375 10.761719 C 5.300781 10.570312 5.300781 10.410156 5.179688 10.316406 C 5.15625 10.300781 5.132812 10.289062 5.105469 10.277344 C 5.089844 10.273438 5.070312 10.265625 5.054688 10.261719 C 5.042969 10.257812 5.035156 10.253906 5.023438 10.25 C 4.996094 10.242188 4.96875 10.234375 4.941406 10.230469 C 4.914062 10.222656 4.886719 10.214844 4.859375 10.214844 C 4.832031 10.210938 4.800781 10.207031 4.773438 10.207031 C 4.753906 10.207031 4.734375 10.210938 4.714844 10.210938 C 4.683594 10.210938 4.65625 10.214844 4.628906 10.226562 C 4.601562 10.230469 4.574219 10.234375 4.546875 10.242188 C 4.519531 10.25 4.492188 10.257812 4.464844 10.269531 C 4.4375 10.28125 4.414062 10.292969 4.386719 10.304688 C 4.363281 10.316406 4.339844 10.335938 4.3125 10.347656 C 3.402344 10.960938 3.945312 12.402344 4.566406 12.816406 C 4.332031 12.863281 4.09375 12.914062 4.027344 12.96875 C 4.023438 12.972656 4.019531 12.976562 4.019531 12.976562 C 4.1875 13.082031 4.363281 13.167969 4.546875 13.246094 C 4.796875 13.332031 5.0625 13.410156 5.179688 13.441406 L 5.179688 13.445312 C 5.503906 13.511719 5.835938 13.539062 6.167969 13.519531 C 7.898438 13.390625 9.316406 12.027344 9.574219 10.234375 C 9.582031 10.269531 9.589844 10.300781 9.597656 10.339844 C 9.609375 10.410156 9.625 10.488281 9.632812 10.566406 L 9.632812 10.570312 C 9.640625 10.605469 9.644531 10.640625 9.648438 10.675781 L 9.648438 10.691406 C 9.652344 10.726562 9.65625 10.761719 9.65625 10.796875 C 9.660156 10.839844 9.664062 10.882812 9.664062 10.929688 L 9.664062 10.992188 C 9.664062 11.011719 9.667969 11.039062 9.667969 11.058594 C 9.667969 11.082031 9.664062 11.105469 9.664062 11.132812 L 9.664062 11.1875 C 9.664062 11.214844 9.660156 11.238281 9.660156 11.269531 C 9.660156 11.285156 9.660156 11.300781 9.65625 11.320312 C 9.65625 11.347656 9.652344 11.378906 9.652344 11.410156 C 9.648438 11.421875 9.648438 11.433594 9.648438 11.445312 C 9.644531 11.480469 9.640625 11.507812 9.636719 11.539062 C 9.636719 11.550781 9.636719 11.5625 9.632812 11.574219 C 9.628906 11.617188 9.621094 11.652344 9.617188 11.691406 L 9.617188 11.703125 C 9.609375 11.738281 9.601562 11.777344 9.59375 11.816406 L 9.59375 11.828125 C 9.585938 11.863281 9.578125 11.898438 9.570312 11.9375 C 9.570312 11.941406 9.566406 11.949219 9.566406 11.953125 C 9.558594 11.988281 9.550781 12.023438 9.539062 12.0625 L 9.539062 12.074219 C 9.527344 12.113281 9.515625 12.152344 9.507812 12.1875 C 9.503906 12.191406 9.503906 12.195312 9.503906 12.195312 C 9.492188 12.234375 9.480469 12.277344 9.46875 12.316406 C 9.453125 12.355469 9.441406 12.394531 9.425781 12.433594 C 9.410156 12.472656 9.398438 12.515625 9.382812 12.550781 C 9.367188 12.589844 9.351562 12.628906 9.335938 12.667969 L 9.332031 12.667969 C 9.316406 12.703125 9.300781 12.746094 9.28125 12.78125 C 9.277344 12.792969 9.273438 12.800781 9.269531 12.808594 C 9.265625 12.8125 9.265625 12.816406 9.261719 12.820312 C 9.007812 13.351562 8.632812 13.816406 8.164062 14.179688 C 8.132812 14.203125 8.101562 14.226562 8.070312 14.25 C 8.0625 14.257812 8.050781 14.261719 8.042969 14.269531 C 8.015625 14.289062 7.988281 14.3125 7.957031 14.332031 L 7.96875 14.355469 L 7.972656 14.355469 C 8.027344 14.347656 8.082031 14.339844 8.136719 14.332031 L 8.140625 14.332031 C 8.242188 14.316406 8.34375 14.292969 8.445312 14.273438 C 8.472656 14.269531 8.503906 14.261719 8.53125 14.253906 C 8.550781 14.25 8.566406 14.246094 8.585938 14.242188 C 8.613281 14.238281 8.640625 14.230469 8.667969 14.226562 C 8.691406 14.21875 8.714844 14.214844 8.738281 14.207031 C 9.128906 14.109375 9.507812 13.976562 9.871094 13.816406 C 9.25 14.695312 8.417969 15.402344 7.445312 15.867188 C 7.894531 15.835938 8.34375 15.757812 8.777344 15.628906 C 10.351562 15.148438 11.675781 14.050781 12.46875 12.574219 C 12.308594 13.507812 11.949219 14.398438 11.417969 15.175781 C 11.796875 14.917969 12.144531 14.617188 12.460938 14.277344 C 13.335938 13.332031 13.910156 12.128906 14.105469 10.839844 C 14.238281 11.480469 14.277344 12.136719 14.21875 12.789062 C 17.042969 8.714844 14.453125 4.492188 13.371094 3.378906 C 13.367188 3.371094 13.363281 3.367188 13.363281 3.359375 C 13.359375 3.363281 13.359375 3.363281 13.359375 3.367188 C 13.359375 3.363281 13.359375 3.363281 13.355469 3.359375 C 13.355469 3.410156 13.351562 3.457031 13.347656 3.503906 C 13.335938 3.597656 13.324219 3.6875 13.308594 3.777344 C 13.289062 3.867188 13.265625 3.953125 13.242188 4.042969 C 13.214844 4.128906 13.183594 4.21875 13.148438 4.300781 C 13.113281 4.382812 13.074219 4.46875 13.03125 4.550781 C 12.988281 4.625 12.941406 4.707031 12.890625 4.78125 C 12.839844 4.855469 12.785156 4.929688 12.730469 5 C 12.671875 5.070312 12.609375 5.136719 12.546875 5.199219 C 12.507812 5.238281 12.472656 5.269531 12.433594 5.300781 C 12.402344 5.332031 12.375 5.355469 12.34375 5.382812 C 12.273438 5.4375 12.203125 5.492188 12.125 5.539062 C 12.050781 5.589844 11.972656 5.636719 11.894531 5.679688 C 11.8125 5.71875 11.730469 5.753906 11.648438 5.792969 C 11.566406 5.824219 11.480469 5.851562 11.394531 5.875 C 11.308594 5.902344 11.21875 5.921875 11.132812 5.9375 C 11.042969 5.953125 10.953125 5.960938 10.867188 5.96875 C 10.804688 5.972656 10.742188 5.976562 10.679688 5.976562 C 10.589844 5.976562 10.5 5.96875 10.414062 5.960938 C 10.324219 5.953125 10.234375 5.941406 10.148438 5.921875 C 10.058594 5.90625 9.972656 5.878906 9.886719 5.851562 L 9.882812 5.851562 C 9.96875 5.84375 10.054688 5.835938 10.140625 5.820312 C 10.230469 5.804688 10.316406 5.78125 10.402344 5.757812 C 10.488281 5.734375 10.574219 5.707031 10.65625 5.675781 C 10.742188 5.640625 10.824219 5.601562 10.902344 5.5625 C 10.984375 5.519531 11.058594 5.476562 11.136719 5.425781 C 11.210938 5.375 11.285156 5.320312 11.355469 5.265625 C 11.425781 5.207031 11.492188 5.148438 11.554688 5.082031 C 11.621094 5.023438 11.679688 4.953125 11.738281 4.886719 C 11.796875 4.8125 11.851562 4.738281 11.902344 4.667969 C 11.910156 4.65625 11.917969 4.636719 11.925781 4.625 C 11.964844 4.5625 12.003906 4.496094 12.039062 4.433594 C 12.082031 4.351562 12.121094 4.269531 12.15625 4.183594 C 12.191406 4.101562 12.222656 4.015625 12.25 3.925781 C 12.277344 3.839844 12.296875 3.753906 12.316406 3.664062 C 12.332031 3.570312 12.347656 3.480469 12.355469 3.390625 C 12.363281 3.300781 12.371094 3.207031 12.371094 3.117188 C 12.371094 3.050781 12.367188 2.988281 12.363281 2.921875 C 12.355469 2.832031 12.34375 2.742188 12.332031 2.652344 C 12.316406 2.558594 12.296875 2.46875 12.273438 2.382812 C 12.246094 2.296875 12.21875 2.207031 12.1875 2.121094 C 12.15625 2.039062 12.117188 1.953125 12.078125 1.871094 C 12.035156 1.789062 11.992188 1.710938 11.945312 1.632812 C 11.894531 1.554688 11.84375 1.484375 11.789062 1.410156 C 11.730469 1.339844 11.671875 1.273438 11.609375 1.203125 C 11.578125 1.171875 11.542969 1.136719 11.507812 1.101562 C 11.332031 0.960938 11.148438 0.828125 10.964844 0.707031 C 10.9375 0.691406 10.914062 0.679688 10.886719 0.664062 C 10.757812 0.582031 10.636719 0.535156 10.515625 0.496094 Z M 10.515625 0.496094 "/>
</svg>
