<?xml version="1.0" encoding="UTF-8"?>
<svg xmlns="http://www.w3.org/2000/svg" xmlns:xlink="http://www.w3.org/1999/xlink" width="16px" height="16px" viewBox="0 0 16 16" version="1.1">
<g id="surface1">
<path fill="rgb(0.392157%,58.823532%,22.352941%)" d="M 7.972656 1 L 8.007812 1 C 8.171875 1.078125 8.335938 1.167969 8.492188 1.265625 C 10.300781 2.304688 12.113281 3.34375 13.921875 4.386719 C 14.066406 4.464844 14.148438 4.621094 14.128906 4.78125 C 14.125 6.976562 14.128906 9.167969 14.125 11.363281 C 14.101562 11.46875 14.039062 11.558594 13.949219 11.617188 C 12.023438 12.722656 10.097656 13.832031 8.175781 14.9375 C 8.078125 15.011719 7.949219 15.019531 7.847656 14.957031 C 5.917969 13.851562 3.996094 12.746094 2.070312 11.636719 C 1.945312 11.578125 1.863281 11.445312 1.871094 11.304688 C 1.871094 9.109375 1.871094 6.917969 1.871094 4.722656 C 1.863281 4.582031 1.9375 4.449219 2.066406 4.386719 C 3.871094 3.347656 5.679688 2.308594 7.488281 1.265625 C 7.648438 1.175781 7.804688 1.078125 7.972656 1 "/>
<path fill="rgb(100%,100%,100%)" d="M 4.382812 5.269531 C 4.382812 7.078125 4.382812 8.886719 4.382812 10.699219 C 4.378906 10.902344 4.457031 11.097656 4.597656 11.242188 C 4.875 11.515625 5.300781 11.558594 5.628906 11.34375 C 5.839844 11.199219 5.96875 10.957031 5.96875 10.699219 C 5.96875 9.386719 5.96875 8.078125 5.96875 6.769531 C 7.164062 8.199219 8.359375 9.625 9.558594 11.050781 C 9.898438 11.394531 10.386719 11.542969 10.859375 11.445312 C 11.195312 11.378906 11.449219 11.097656 11.484375 10.757812 C 11.488281 8.910156 11.488281 7.0625 11.484375 5.21875 C 11.449219 4.808594 11.109375 4.496094 10.699219 4.496094 C 10.289062 4.496094 9.945312 4.808594 9.910156 5.21875 C 9.910156 6.546875 9.902344 7.878906 9.910156 9.207031 C 8.738281 7.824219 7.578125 6.429688 6.410156 5.042969 C 6.097656 4.640625 5.589844 4.4375 5.085938 4.515625 C 4.699219 4.558594 4.398438 4.878906 4.382812 5.269531 Z M 4.382812 5.269531 "/>
</g>
</svg>
